<svg xmlns="http://www.w3.org/2000/svg">
  <symbol viewBox="0 0 480 480" id="rice">
    <title>rice</title>
    <path
      d="m 120.99414,261.41211 a 3.5,3.5 0 0 0 -3.5,3.5 3.5,3.5 0 0 0 3.5,3.5 h 242.76367 a 3.5,3.5 0 0 0 3.5,-3.5 3.5,3.5 0 0 0 -3.5,-3.5 z m 11.76823,24.62891 a 3.5416661,3.5 0 0 0 -3.54167,3.5 3.5416661,3.5 0 0 0 3.54167,3.5 h 218.35992 a 3.5416661,3.5 0 0 0 3.54167,-3.5 3.5416661,3.5 0 0 0 -3.54167,-3.5 z m 148.65169,-88.54493 a 3.5,3.5 0 0 0 -0.61914,0.0469 l -17.5918,2.93164 a 3.5,3.5 0 0 0 -2.87695,4.02734 3.5,3.5 0 0 0 4.02735,2.87696 l 17.59179,-2.93164 a 3.5,3.5 0 0 0 2.87696,-4.02735 3.5,3.5 0 0 0 -3.40821,-2.92383 z m -63.99414,0.58594 a 3.5,3.5 0 0 0 -3.0625,1.86914 3.5,3.5 0 0 0 1.4668,4.72852 l 11.14062,5.86328 a 3.5,3.5 0 0 0 4.72852,-1.4668 3.5,3.5 0 0 0 -1.4668,-4.72851 l -11.14258,-5.86328 a 3.5,3.5 0 0 0 -1.66406,-0.40235 z m 39.23828,-24.04101 a 3.5,3.5 0 0 0 -0.92187,0.14648 l -17.5918,5.27734 a 3.5,3.5 0 0 0 -2.3457,4.35743 3.5,3.5 0 0 0 4.35742,2.34765 l 17.5918,-5.27734 a 3.5,3.5 0 0 0 2.3457,-4.35742 3.5,3.5 0 0 0 -3.43555,-2.49414 z m 50.44922,17.59179 a 3.5,3.5 0 0 0 -2.16406,0.80078 3.5,3.5 0 0 0 -0.4707,4.92774 l 11.14257,13.48633 a 3.5,3.5 0 0 0 4.92774,0.46875 3.5,3.5 0 0 0 0.46875,-4.92774 l -11.14258,-13.48633 a 3.5,3.5 0 0 0 -2.76172,-1.26953 z m -113.98047,-2.34765 a 3.5,3.5 0 0 0 -1.79297,0.49023 l -15.83203,9.38281 a 3.5,3.5 0 0 0 -1.22656,4.79492 3.5,3.5 0 0 0 4.79492,1.22657 l 15.83399,-9.38281 a 3.5,3.5 0 0 0 1.22656,-4.79493 3.5,3.5 0 0 0 -3.00391,-1.71679 z m 39.71289,-38.86719 c -7.91591,-0.40488 -16.65586,2.44768 -27.30859,10.54101 -4.443,2.21603 -9.76522,1.68596 -16.30664,2.45118 -6.25628,0.73186 -13.39784,3.47256 -19.66797,11.56836 -13.62576,2.31687 -19.72602,7.64992 -23.10742,12.67382 -1.75306,2.6046 -2.91406,4.87465 -4.33984,6.57032 -1.42579,1.69567 -3.02666,2.99506 -6.32032,4.01757 a 3.50035,3.50035 0 0 0 -0.16797,0.0566 c -8.95734,3.2862 -12.9816,9.08963 -14.30859,14.58593 -1.32699,5.49631 -0.86438,10.44267 -1.86914,13.36133 a 3.50035,3.50035 0 0 0 3.30859,4.63867 h 240.41993 a 3.50035,3.50035 0 0 0 3.0039,-1.70312 c 3.65547,-6.11354 1.74887,-13.46082 -2.68945,-19.57617 -4.24382,-5.84737 -10.90734,-11.20095 -18.77735,-15.5293 -1.5511,-2.9019 -2.66399,-6.44661 -5.08007,-10.29688 -2.5804,-4.11211 -6.83596,-8.16136 -14.2461,-11.17773 -6.36578,-3.19774 -11.60187,-3.37314 -16.41211,-2.77734 -4.74195,0.58734 -9.24409,1.62764 -16.14258,1.27929 -1.99899,-0.63651 -3.18581,-1.3371 -4.45703,-2.30664 -1.36417,-1.04043 -2.91182,-2.49362 -5.29297,-4.00976 -4.70254,-2.99425 -12.26941,-5.8087 -28.6289,-7.65235 -7.11318,-3.00256 -13.7285,-6.31175 -21.60938,-6.71484 z m -0.35742,6.99023 c 6.18667,0.31644 12.15811,3.20302 19.68164,6.35547 a 3.50035,3.50035 0 0 0 0.97071,0.25 c 16.25304,1.78216 22.56621,4.37249 26.18359,6.67578 1.80869,1.15165 3.06248,2.33968 4.80664,3.66993 1.74416,1.33024 3.98061,2.68958 7.10742,3.60742 a 3.50035,3.50035 0 0 0 0.7793,0.13476 c 8.07756,0.47649 13.54854,-0.80317 17.81836,-1.33203 4.26982,-0.52886 7.23261,-0.56066 12.52539,2.13086 a 3.50035,3.50035 0 0 0 0.2793,0.12695 c 6.41482,2.58462 9.12768,5.38116 11.0664,8.47071 1.93873,3.08954 2.95651,6.80655 5.29688,10.81445 a 3.50035,3.50035 0 0 0 1.38281,1.32812 c 7.59871,4.02727 13.90507,9.20167 17.44141,14.07422 2.93403,4.04268 3.80546,7.34742 2.97656,10.16797 H 127.08789 c 0.45725,-3.42769 0.37757,-6.65605 1.0293,-9.35547 0.94043,-3.8952 2.56728,-6.96482 9.91406,-9.66015 l -0.16797,0.0566 c 4.43312,-1.37627 7.49658,-3.69152 9.60352,-6.19727 2.10693,-2.50575 3.34697,-5.02343 4.78906,-7.16601 2.88419,-4.28516 6.22178,-7.99593 19.67578,-9.97071 a 3.50035,3.50035 0 0 0 2.34375,-1.43359 c 5.49642,-7.72348 10.23421,-9.14613 15.76367,-9.79297 5.52947,-0.64683 12.07144,0.19058 18.73633,-3.1875 a 3.50035,3.50035 0 0 0 0.55469,-0.35156 c 10.07146,-7.76323 16.96567,-9.73245 23.15234,-9.41602 z m -124.77539,66.96094 a 3.50035,3.50035 0 0 0 -3.4707,3.95508 c 6.10994,46.56371 32.74698,87.18579 71.66211,109.57617 v 12.88672 c 0,6.94953 4.60263,13.36523 11.29883,13.36523 h 107.37109 c 6.69619,0 11.29883,-6.4157 11.29883,-13.36523 v -11.19336 c 40.51613,-21.97327 68.39469,-63.47606 74.66601,-111.26953 a 3.50035,3.50035 0 0 0 -3.4707,-3.95508 z m 4.2207,7 h 261.02735 c -6.82848,43.04798 -32.00808,80.21669 -68.08399,100.75781 -1.67566,-4.56281 -5.40476,-8.02734 -10.30273,-8.02734 H 187.19727 c -4.37935,0 -7.69955,2.86265 -9.58594,6.70508 -34.87213,-20.80339 -58.99649,-57.34831 -65.6836,-99.43555 z m 79.17188,100.08789 h 100.7168 c 2.95186,0 5.82964,2.47746 7.05078,6.69922 v 12.63086 c 0,3.97923 -2.35454,6.36523 -4.29883,6.36523 H 187.19727 c -1.94431,0 -4.29883,-2.386 -4.29883,-6.36523 v -11.29102 a 3.50035,3.50035 0 0 0 1.22851,-1.72265 c 1.29941,-4.03403 4.1035,-6.31641 6.97266,-6.31641 z" />
  </symbol>

  <symbol viewBox="0 0 480 480" id="chips">
    <tile>chips</tile>
    <path
      d="m 139.97266,367.76367 a 3.5,3.5 0 0 0 -3.39258,2.9336 c 0,0 -0.78057,4.75294 -1.29688,10.69921 -0.51631,5.94628 -0.86358,13.00874 0.33399,18.51758 a 3.50035,3.50035 0 0 0 4.45312,2.59961 c 9.83963,-3.04385 14.40796,-4.05052 16.11719,-4.2832 3.70681,2.37472 7.03723,6.16667 13.07422,8.36133 a 3.50035,3.50035 0 0 0 2.5,-0.041 c 4.53238,-1.81955 8.60064,-2.83834 11.85937,-5.01758 3.11518,2.24004 6.16428,4.0015 8.96289,5.64063 a 3.50035,3.50035 0 0 0 3.33985,0.10742 c 6.2549,-3.14269 7.70782,-4.3963 9.41406,-5.69922 l 9.00391,5.98438 a 3.50035,3.50035 0 0 0 2.58203,0.52539 c 3.3859,-0.63451 6.96498,-2.66539 11.01953,-5.40821 4.00815,1.9588 7.84809,3.78524 10.42969,6.08008 a 3.50035,3.50035 0 0 0 4.57031,0.0684 c 2.98264,-2.49535 5.26452,-3.0414 7.85352,-4.29883 l 9.23632,4.72852 a 3.50035,3.50035 0 0 0 2.99219,0.0937 c 4.00663,-1.74535 7.92674,-4.34779 11.80078,-7.4707 2.98053,1.76121 5.96089,3.52199 8.94141,5.2832 a 3.50035,3.50035 0 0 0 3.23437,0.16992 c 2.94709,-1.34423 6.32362,-3.0219 10.66016,-5.69531 4.59184,2.44036 7.84269,3.48739 10.99609,4.75976 a 3.50035,3.50035 0 0 0 3.61719,-0.61328 c 3.62212,-3.17678 6.47854,-5.58875 8.55273,-7.24023 1.94908,0.0322 5.98823,1.18254 10.60157,3.30273 a 3.50035,3.50035 0 0 0 4.09179,-0.86914 l 5.85743,-6.66797 c 5.06567,1.84342 8.26093,2.39625 11.55664,3.25782 a 3.50035,3.50035 0 0 0 4.37695,-3.64844 c -0.70199,-9.31547 -3.39095,-16.69523 -5.86914,-22.88086 a 3.5,3.5 0 0 0 -4.55078,-1.94727 3.5,3.5 0 0 0 -1.94727,4.55078 c 1.9227,4.79911 3.76263,9.9539 4.76367,16.01172 -2.11127,-0.47897 -4.41174,-1.10804 -8.08984,-2.63086 a 3.50035,3.50035 0 0 0 -3.96875,0.92383 l -5.74414,6.53711 c -4.3594,-1.93384 -8.52724,-3.54285 -12.68555,-3.00781 a 3.50035,3.50035 0 0 0 -1.6914,0.70117 c -1.95397,1.5073 -5.02728,4.16897 -8.25391,6.97852 -3.05167,-1.12409 -5.64393,-1.95752 -10,-4.50586 a 3.50035,3.50035 0 0 0 -3.66992,0.084 c -4.23401,2.74566 -7.08261,4.14865 -9.88672,5.45117 -3.11758,-1.8422 -6.23595,-3.68514 -9.35352,-5.52734 a 3.50035,3.50035 0 0 0 -4.07812,0.37305 c -3.63523,3.16539 -7.1998,5.46113 -10.69727,7.16015 l -9.12304,-4.66992 a 3.50035,3.50035 0 0 0 -3.57618,0.23047 c -1.24437,0.8543 -4.24901,1.46339 -8.12109,4.05664 -3.70905,-2.67082 -7.83186,-4.46269 -11.46875,-6.27344 a 3.50035,3.50035 0 0 0 -3.58398,0.27735 c -3.91523,2.77668 -6.97936,4.3016 -8.9668,4.94726 l -9.55664,-6.35547 a 3.50035,3.50035 0 0 0 -3.79883,-0.0488 c -3.52529,2.21485 -3.81006,2.97583 -9.02344,5.7539 -3.02896,-1.73809 -5.89212,-3.3504 -8.63671,-5.6289 a 3.50035,3.50035 0 0 0 -4.78711,0.29687 c -0.85439,0.91016 -5.06785,2.57593 -10.37696,4.69922 -3.69914,-1.70216 -6.48846,-4.65906 -11.02343,-7.44141 -0.13802,-0.11476 -0.26434,-0.34177 -0.39649,-0.41015 -1.80211,-0.93251 -2.43657,-0.53742 -3.74414,-0.36719 -2.14362,0.27907 -6.47807,1.36511 -13.25195,3.36328 -0.28612,-3.83141 -0.26421,-8.38612 0.10351,-12.62109 0.4917,-5.66278 1.23047,-10.17383 1.23047,-10.17383 a 3.5,3.5 0 0 0 -2.88867,-4.02149 3.5,3.5 0 0 0 -0.62695,-0.0449 z m 14.55468,25.55274 a 3.50035,3.50035 0 0 0 -0.0293,0.0547 c 0.0147,-0.0297 0.0148,-0.0274 0.0293,-0.0547 z m 71.4043,-319.324222 a 3.50035,3.50035 0 0 0 -2.58203,1.210937 c -1.77816,2.057794 -4.1613,4.056419 -6.66016,4.917969 -3.51477,-2.532834 -6.72742,-3.252888 -8.08984,-4.228516 a 3.50035,3.50035 0 0 0 -3.91992,-0.105469 c -4.80899,3.067366 -7.20219,5.130917 -9.4961,6.939453 -5.82566,-0.774786 -10.50062,-2.262977 -13.88671,-4.441406 a 3.50035,3.50035 0 0 0 -3.64844,-0.08594 c -3.93502,2.277254 -7.99745,4.642205 -12.11524,7.5 -4.75441,-1.207482 -9.77198,-2.483665 -15.59375,-2.513672 a 3.50035,3.50035 0 0 0 -2.0625,0.658203 c -6.49478,4.674495 -7.49854,7.306719 -9.20898,9.632812 -0.64933,0.02775 -1.60992,0.01795 -2.73242,0 -2.36856,-0.03788 -5.17807,-0.200397 -7.97461,0.699219 -1.39827,0.449809 -3.06518,1.314531 -4.00391,3.146485 -0.93873,1.831953 -0.67002,3.992604 0.0937,5.753904 1.52755,3.5226 4.86732,7.11025 11.27344,12.62305 a 3.5,3.5 0 0 0 4.93555,-0.3711 3.5,3.5 0 0 0 -0.3711,-4.93554 c -5.66594,-4.87585 -8.24147,-8.12528 -9.04687,-9.60156 1.09765,-0.20612 2.95743,-0.34681 4.98047,-0.31446 1.16146,0.0186 2.28901,0.0481 3.37109,-0.01 0.54104,-0.029 1.06743,-0.0713 1.68164,-0.20899 0.61421,-0.13772 1.40308,-0.274171 2.35938,-1.230466 a 3.50035,3.50035 0 0 0 0.18945,-0.205078 c 2.97095,-3.485468 2.47788,-4.645915 7.57031,-8.517578 4.88483,0.187028 9.44422,1.306219 14.34766,2.541015 a 3.50035,3.50035 0 0 0 2.9082,-0.558594 c 3.66252,-2.653656 7.40052,-4.832767 11.22266,-7.042968 4.49829,2.44365 9.88677,4.015968 16.25195,4.697265 a 3.50035,3.50035 0 0 0 2.46875,-0.675781 c 2.66473,-1.992773 4.83684,-3.873265 8.66211,-6.458984 2.56609,1.299487 4.88827,2.020854 6.83984,3.769531 a 3.50035,3.50035 0 0 0 2.91797,0.845703 c 4.451,-0.751287 7.57477,-3.29712 10.05469,-5.789063 4.93852,2.264101 8.62405,3.918105 13.18945,5.414063 a 3.50035,3.50035 0 0 0 2.49414,-0.119141 c 3.94599,-1.728012 5.94877,-2.781798 11.80469,-5.126953 3.26041,1.321643 6.10962,2.592613 7.61133,4.261719 a 3.50035,3.50035 0 0 0 3.19922,1.107422 c 3.63234,-0.628911 7.97475,-1.534241 12.57617,-4.392578 3.3698,3.182104 7.09322,4.432305 9.5332,6.083984 a 3.50035,3.50035 0 0 0 3.43164,0.277344 c 4.18081,-1.936216 8.30237,-4.258693 12.39258,-6.732422 3.2417,0.506734 6.07172,2.426822 9.03516,5.492188 a 3.50035,3.50035 0 0 0 3.20312,1 c 4.45061,-0.889049 7.1718,-2.243779 9.05469,-3.488282 1.20979,-0.79962 2.01526,-1.360724 2.86133,-1.853515 1.78608,1.410103 3.82873,2.936438 7.79492,5.757812 a 3.50035,3.50035 0 0 0 4.19531,-0.103515 c 2.12269,-1.672823 4.50869,-3.062633 7.89844,-4.28711 1.72445,2.178359 3.32891,4.791602 5.17969,7.667969 a 3.50035,3.50035 0 0 0 5.0957,0.867187 c 4.93259,-3.845272 7.9594,-4.511855 11.86914,-4.09375 -1.48089,4.99322 -5.97971,11.222766 -9.35937,17.328126 a 3.5,3.5 0 0 0 1.36718,4.75781 3.5,3.5 0 0 0 4.75782,-1.36719 c 3.44207,-6.21811 10.88216,-14.111627 10.90234,-23.61523 a 3.50035,3.50035 0 0 0 -2.8457,-3.445312 c -5.63979,-1.071287 -11.43617,-0.80923 -17.70508,2.875 -1.55922,-2.560197 -3.22647,-5.228517 -5.64063,-7.642579 a 3.50035,3.50035 0 0 0 -3.41797,-0.894531 c -4.53625,1.271109 -7.57968,3.041474 -10.16406,4.833984 -3.45211,-2.495382 -6.92258,-5.036516 -7.24023,-5.320312 a 3.50035,3.50035 0 0 0 -3.52149,-0.681641 c -2.86745,1.035833 -4.49828,2.459263 -5.88672,3.376953 -1.11556,0.737341 -2.58149,1.385302 -4.92968,2.003907 -3.50175,-3.267746 -7.6729,-5.970434 -12.92383,-6.328125 a 3.50035,3.50035 0 0 0 -2.06836,0.507812 c -3.82239,2.345527 -7.59436,4.387248 -11.33594,6.207032 -3.36081,-1.942261 -6.20381,-3.06429 -8.16992,-5.775391 a 3.50035,3.50035 0 0 0 -5.01758,-0.681641 c -3.82377,3.053832 -6.94948,3.76922 -10.55273,4.417969 -3.07284,-2.596753 -6.71732,-3.926263 -9.89063,-5.185547 a 3.50035,3.50035 0 0 0 -2.56445,-0.0059 c -7.09461,2.768985 -8.73315,3.726454 -12.02734,5.216797 -4.23709,-1.463618 -7.64029,-2.993136 -13.39454,-5.636719 a 3.50035,3.50035 0 0 0 -1.52734,-0.318359 z M 185.92578,238.45312 c -9.10154,0 -16.53906,7.43753 -16.53906,16.53907 v 18.32226 c 0,9.10154 7.43752,16.53907 16.53906,16.53907 h 118.39844 c 9.10154,0 16.53906,-7.43753 16.53906,-16.53907 v -18.32226 c 0,-9.10154 -7.43752,-16.53907 -16.53906,-16.53907 z m 0,7 h 118.39844 c 5.34462,0 9.53906,4.19445 9.53906,9.53907 v 18.32226 c 0,5.34462 -4.19444,9.53907 -9.53906,9.53907 H 185.92578 c -5.34462,0 -9.53906,-4.19445 -9.53906,-9.53907 v -18.32226 c 0,-5.34462 4.19444,-9.53907 9.53906,-9.53907 z m 59.4082,-81 c -18.2177,0.0304 -34.76717,5.72697 -46.89843,15.11524 -12.13126,9.38827 -19.88665,22.63727 -19.88672,37.36523 -5e-5,9.62037 3.37819,19.03522 9.625,27.1543 a 3.50035,3.50035 0 0 0 2.77344,1.36523 h 109.05859 a 3.50035,3.50035 0 0 0 2.77539,-1.36523 c 6.24682,-8.11907 9.62504,-17.53392 9.625,-27.1543 -1.1e-4,-14.75031 -7.7796,-28.01422 -19.93945,-37.40429 -12.15986,-9.39008 -28.74475,-15.07614 -46.99024,-15.07618 h -0.13672 a 3.50035,3.50035 0 0 0 -0.006,0 z m 0.006,7 h 0.006 0.13086 c 16.78481,4e-5 31.91628,5.27984 42.71289,13.61719 10.79661,8.33736 17.21671,19.56243 17.2168,31.86328 3e-5,7.48752 -2.52683,14.84273 -7.27734,21.51953 H 192.82617 c -4.75051,-6.6768 -7.27738,-14.03202 -7.27734,-21.51953 5e-5,-12.28195 6.40175,-23.49323 17.17187,-31.82812 10.76884,-8.3339 25.86245,-13.62312 42.61914,-13.65235 z m 6.90821,-79.728511 c -30.35836,-0.331388 -61.45907,0.829969 -94.67774,6.800782 l -0.10351,0.01953 -0.0996,0.02344 c 0,0 -5.71339,1.361585 -11.34961,4.000001 -2.81811,1.31921 -5.66388,2.93412 -7.92774,5.16992 -2.26385,2.2358 -4.05474,5.58991 -3.29687,9.23633 8.3574,40.21074 9.2474,92.27965 7.72265,138.60742 -1.52474,46.32777 -5.42407,86.85334 -6.49804,104.70313 -0.76653,12.73998 5.4377,20.47789 11.6875,24.19336 6.2498,3.71546 12.61914,4.0371 12.61914,4.0371 l -0.13477,-0.01 c 0,0 30.75566,2.97337 67.44727,4.08203 36.69161,1.10866 79.10729,0.53072 103.82031,-7.24219 l 0.0606,-0.0195 0.0605,-0.0215 c 4.8662,-1.72961 10.22762,-2.46229 14.64454,-5.45117 2.20845,-1.49445 4.13926,-3.83605 4.86718,-6.82618 0.72792,-2.99013 0.38647,-6.37212 -0.85546,-10.42187 l 0.12304,0.56641 c -4.59069,-34.6515 -11.60326,-145.51747 15.29297,-251.63086 1.12011,-4.41914 0.0336,-8.5568 -2.33984,-11.24805 -2.37344,-2.691248 -5.56961,-4.074766 -8.63477,-4.953126 -6.13032,-1.756721 -12.34766,-1.449219 -12.34766,-1.449219 l 0.13672,-0.0039 c -30.24389,-0.0061 -59.85843,-1.830721 -90.21679,-2.16211 z m -0.0352,7.023438 c 30.12774,0.332249 59.73055,2.132543 90.25195,2.138673 h 0.0684 l 0.0684,-0.002 c 0,0 5.47955,-0.15378 10.14649,1.18359 2.33347,0.66868 4.31243,1.7215 5.3125,2.85547 1.00006,1.13397 1.48584,2.21108 0.80468,4.89844 -27.25106,107.51332 -20.16917,218.62565 -15.44726,254.26757 l 0.0391,0.28907 0.0859,0.27929 c 1.01861,3.32154 1.05215,5.45569 0.74609,6.71289 -0.30605,1.25721 -0.81909,1.89305 -1.99023,2.68555 -2.34228,1.585 -7.48237,2.66828 -13.06445,4.65234 l 0.12109,-0.041 c -22.55249,7.09336 -65.07582,8.02269 -101.50781,6.92187 -36.432,-1.10081 -66.98438,-4.05273 -66.98438,-4.05273 l -0.0684,-0.006 -0.0664,-0.004 c 0,0 -4.83781,-0.32532 -9.44532,-3.06445 -4.60751,-2.73913 -8.91065,-7.26443 -8.27929,-17.75781 1.05081,-17.46495 4.97457,-58.30678 6.50781,-104.89258 1.53323,-46.5858 0.7156,-98.97596 -7.86524,-140.26172 -0.1785,-0.85885 0.0585,-1.54346 1.36329,-2.83203 1.30474,-1.28857 3.56835,-2.68322 5.97656,-3.81055 4.74593,-2.22165 9.78261,-3.47096 9.93164,-3.50781 32.58246,-5.846563 63.20131,-6.984216 93.29492,-6.652343 z" />
  </symbol>

  <symbol viewBox="0 0 480 480" id="ice-cream">
    <title>ice cream</title>
    <path
      d="m 169.3418,339.57031 a 3.418025,3.418025 0 0 0 -3.41797,3.41797 3.418025,3.418025 0 0 0 3.41797,3.41797 h 136.52734 a 3.418025,3.418025 0 0 0 3.41797,-3.41797 3.418025,3.418025 0 0 0 -3.41797,-3.41797 z m 9.07031,36.44141 a 3.4366701,3.4366701 0 0 0 -3.4375,3.43555 3.4366701,3.4366701 0 0 0 3.4375,3.4375 h 117.82422 a 3.4366701,3.4366701 0 0 0 3.43555,-3.4375 3.4366701,3.4366701 0 0 0 -3.43555,-3.43555 z M 214.47656,58.775391 c -6.63568,-0.421629 -13.11079,0.534223 -17.92578,2.769531 -3.20999,1.490205 -6.19236,3.859555 -6.60547,7.630859 -0.41311,3.771305 2.02763,7.085273 5.91016,9.908203 5.14241,3.738973 6.88272,7.141126 7.24609,10.289063 0.36338,3.147937 -0.76625,6.451545 -2.7832,9.626953 -2.01695,3.17541 -4.8646,6.09621 -7.31445,8.2207 -1.22493,1.06225 -2.34884,1.93108 -3.20313,2.54492 -0.85429,0.61385 -1.73037,1.08935 -1.3457,0.90626 l 1.51367,6.66015 98.10352,-0.28515 -0.56446,-3.98047 C 285.29776,97.478729 272.66643,84.982471 258.90039,75.888672 245.16756,66.816813 230.23504,61.074786 221.01172,59.646484 c -2.1603,-0.439148 -4.35649,-0.732662 -6.53516,-0.871093 z m -0.42383,7.046875 c 1.90779,0.09391 3.82076,0.317708 5.64844,0.693359 l 0.0879,0.01758 0.0879,0.01367 c 7.39686,1.132087 22.25496,6.655884 35.16407,15.183594 11.50694,7.601451 21.35633,17.544279 24.60742,28.341801 l -79.78516,0.23046 c 2.20256,-2.12972 4.46678,-4.56304 6.36328,-7.54882 2.55528,-4.022935 4.44116,-8.889837 3.83008,-14.183598 -0.61108,-5.29376 -3.83554,-10.603327 -10.08398,-15.146484 -2.92426,-2.126187 -3.08584,-3.344643 -3.07032,-3.486328 0.0155,-0.141685 0.49282,-1.065816 2.59766,-2.042969 3.15727,-1.465728 8.82937,-2.353999 14.55273,-2.072265 z m -32.6914,44.515624 c -15.34095,0 -27.80078,12.45788 -27.80078,27.79883 0,15.34094 12.45983,27.80078 27.80078,27.80078 h 113.16015 c 15.34095,0 27.80079,-12.45984 27.80079,-27.80078 0,-15.34095 -12.45984,-27.79883 -27.80079,-27.79883 z m 0,6.99805 h 113.16015 c 11.58458,0 20.80274,9.2162 20.80274,20.80078 0,11.58458 -9.21816,20.80273 -20.80274,20.80273 H 181.36133 c -11.58458,0 -20.80078,-9.21815 -20.80078,-20.80273 0,-11.58458 9.2162,-20.80078 20.80078,-20.80078 z m -22.24414,41.15039 c -15.58357,0 -28.25391,12.67034 -28.25391,28.2539 0,15.58357 12.67034,28.25196 28.25391,28.25196 h 157.65039 c 15.58356,0 28.25195,-12.66839 28.25195,-28.25196 0,-15.58356 -12.66839,-28.2539 -28.25195,-28.2539 z m 0,7.90429 h 157.65039 c 11.34196,0 20.34961,9.00766 20.34961,20.34961 0,11.34196 -9.00765,20.34961 -20.34961,20.34961 H 159.11719 c -11.34196,0 -20.34961,-9.00765 -20.34961,-20.34961 0,-11.34195 9.00765,-20.3496 20.34961,-20.34961 z m -19.22266,40.34571 c -15.77277,0 -28.60547,12.83269 -28.60547,28.60547 0,15.77277 12.8327,28.60547 28.60547,28.60547 h 196.09375 c 15.77277,0 28.60547,-12.8327 28.60547,-28.60547 0,-15.77278 -12.8327,-28.60547 -28.60547,-28.60547 z m 0,8.60742 h 196.09375 c 11.15275,0 19.99805,8.8453 19.99805,19.99805 0,11.15275 -8.8453,19.99609 -19.99805,19.99609 H 139.89453 c -11.15275,0 -19.99609,-8.84334 -19.99609,-19.99609 0,-11.15275 8.84334,-19.99805 19.99609,-19.99805 z m 164.16211,42.1875 a 3.912195,3.912195 0 0 0 -3.91211,3.91211 v 26.6543 a 3.912195,3.912195 0 0 0 3.91211,3.91211 3.912195,3.912195 0 0 0 3.91211,-3.91211 v -26.6543 a 3.912195,3.912195 0 0 0 -3.91211,-3.91211 z m -34.57812,-1.44141 a 3.912195,3.912195 0 0 0 -3.91211,3.91211 v 26.6543 a 3.912195,3.912195 0 0 0 3.91211,3.91211 3.912195,3.912195 0 0 0 3.9121,-3.91211 v -26.6543 a 3.912195,3.912195 0 0 0 -3.9121,-3.91211 z m -32.0586,1.44141 a 3.912195,3.912195 0 0 0 -3.91211,3.91211 v 26.6543 a 3.912195,3.912195 0 0 0 3.91211,3.91211 3.912195,3.912195 0 0 0 3.91211,-3.91211 v -26.6543 a 3.912195,3.912195 0 0 0 -3.91211,-3.91211 z m -33.49804,0 a 3.912195,3.912195 0 0 0 -3.91211,3.91211 v 26.6543 a 3.912195,3.912195 0 0 0 3.91211,3.91211 3.912195,3.912195 0 0 0 3.91406,-3.91211 v -26.6543 a 3.912195,3.912195 0 0 0 -3.91406,-3.91211 z m -32.41602,-1.08008 a 3.912195,3.912195 0 0 0 -3.91211,3.91211 v 26.6543 a 3.912195,3.912195 0 0 0 3.91211,3.91211 3.912195,3.912195 0 0 0 3.91211,-3.91211 v -26.6543 a 3.912195,3.912195 0 0 0 -3.91211,-3.91211 z m -34.64648,-0.56445 a 3.7564856,3.7564856 0 0 0 -3.75586,3.75586 v 28.85937 a 3.7564856,3.7564856 0 0 0 3.75586,3.75586 h 202.16601 a 3.7564856,3.7564856 0 0 0 3.75586,-3.75586 v -28.85937 a 3.7564856,3.7564856 0 0 0 -3.75586,-3.75586 z m 3.75585,7.51172 h 194.6543 v 21.34765 h -194.6543 z m 9.27869,25.77983 173.2146,0.0439 M 192.23047,443.26758 a 3.912195,3.912195 0 0 0 -3.91211,3.91211 3.912195,3.912195 0 0 0 3.91211,3.91211 h 88.05273 a 3.912195,3.912195 0 0 0 3.91211,-3.91211 3.912195,3.912195 0 0 0 -3.91211,-3.91211 z M 323.14648,285.31055 a 3.912195,3.912195 0 0 0 -3.81445,2.88867 l -42.82422,157.95703 a 3.912195,3.912195 0 0 0 2.75196,4.80078 3.912195,3.912195 0 0 0 4.80078,-2.75391 l 42.82422,-157.95703 a 3.912195,3.912195 0 0 0 -2.75196,-4.79882 3.912195,3.912195 0 0 0 -0.98633,-0.13672 z m -173.2871,-0.0449 a 3.912195,3.912195 0 0 0 -0.97852,0.13282 3.912195,3.912195 0 0 0 -2.76563,4.79297 l 42.33594,158.00195 a 3.912195,3.912195 0 0 0 4.79102,2.76562 3.912195,3.912195 0 0 0 2.76758,-4.79101 L 153.67188,288.16602 a 3.912195,3.912195 0 0 0 -3.8125,-2.9004 z m 140.1042,115.20767 z" />
  </symbol>

  <symbol viewBox="0 0 480 480" id="dumplings">
    <title>dumplings</title>
    <path
      d="M 215.37891 96.576172 C 204.595 96.941569 193.70652 100.01037 183.80664 106.64648 C 179.41371 103.41905 173.46006 101.84471 166.60352 101.47852 C 158.51851 101.04671 149.16903 102.26339 139.67383 105.04297 C 121.11119 110.4769 101.92363 121.94291 91.888672 139.82031 C 91.143998 139.90781 90.531579 139.975 89.287109 140.14453 C 85.535071 140.65566 79.939655 141.6625 73.84375 144.14062 C 61.852873 149.01519 47.945686 160.0353 42.837891 182.97656 C 26.875931 197.46977 17.276933 222.21526 19.771484 240.32031 C 21.0413 249.53643 26.292539 257.51995 35.648438 259.51953 C 45.002327 261.51869 57.309198 258.11164 73.804688 247.95117 C 88.108657 239.39572 99.902294 228.48988 131.47266 218.88477 C 128.24084 223.32398 125.62167 229.06364 123.92969 236.20898 C 111.95228 242.23318 101.06636 250.95932 93.992188 262.50195 C 93.904878 262.46813 93.867064 262.42077 93.777344 262.38867 C 91.393114 261.53559 87.913863 261.12092 83.650391 262.26562 C 75.159971 264.54522 63.65983 272.57498 48.050781 294.42578 A 3.5 3.5 0 0 0 47.933594 294.56836 C 47.923104 294.58205 47.914783 294.59763 47.904297 294.61133 C 47.889006 294.63279 47.876627 294.64453 47.861328 294.66602 A 3.5 3.5 0 0 0 47.736328 294.85547 C 34.777623 311.85581 24.79761 332.56962 23.976562 348.16406 C 23.563818 356.00346 25.846137 363.30665 32.234375 366.64844 C 38.555671 369.95521 47.329579 369.11285 59.230469 364.38281 A 3.5 3.5 0 0 0 59.564453 364.26953 A 3.5 3.5 0 0 0 59.585938 364.26172 A 3.5 3.5 0 0 0 59.701172 364.21289 C 97.853221 347.24416 158.34422 341.66795 215.375 343.13086 C 272.40578 344.59377 326.34293 353.13066 350.81641 363 A 3.5 3.5 0 0 0 351.04688 363.08203 C 357.41377 365.70746 362.83169 366.6292 367.47266 365.82617 C 372.18234 365.01125 375.93312 362.20935 378.10938 358.46875 C 382.46188 350.98754 381.6906 340.52295 378.36719 330.01172 C 375.13887 319.80127 369.20622 309.51428 361.30273 302.09375 C 363.35423 301.7001 365.98242 301.31562 369.8418 301.08984 C 380.95309 300.43983 399.65072 300.9723 427.80078 304.83398 C 435.23758 306.8326 441.39983 307.23278 446.49023 306.11719 C 451.66265 304.98362 455.70372 302.13432 458.13281 298.2832 C 462.991 290.58097 461.90674 280.00418 457.96094 269.73242 C 454.01513 259.46066 446.95845 249.25493 437.98828 242.2207 C 430.77693 236.56571 422.0853 233.03611 413.05664 233.71094 C 413.0664 233.23895 413.11227 232.76323 413.05664 232.30078 C 412.67696 229.14436 411.20809 226.09503 409.10156 222.9707 C 404.8885 216.72204 397.90262 210.15571 389.50391 204.41211 C 381.10519 198.66851 371.31033 193.79847 361.42578 191.39648 C 353.76214 189.53419 345.96919 189.22331 338.86328 191.33984 C 338.70818 190.36019 338.46276 189.39871 338.06836 188.49805 C 336.69018 185.35079 334.2045 182.67151 331.05078 180.21094 C 330.85163 180.05556 330.59353 179.91929 330.38867 179.76562 C 331.72563 178.01477 332.53857 175.91289 332.80273 173.75391 C 333.17663 170.69815 332.67109 167.48469 331.61133 164.1875 C 329.49181 157.59311 325.08166 150.57022 319.23242 144.38477 C 313.38319 138.19931 306.07984 132.86503 297.95898 130.125 C 291.63239 127.99036 284.7249 127.59725 277.99414 129.6875 C 277.86336 128.80782 277.87306 127.91169 277.58008 127.06641 C 276.48147 123.89679 274.42292 120.89292 271.69531 117.98828 C 266.2401 112.17901 258.00322 106.7434 248.21289 102.73828 C 238.42256 98.733159 226.98677 96.182856 215.37891 96.576172 z M 215.79883 103.57031 C 226.21576 103.24056 236.57362 105.53954 245.5625 109.2168 C 254.55138 112.89406 262.08028 117.97484 266.59375 122.78125 C 268.85049 125.18446 270.32712 127.51385 270.9668 129.35938 C 271.60647 131.2049 271.50706 132.37178 270.93945 133.41211 A 3.5 3.5 0 0 0 270.92578 133.4375 A 3.5 3.5 0 0 0 270.92578 133.43945 A 3.5 3.5 0 0 0 270.88672 133.51562 A 3.5 3.5 0 0 0 270.86328 133.56055 A 3.5 3.5 0 0 0 270.85352 133.57812 A 3.5 3.5 0 0 0 270.8457 133.59766 A 3.5 3.5 0 0 0 270.82617 133.64062 A 3.5 3.5 0 0 0 270.80664 133.68359 A 3.5 3.5 0 0 0 270.79688 133.70703 A 3.5 3.5 0 0 0 270.78906 133.72266 A 3.5 3.5 0 0 0 270.74219 133.83984 A 3.5 3.5 0 0 0 270.73242 133.86523 A 3.5 3.5 0 0 0 270.73047 133.87109 A 3.5 3.5 0 0 0 270.70117 133.95703 A 3.5 3.5 0 0 0 270.69922 133.96094 A 3.5 3.5 0 0 0 270.69727 133.96875 A 3.5 3.5 0 0 0 270.6875 133.99609 A 3.5 3.5 0 0 0 270.67969 134.01758 A 3.5 3.5 0 0 0 270.67188 134.04492 A 3.5 3.5 0 0 0 270.66602 134.06641 A 3.5 3.5 0 0 0 270.63672 134.16016 A 3.5 3.5 0 0 0 270.63477 134.16797 A 3.5 3.5 0 0 0 270.63477 134.16992 A 3.5 3.5 0 0 0 270.62891 134.19141 A 3.5 3.5 0 0 0 270.61719 134.23828 A 3.5 3.5 0 0 0 270.59961 134.3125 A 3.5 3.5 0 0 0 270.59766 134.31836 C 268.94236 141.59689 266.00244 146.46939 263.53125 149.5293 C 261.05933 152.5901 259.29688 153.66211 259.29688 153.66211 A 3.5 3.5 0 0 0 258.20898 158.49023 A 3.5 3.5 0 0 0 263.03711 159.57812 C 263.03711 159.57812 265.91599 157.71547 268.97656 153.92578 C 271.80241 150.42673 274.93317 145.03789 276.9043 137.65039 C 283.12695 134.6346 289.43372 134.63654 295.7207 136.75781 C 302.41223 139.01558 308.92889 143.67781 314.14648 149.19531 C 319.36408 154.71282 323.26597 161.0991 324.94727 166.33008 C 325.78792 168.94557 326.0558 171.24908 325.85352 172.90234 C 325.66932 174.40775 325.18287 175.27376 324.39648 175.9668 C 318.91262 172.95739 312.37873 170.40583 305.24023 168.57227 C 294.9362 165.92561 283.55037 164.74787 272.96875 166.10352 C 263.54524 167.31079 254.77988 170.7497 248.23828 177.04102 C 243.77456 173.98322 237.87953 172.34232 231.21289 171.74219 C 223.14823 171.0162 213.99208 171.81547 205.12305 174.14844 C 196.25401 176.48141 187.66487 180.34416 180.87109 185.97656 C 174.99332 190.84955 170.62431 197.23989 168.79883 204.83203 C 165.29824 204.17996 159.43453 203.42861 151.5293 205.3418 C 148.97912 205.95898 146.35712 206.944 143.77148 208.2793 C 100.38791 218.96134 85.501586 232.80501 70.183594 241.96094 L 70.162109 241.97461 L 70.142578 241.98633 C 54.40478 251.6818 43.491818 254.03749 37.111328 252.67383 C 30.730839 251.31016 27.731769 246.80261 26.707031 239.36523 C 24.715175 224.90867 33.469279 201.37781 47.117188 188.5918 C 61.497626 191.16396 68.167969 201.89453 68.167969 201.89453 A 3.5 3.5 0 0 0 72.982422 203.04492 A 3.5 3.5 0 0 0 74.132812 198.23047 C 74.132812 198.23047 66.32284 185.88959 50.289062 182.14453 C 55.25641 163.04718 66.426359 154.71223 76.480469 150.625 C 81.803138 148.46121 86.782103 147.5501 90.232422 147.08008 C 91.326345 146.93106 92.005332 146.85259 92.791016 146.75977 C 95.211876 150.62758 100.19641 159.93729 101.44922 172.66992 A 3.5 3.5 0 0 0 105.27539 175.81055 A 3.5 3.5 0 0 0 108.41602 171.98438 C 106.97338 157.32252 101.06394 146.71975 98.402344 142.57422 C 107.31797 127.31342 124.63906 116.73671 141.64062 111.75977 C 150.46563 109.17638 159.14547 108.09035 166.23047 108.46875 C 172.79696 108.81946 177.75168 110.55882 180.39648 112.80469 C 183.47911 125.69186 175.79297 142.60156 175.79297 142.60156 A 3.5 3.5 0 0 0 177.4043 147.28125 A 3.5 3.5 0 0 0 182.08398 145.66992 C 182.08398 145.66992 190.65454 128.76245 187.45312 112.5957 C 196.24705 106.63194 206.02937 103.87957 215.79883 103.57031 z M 281.12305 172.55273 C 288.5418 172.45489 296.31772 173.50921 303.49805 175.35352 C 313.07182 177.8126 321.60948 181.72086 326.74609 185.72852 C 329.3144 187.73234 330.97678 189.75497 331.65625 191.30664 C 332.32868 192.84222 332.3081 193.71569 331.55469 195.00195 C 326.11827 202.26102 322.07462 208.37223 319.46484 212.73828 C 318.1418 214.95169 317.18531 216.70742 316.55273 218.04297 C 316.23645 218.71074 316.00118 219.23977 315.81055 219.875 C 315.71523 220.19262 315.59533 220.48809 315.59375 221.22656 C 315.59296 221.5958 315.58494 222.12875 316 222.93359 C 316.41506 223.73844 317.62512 224.68304 318.66797 224.83203 A 3.5 3.5 0 0 0 322.62695 221.86133 A 3.5 3.5 0 0 0 322.6582 221.55664 C 322.71751 221.4075 322.7355 221.34379 322.87891 221.04102 C 323.34959 220.04726 324.22941 218.41325 325.47461 216.33008 C 327.87308 212.31752 331.71911 206.51398 336.83203 199.6543 C 343.23776 196.35925 351.23167 196.12206 359.77148 198.19727 C 368.56156 200.33329 377.73497 204.8451 385.55273 210.19141 C 393.3705 215.53771 399.84883 221.76785 403.29883 226.88477 C 405.02383 229.44322 405.93679 231.71822 406.10742 233.13672 C 406.27537 234.53297 406.12808 234.86148 405.36133 235.45703 C 392.77572 244.07605 378.63281 250.72266 378.63281 250.72266 A 3.5 3.5 0 0 0 376.94727 255.375 A 3.5 3.5 0 0 0 381.59961 257.06055 C 381.59961 257.06055 395.73601 250.43118 408.81641 241.55078 C 417.45901 238.92978 425.9969 241.71149 433.66992 247.72852 C 441.4283 253.81248 447.936 263.15756 451.42578 272.24219 C 454.91556 281.32682 455.13784 289.91158 452.21289 294.54883 C 450.75042 296.86745 448.6271 298.48268 444.99219 299.2793 C 441.35924 300.07548 436.17581 299.88551 429.31641 298.00586 C 429.31413 298.00523 429.31283 298.00453 429.31055 298.00391 A 3.5 3.5 0 0 0 429.30664 298.00391 A 3.5 3.5 0 0 0 429.23242 297.98438 A 3.5 3.5 0 0 0 429.1543 297.96484 A 3.5 3.5 0 0 0 429.00391 297.93555 A 3.5 3.5 0 0 0 428.86719 297.91406 A 3.5 3.5 0 0 0 428.85742 297.91211 C 428.85245 297.91143 428.84872 297.91084 428.84375 297.91016 A 3.5 3.5 0 0 0 428.6875 297.89258 C 400.25049 293.99484 381.20531 293.4128 369.43164 294.10156 C 363.53207 294.44669 359.50028 295.07822 356.75977 295.90625 C 355.90699 296.16391 355.18796 296.44909 354.48242 296.83398 C 349.30758 293.66768 343.50425 291.83114 337.38477 292.08008 C 337.40739 291.90635 337.51672 291.74829 337.53125 291.57422 C 337.7785 288.61124 337.05516 285.60941 335.76367 282.60938 C 333.1807 276.6093 328.22015 270.47488 321.84375 265.18945 C 315.46735 259.90403 307.6543 255.50385 299.22461 253.49219 C 292.66048 251.92572 285.67178 251.93043 278.94531 254.1543 C 278.81365 253.29501 278.82734 252.41982 278.54102 251.59375 C 277.4424 248.42414 275.38386 245.42026 272.65625 242.51562 C 267.20104 236.70635 258.96416 231.26879 249.17383 227.26367 C 230.28774 219.53757 205.32204 217.39364 184.76562 231.17383 C 180.3727 227.9464 174.41904 226.37206 167.5625 226.00586 C 159.47749 225.57405 150.12802 226.78878 140.63281 229.56836 C 137.81829 230.39227 134.99531 231.39922 132.18359 232.5 C 135.39551 223.10174 140.4081 217.92892 145.80664 214.97656 C 145.90223 214.95317 145.97443 214.92767 146.07031 214.9043 A 3.5 3.5 0 0 0 147.40039 214.25781 C 149.31775 213.36942 151.25694 212.60892 153.17578 212.14453 C 161.99906 210.00916 169.78054 212.01642 170.22461 212.13281 C 176.53046 215.36529 180.13615 218.06089 182.00391 219.80469 C 182.95927 220.69664 183.48372 221.34519 183.74219 221.70312 C 184.00065 222.06106 183.88477 221.875 183.88477 221.875 A 3.5 3.5 0 0 0 188.47266 223.73633 A 3.5 3.5 0 0 0 190.33398 219.15039 C 190.33398 219.15039 189.96597 218.36242 189.41797 217.60352 C 188.86997 216.84461 188.03466 215.85954 186.7793 214.6875 C 184.61786 212.66952 180.81925 210.01641 175.41992 207.06445 C 176.72652 200.84186 180.18081 195.64073 185.33789 191.36523 C 191.09489 186.59238 198.80882 183.04889 206.90234 180.91992 C 214.99587 178.79095 223.46201 178.07177 230.58398 178.71289 C 236.92992 179.28416 242.00093 181.06744 244.92773 183.27539 C 244.81573 193.48001 243.38616 199.76359 242.09961 203.10938 C 241.45403 204.78827 240.87623 205.67519 240.57812 206.08008 A 3.5 3.5 0 0 0 239.39258 207.42383 C 239.26788 207.67322 239.08157 207.96019 239.01172 208.75391 C 238.9768 209.15076 238.96922 209.72922 239.28711 210.4668 C 239.605 211.20437 240.38636 211.99812 241.16016 212.32227 C 242.70775 212.97056 243.45572 212.50133 243.87109 212.33398 C 244.28647 212.16664 244.48803 212.02439 244.66406 211.90039 C 245.36819 211.40441 245.6367 211.04119 246.04297 210.51367 C 246.85551 209.45864 247.75118 207.91384 248.63281 205.62109 C 250.31242 201.25313 251.83697 194.10569 251.93164 183.10938 C 257.13156 177.44668 264.84205 174.20211 273.85938 173.04688 C 276.21729 172.7448 278.65013 172.58535 281.12305 172.55273 z M 216.75977 228.09766 C 227.1767 227.7679 237.53455 230.06688 246.52344 233.74414 C 255.51232 237.4214 263.03926 242.50023 267.55273 247.30664 C 269.80947 249.70985 271.28611 252.03924 271.92578 253.88477 C 272.56546 255.73029 272.46605 256.89913 271.89844 257.93945 A 3.5 3.5 0 0 0 271.89062 257.95703 A 3.5 3.5 0 0 0 271.88086 257.97266 A 3.5 3.5 0 0 0 271.87109 257.99023 A 3.5 3.5 0 0 0 271.84961 258.03125 A 3.5 3.5 0 0 0 271.81445 258.10547 A 3.5 3.5 0 0 0 271.76562 258.20898 A 3.5 3.5 0 0 0 271.76172 258.2207 A 3.5 3.5 0 0 0 271.75781 258.23242 A 3.5 3.5 0 0 0 271.75 258.25 A 3.5 3.5 0 0 0 271.72656 258.30664 A 3.5 3.5 0 0 0 271.70898 258.35156 A 3.5 3.5 0 0 0 271.69141 258.39258 A 3.5 3.5 0 0 0 271.69141 258.39453 A 3.5 3.5 0 0 0 271.68359 258.41797 A 3.5 3.5 0 0 0 271.68164 258.41992 A 3.5 3.5 0 0 0 271.67969 258.42969 A 3.5 3.5 0 0 0 271.64062 258.54102 A 3.5 3.5 0 0 0 271.63086 258.56836 A 3.5 3.5 0 0 0 271.63086 258.57031 A 3.5 3.5 0 0 0 271.61133 258.63867 A 3.5 3.5 0 0 0 271.60938 258.64453 A 3.5 3.5 0 0 0 271.59961 258.68359 A 3.5 3.5 0 0 0 271.5957 258.69531 A 3.5 3.5 0 0 0 271.56641 258.80859 A 3.5 3.5 0 0 0 271.56445 258.81836 A 3.5 3.5 0 0 0 271.55859 258.83984 C 268.47743 272.39692 254.01758 276.91211 254.01758 276.91211 A 3.5 3.5 0 0 0 251.68945 281.2793 A 3.5 3.5 0 0 0 256.05664 283.60938 C 256.05664 283.60938 272.87999 278.44158 277.75 262.2168 C 284.1119 259.0641 290.86209 258.69294 297.59961 260.30078 C 304.71797 261.9995 311.70564 265.87714 317.37695 270.57812 C 323.04827 275.27911 327.38243 280.83907 329.33594 285.37695 C 330.31269 287.64589 330.66905 289.62164 330.55469 290.99219 C 330.44245 292.33728 330.06006 293.07666 329.12109 293.81445 C 317.51155 301.70855 298.39844 302.39062 298.39844 302.39062 A 3.5 3.5 0 0 0 294.9668 305.95703 A 3.5 3.5 0 0 0 298.53125 309.39062 C 298.53125 309.39062 318.28832 309.27555 332.52148 299.91211 C 341.14251 297.28188 348.96612 300.27816 355.94922 306.58594 C 362.99996 312.95482 368.71518 322.70796 371.69141 332.12109 C 374.66763 341.53423 374.63727 350.51497 372.05859 354.94727 C 370.76926 357.16341 369.1345 358.43565 366.2793 358.92969 C 363.4241 359.42373 359.17844 358.91158 353.47656 356.52539 A 3.5 3.5 0 0 0 353.43359 356.50781 C 353.43135 356.50691 353.42803 356.50676 353.42578 356.50586 A 3.5 3.5 0 0 0 353.11719 356.39844 C 326.59162 345.79672 272.95101 337.60705 215.55469 336.13477 C 158.09936 334.66097 97.297249 339.96 57.179688 357.69336 A 3.5 3.5 0 0 0 56.972656 357.76758 C 45.765105 362.2749 38.856442 362.21236 35.478516 360.44531 C 32.10059 358.67827 30.628362 354.96121 30.966797 348.5332 C 31.643666 335.67719 41.09245 315.01224 53.492188 298.82422 A 3.5 3.5 0 0 0 53.564453 298.72656 C 68.79119 277.34306 79.483614 270.63129 85.464844 269.02539 C 88.455459 268.22244 90.297247 268.57682 91.419922 268.97852 C 91.978162 269.17825 91.873095 269.18844 92.050781 269.29883 C 95.260417 282.31593 87.367188 298.75586 87.367188 298.75586 A 3.5 3.5 0 0 0 88.876953 303.4707 A 3.5 3.5 0 0 0 93.591797 301.95898 C 93.591797 301.95898 102.9251 284.5223 98.882812 267.86914 C 107.65284 252.18283 125.30727 241.34918 142.59961 236.28711 C 151.42461 233.70372 160.10446 232.6177 167.18945 232.99609 C 173.75661 233.34683 178.71284 235.08583 181.35742 237.33203 C 184.43977 250.21916 176.75391 267.12695 176.75391 267.12695 A 3.5 3.5 0 0 0 178.36523 271.80859 A 3.5 3.5 0 0 0 183.04492 270.19727 C 183.04492 270.19727 191.61591 253.28808 188.41406 237.12109 C 197.20784 231.1576 206.99052 228.40691 216.75977 228.09766 z " />
  </symbol>

  <symbol viewBox="0 0 480 480" id="cookies">
    <title>cookies</title>
    <path
      d="m 190.62305,180.30859 c -1.05721,0.0986 -2.16572,0.30781 -3.31055,0.61914 -2.72105,0.74 -5.11641,0.69905 -7.54297,2.24805 -1.21328,0.7745 -2.24771,2.10626 -2.73242,3.66602 -0.48472,1.55976 -0.57208,3.31656 -0.42773,5.54297 0.15402,2.3757 0.25417,4.3607 0.4746,6.07226 0.22044,1.71156 0.48485,3.21963 1.51954,4.61133 1.03468,1.3917 3.02728,2.10661 4.73828,1.98047 1.711,-0.12614 3.43037,-0.72169 5.63672,-1.64844 3.82886,-1.60826 8.22391,-4.85278 10.22851,-10.29492 1.43247,-3.88891 1.50036,-7.78299 -0.9043,-10.41406 -1.80348,-1.97331 -4.50807,-2.67866 -7.67968,-2.38282 z m 2.10742,5.09766 c 0.93953,0.1128 1.49948,0.42729 1.78906,0.74414 0.57917,0.6337 0.95176,2.26373 -0.12305,5.18164 -1.38256,3.75342 -4.56074,6.14545 -7.40429,7.33985 -1.99182,0.83663 -3.39493,1.21704 -4.02735,1.26367 -0.63241,0.0466 -0.2036,0.13137 -0.24609,0.0742 -0.0425,-0.0572 -0.36982,-0.81712 -0.54883,-2.20704 -0.17901,-1.38991 -0.28715,-3.34061 -0.44336,-5.75 -0.12196,-1.88111 0.0171,-3.07839 0.20703,-3.68945 0.1899,-0.61106 0.27911,-0.66633 0.59375,-0.86719 0.62929,-0.4017 2.90845,-0.74475 6.13086,-1.62109 1.81346,-0.49317 3.13273,-0.58155 4.07227,-0.46875 z m 39.12305,-56.58594 c -2.78068,0.2635 -5.42835,1.26497 -7.62305,3.04688 -4.38941,3.56381 -6.24,10.17037 -3.94531,17.8164 2.19032,7.29833 3.8665,11.84107 7.03906,14.90235 1.58628,1.53063 3.61488,2.50492 5.66797,2.86914 2.05308,0.36422 4.10312,0.2371 6.3457,-0.0469 4.81583,-0.60983 9.98501,-1.28782 14.12305,-4.17578 2.06902,-1.44398 3.83577,-3.62135 4.58203,-6.34961 0.74626,-2.72825 0.52019,-5.80642 -0.54297,-9.24023 -2.68442,-8.67019 -5.25217,-12.81596 -8.79297,-14.87891 -1.7704,-1.03147 -3.4882,-1.35739 -4.84765,-1.61523 -1.35946,-0.25785 -2.42627,-0.45177 -3.58204,-0.94727 -2.72843,-1.16974 -5.64315,-1.64435 -8.42382,-1.38086 z m 0.71875,6.98242 c 1.54032,-0.14172 3.25167,0.1051 4.94726,0.83204 1.98895,0.8527 3.7528,1.14935 5.03516,1.39257 1.28236,0.24323 2.01583,0.42911 2.62695,0.78516 1.22224,0.7121 3.13972,2.84814 5.63281,10.90039 0.79607,2.57117 0.76988,4.25191 0.47657,5.32422 -0.29331,1.07231 -0.80561,1.73464 -1.8379,2.45508 -2.06456,1.44087 -6.38285,2.38872 -10.99414,2.97265 -1.92213,0.24341 -3.32598,0.26054 -4.24414,0.0977 -0.91815,-0.16288 -1.37852,-0.38572 -2.02929,-1.01367 -1.30156,-1.2559 -3.09247,-4.87014 -5.19532,-11.87695 -1.73946,-5.79602 -0.38454,-8.71732 1.65235,-10.3711 1.01844,-0.82689 2.38936,-1.35632 3.92969,-1.49805 z M 146.7207,129.8457 c -1.11394,-0.01 -2.47432,0.0673 -3.78906,0.85547 -1.31473,0.78814 -2.23294,2.13952 -2.84961,3.77344 -0.61667,1.63392 -1.04301,3.66981 -1.42187,6.46875 -0.54745,4.04435 -0.19224,7.66001 2.0957,10.17773 1.14397,1.25887 2.79474,2.06884 4.55469,2.26368 1.75994,0.19483 3.61595,-0.13818 5.60351,-0.87891 2.0097,-0.74898 3.59224,-0.36748 5.87891,-1.7207 1.14333,-0.67662 2.09905,-1.8226 2.7832,-3.25391 0.68416,-1.43131 1.21334,-3.21015 1.76172,-5.68945 0.71246,-3.2211 0.45459,-6.51693 -1.66406,-8.86524 -2.11865,-2.3483 -5.49971,-3.22626 -9.75,-3.06836 -1.08332,0.0403 -2.08918,-0.0526 -3.20313,-0.0625 z m -0.0449,5.12696 c 0.78798,0.007 1.97591,0.11289 3.4375,0.0586 3.44113,-0.12784 5.08046,0.63441 5.75391,1.38086 0.67344,0.74645 0.97796,2.00241 0.46484,4.32227 -0.50518,2.28396 -0.98718,3.75824 -1.38281,4.58593 -0.39563,0.82769 -0.5868,0.94575 -0.76758,1.05274 -0.36156,0.21397 -2.13411,0.24017 -5.05859,1.33007 -1.46031,0.54424 -2.55392,0.66279 -3.24805,0.58594 -0.69413,-0.0768 -1.00236,-0.26105 -1.32422,-0.61523 -0.64371,-0.70836 -1.24926,-2.78751 -0.80859,-6.04297 0.35219,-2.60191 0.75839,-4.3433 1.13672,-5.3457 0.37832,-1.00241 0.61695,-1.14521 0.6875,-1.1875 0.0705,-0.0423 0.32139,-0.13198 1.10937,-0.125 z m -36.33008,44.70117 c -3.65015,0.0448 -7.1665,2.01611 -9.87304,4.72265 -3.608731,3.60873 -6.273611,8.78607 -7.001957,14.60743 -0.173885,1.38978 0.104376,2.24876 0.408203,3.22656 0.303827,0.97779 0.726479,1.98577 1.25,3.05273 1.047042,2.13392 2.499017,4.48011 4.248047,6.67188 1.749027,2.19177 3.762387,4.23698 6.183597,5.6582 2.4212,1.42122 5.67209,2.21723 8.67187,0.85742 5.11156,-2.31707 9.26487,-4.75051 12.38477,-7.76172 3.1199,-3.0112 5.1557,-6.77028 5.5039,-10.98242 0.45578,-5.5134 -2.23999,-10.07342 -5.84375,-13.03515 -3.60375,-2.96174 -8.05584,-4.80275 -12.26172,-6.37696 -1.22132,-0.45713 -2.4532,-0.65557 -3.66992,-0.64062 z m -0.0293,7.01172 c 0.45685,-0.0178 0.87354,0.0468 1.24414,0.18554 3.98992,1.49339 7.82134,3.21488 10.27148,5.22852 2.45014,2.01364 3.57769,3.84286 3.3125,7.05078 -0.20248,2.44936 -1.17839,4.38821 -3.38867,6.52149 -2.21028,2.13327 -5.70465,4.28993 -10.41211,6.42382 -0.46475,0.21068 -0.97661,0.22221 -2.24023,-0.51953 -1.26363,-0.74173 -2.85637,-2.23697 -4.25391,-3.98828 -1.39754,-1.75131 -2.63283,-3.75075 -3.43555,-5.38672 -0.40135,-0.81798 -0.69499,-1.55122 -0.84961,-2.04883 -0.15462,-0.4976 -0.0774,-0.84739 -0.14843,-0.27929 0.52313,-4.1812 2.59678,-8.11827 5.00586,-10.52735 1.8068,-1.80681 3.52398,-2.60676 4.89453,-2.66015 z m 39.36132,71.93945 c -2.88033,-3.3e-4 -5.81219,0.97864 -8.09961,3.08984 -2.28792,2.11168 -3.88212,5.21191 -4.72851,9.19922 -0.84691,3.98978 1.17408,7.61165 3.76953,10.12305 2.59545,2.5114 6.13691,4.41029 9.91602,3.24219 2.5523,-0.7889 5.40099,-2.19428 7.79492,-4.26172 2.39392,-2.06745 4.49704,-5.04668 4.23242,-8.70899 -0.28744,-3.978 -1.80828,-7.27138 -4.19922,-9.46484 -2.39044,-2.19301 -5.52581,-3.21771 -8.68359,-3.21875 z m 0,5.80664 c 1.93765,3.8e-4 3.5509,0.58417 4.75782,1.69141 1.20692,1.10723 2.13201,2.80837 2.33398,5.60351 0.0844,1.168 -0.63407,2.51079 -2.23633,3.89453 -1.60226,1.38375 -3.92399,2.55644 -5.71289,3.10938 -0.58225,0.17997 -2.582,-0.33636 -4.16406,-1.86719 -1.58206,-1.53083 -2.37452,-3.57784 -2.12695,-4.74414 0.66695,-3.14199 1.79589,-5.03619 2.98828,-6.13672 1.19239,-1.10053 2.49879,-1.55122 4.16015,-1.55078 z m 159.42383,-12.75391 c -1.09385,0.0644 -2.24248,0.24958 -3.42578,0.54883 -5.84906,1.47922 -9.59284,5.70359 -11.33984,11.22852 -0.46058,1.4566 -0.84419,2.7742 -0.90039,4.22851 -0.0562,1.45432 0.39802,3.16061 1.48437,4.39063 2.17271,2.46004 5.40631,3.20476 10.89649,4.28906 2.90216,0.57317 5.05781,0.72004 6.99414,0.21484 1.93632,-0.50519 3.51571,-2.03772 4.14648,-3.56835 1.26154,-3.06128 0.72107,-5.68903 1.40625,-7.9336 1.19617,-3.91851 1.0823,-7.87836 -1.35547,-10.63867 -1.82832,-2.07023 -4.62469,-2.95289 -7.90625,-2.75977 z m 1.9668,5.47657 c 0.93326,0.15016 1.49777,0.51279 1.8418,0.90234 0.68806,0.7791 1.09321,2.57839 0.22461,5.42383 -1.09559,3.58902 -0.93779,6.73035 -1.23243,7.44531 -0.14731,0.35748 0.0903,0.21497 -0.4707,0.36133 -0.56097,0.14636 -2.05875,0.20622 -4.55664,-0.28711 -5.22421,-1.03177 -7.56911,-2.21849 -7.85742,-2.54492 -0.14416,-0.16322 -0.13838,-0.0628 -0.11914,-0.56055 0.0192,-0.49778 0.23647,-1.47582 0.65234,-2.79101 1.38428,-4.37783 3.24488,-6.51091 7.46484,-7.57813 1.81692,-0.4595 3.11948,-0.52126 4.05274,-0.37109 z m 5.86914,-66.47852 c -4.20553,0.12906 -8.14626,1.65595 -11.07617,4.32422 -3.90655,3.55769 -5.67732,9.58588 -3.22656,15.47656 1.58022,3.79825 3.28374,7.75507 6.00195,11.03321 2.71821,3.27813 6.815,5.79687 11.90234,5.79687 8.65452,0 16.56898,-7.74123 18.13086,-17.62695 0.81474,-5.15681 -1.97029,-9.65435 -5.46289,-12.72852 -3.49259,-3.07417 -7.8538,-5.12562 -12.00391,-5.92773 -1.43299,-0.27697 -2.86378,-0.39068 -4.26562,-0.34766 z m 0.23633,7.01367 c 0.88157,-0.0338 1.78964,0.0309 2.70117,0.20703 2.75317,0.53213 6.30216,2.19184 8.70703,4.3086 2.40487,2.11676 3.5045,4.28791 3.17383,6.38086 -1.03219,6.53312 -7.40027,11.7207 -11.2168,11.7207 -3.01679,0 -4.69924,-1.07744 -6.51367,-3.26562 -1.81443,-2.18819 -3.39497,-5.56779 -4.92773,-9.25196 -1.46376,-3.5183 -0.58793,-5.73315 1.47656,-7.61328 1.54836,-1.4101 3.95488,-2.38479 6.59961,-2.48633 z m -46.4043,128.4043 c -1.27972,-0.0834 -2.60121,-0.0288 -3.94336,0.16992 -1.66587,0.2467 -3.10632,0.24614 -4.69336,0.36133 -1.58704,0.11519 -3.48887,0.38185 -5.27734,1.53906 -3.57693,2.31443 -5.2168,6.5699 -7.29688,15.11328 -1.23514,5.07305 0.25122,10.69915 3.58203,14.96875 1.66541,2.1348 3.92208,3.94757 6.76368,4.71094 2.8416,0.76337 6.13692,0.3069 9.17578,-1.43359 3.88662,-2.22604 7.49434,-4.08748 10.49219,-6.61914 2.99785,-2.53167 5.34498,-6.0966 5.64062,-10.56641 0.36706,-5.54959 -1.23277,-10.56425 -4.60742,-13.95898 -2.53099,-2.54605 -5.99678,-4.03488 -9.83594,-4.28516 z m -0.43359,6.95703 c 2.28745,0.11438 4.00296,0.9542 5.30468,2.26367 1.73564,1.74597 2.85082,4.58535 2.5879,8.56055 -0.16788,2.53807 -1.0673,3.90434 -3.17188,5.68164 -2.10457,1.7773 -5.45483,3.60034 -9.45703,5.89258 -1.73641,0.99452 -2.85019,1.0244 -3.87891,0.74805 -1.02871,-0.27636 -2.10366,-1.02873 -3.0625,-2.25782 -1.91767,-2.45816 -2.84614,-6.7579 -2.29882,-9.00586 1.97393,-8.10744 3.64078,-10.46679 4.29882,-10.89257 0.32902,-0.21289 0.77625,-0.34619 1.98047,-0.4336 1.20423,-0.0874 2.9947,-0.0914 5.21289,-0.41992 0.89557,-0.13262 1.72189,-0.17485 2.48438,-0.13672 z m -28.36133,-87.54297 c -8.11728,0.80178 -14.25303,7.09043 -15.17188,15.12305 -0.53558,4.68211 0.28716,9.21529 3.19727,12.45898 2.91011,3.2437 7.74157,4.50081 13.0293,3.4043 2.92832,-0.60724 6.84109,-1.00619 10.33203,-3.23047 1.74547,-1.11214 3.37589,-2.8477 4.20312,-5.1289 0.82724,-2.28121 0.85928,-4.91693 0.20899,-7.86133 -0.98037,-4.43895 -2.83135,-8.19362 -5.53125,-10.89063 -2.6999,-2.69701 -6.41397,-4.25564 -10.26758,-3.875 z m 0.6875,6.96485 c 1.69822,-0.16774 3.13507,0.36714 4.63281,1.86328 1.49774,1.49614 2.89065,4.0338 3.64453,7.44726 0.45237,2.04824 0.30311,3.25286 0.0449,3.96485 -0.25819,0.71198 -0.61701,1.12214 -1.38477,1.61133 -1.53553,0.97837 -4.74442,1.60581 -7.99219,2.27929 -3.64483,0.75583 -5.29106,0.008 -6.39648,-1.22461 -1.10542,-1.23213 -1.8356,-3.64472 -1.45313,-6.98828 0.59235,-5.17838 3.78882,-8.44784 8.9043,-8.95312 z M 191.19141,91.076172 C 121.32485,91.090485 64.619069,147.80922 64.619141,217.67578 c -5.1e-5,69.87669 56.720969,126.59771 126.597659,126.59766 1.40933,-1.3e-4 2.81997,-0.0251 4.22851,-0.0723 a 3.50035,3.50035 0 0 0 3.1211,-4.82422 c -5.72296,-13.97104 -8.87891,-29.25999 -8.87891,-45.30468 0,-64.75819 51.37389,-115.64942 115.70312,-119.42383 a 3.50035,3.50035 0 0 0 3.03516,-4.81641 C 289.09874,122.48386 243.165,91.458653 192.08203,91.109375 l 0.67578,0.337891 a 3.50035,3.50035 0 0 0 -1.35937,-0.363282 3.50035,3.50035 0 0 0 -0.18164,-0.0078 3.50035,3.50035 0 0 0 -0.0254,0 z m 0,7 h 0.0254 c 47.02757,1.16e-4 89.43732,27.564948 108.78515,70.109378 -65.44595,6.27619 -117.31445,59.11822 -117.31445,125.88672 0,15.17007 2.79807,29.67042 7.69727,43.16015 C 124.67937,336.78033 71.619093,283.48847 71.619141,217.67578 71.619073,151.5918 125.10742,98.08971 191.19141,98.076172 Z M 309.1875,167.47656 c -69.73067,1.94827 -126.5,56.71818 -126.5,126.59571 0,69.87661 56.72104,126.59765 126.59766,126.59765 a 3.50035,3.50035 0 0 0 2.75586,-5.6582 c 0,0 -2.002,-2.41026 -3.53907,-8.87891 -1.53706,-6.46864 -2.35932,-16.68451 0.9668,-31.36523 2.7399,-12.09327 11.08699,-21.36784 10.62695,-47.68164 -0.29925,-17.11738 8.39506,-26.77842 18.50782,-34.625 5.05637,-3.92329 10.43535,-7.25289 15.08007,-10.61133 4.64473,-3.35844 8.74371,-6.71018 10.64649,-11.48438 5.34695,-13.41591 19.7106,-20.00349 33.37109,-23.10937 13.66049,-3.10588 25.94336,-2.60742 25.94336,-2.60742 a 3.50035,3.50035 0 0 0 3.38086,-4.83789 C 407.9235,193.74009 360.99493,166.02905 309.1875,167.47656 Z m 0.19531,6.9961 c 47.35816,-1.3232 89.86173,22.89983 108.97657,63.27148 -4.96378,0.0795 -12.39935,0.45716 -22.20899,2.6875 -14.70247,3.34278 -31.69533,10.71431 -38.32227,27.3418 -0.94888,2.38081 -3.91531,5.27286 -8.24609,8.40429 -4.33077,3.13144 -9.83794,6.53754 -15.26953,10.75196 -10.86318,8.42884 -21.55798,20.65197 -21.21484,40.27929 0.434,24.82524 -7.25384,31.88219 -10.45508,46.01172 -3.53677,15.61047 -2.74436,26.98277 -0.95117,34.5293 0.52653,2.2159 1.15353,4.03028 1.78711,5.62695 -63.37331,-3.04516 -113.79102,-55.17172 -113.79102,-119.30468 0,-66.09263 53.50887,-117.75038 119.69531,-119.59961 z" />
  </symbol>
</svg>