<svg
   xmlns="http://www.w3.org/2000/svg"
   viewBox="0 0 200 100" >
   <defs>
      <style>
         path {
            stroke: white;
         }
      </style>
   </defs>
   <path
      style="fill:none;"
      d="m 125.69498,24.573013 c -1.7789,1.334563 -3.99122,2.232809 -5.3367,4.00369 -3.64897,4.802682 -5.64944,13.032806 -0.88945,17.794183 2.94183,2.942688 9.37075,6.212198 13.78647,4.003691 0,0 4.41142,-1.823487 5.78142,-3.113981 M 84.335574,25.462722 c 0.122586,9.535147 -0.974876,19.502392 7.115598,26.246421 1.858331,1.549061 3.427256,-0.504058 4.447249,-1.77942 4.159939,-5.201439 7.039619,-10.133403 7.560319,-16.904472 0.0376,-0.488844 0.57041,-5.338258 -0.88945,-5.338258 -1.36497,0 -1.76168,4.172992 -1.7789,4.448547 -0.940227,15.048065 2.86121,30.492536 0,45.375169 -0.54569,2.838415 -1.72287,8.464691 -5.78142,7.562527 -6.288147,-1.397773 -6.166701,-8.526564 -2.668348,-12.900782 1.77471,-2.219037 7.676368,-5.153795 10.228668,-7.117675 2.57565,-1.98185 4.19229,-4.765878 7.11559,-6.227964 M 46.533969,28.131849 c 0.419798,2.993972 0.490669,5.905347 0.88945,8.897092 0.488749,3.666679 1.103585,7.430865 1.334174,11.121366 0.192449,3.080108 0,6.252936 0,9.341945 0,4.291999 0.33148,0.784694 -0.444723,3.113983 -0.04688,0.140676 -0.03595,0.58871 0,0.444853 0.869981,-3.480943 0.960875,-7.129151 1.334174,-10.676511 0.666319,-6.331885 1.985965,-13.077312 4.002523,-19.128746 0.246267,-0.739021 3.132708,-7.117672 3.557798,-7.117672 0.963953,0 5.785762,9.301686 6.226147,10.231655 3.6406,7.018402 8.115949,18.377991 14.231191,20.46331 0.373579,0.124562 1.863151,-0.70942 2.223625,-0.88971" />
</svg>
