<svg
   xmlns="http://www.w3.org/2000/svg"
   viewBox="0 0 600 400">
   <defs>
      <style>
         @keyframes draw {
            0% {
               stroke-dashoffset: 3900;
            }
            100% {
               stroke-dashoffset: 0;
            }
         }

         path {
            animation: draw 5s linear forwards;
            stroke: black;
            fill-opacity: 0;
            stroke-dasharray: 3900;
            stroke-dashoffset: 3900;
         }
      </style>
   </defs>
    <path
       style="fill:none;"
       d="m 597.56672,224.26879 0.091,-196.006938 C 597.66372,15.336088 587.25178,4.9301453 574.32602,4.9301453 H 25.998158 c -12.925766,0 -23.3317075,10.4059417 -23.3317075,23.3317067 V 292.98193 l 4.2810563,-0.13382 c 1.2246731,5.1837 6.6950532,-1.15362 6.8229222,5.75352 h 9.431703 l 3.545249,-2.60915 0.241202,-11.74368 4.087191,-9.71689 3.752178,-5.62909 0.08591,-37.84831 44.511892,-1.0407 0.285229,53.14897 3.862057,-0.0644 -0.288045,-31.71687 1.761414,-0.67757 0.270985,-6.23363 1.219442,-1.35511 v -3.25234 l 2.303387,-0.54204 1.110062,-2.4349 1.514235,-0.69264 12.27996,-8.52662 15.7468,9.54539 0.12895,2.5793 2.19207,0.12896 -0.25789,3.09515 h 1.03157 l 0.12894,7.09307 1.80525,-0.25792 -0.2579,-7.09308 2.70786,-4.77169 h 8.76832 l 4.51308,3.09515 6.7052,-0.25792 8.89724,7.47996 0.38684,2.83722 1.93419,-0.12896 0.13258,-18.7744 4.27616,-104.3501 3.47647,-0.38633 0.38628,-4.82917 5.79411,-0.77266 4.05587,-15.64649 0.19098,-45.34588 v 0 l 2.32735,0.04924 0.765,44.9103 4.58836,16.04645 5.33082,1.01555 0.25385,5.45859 3.17311,1.01555 4.31542,104.34738 c 0,0 13.70782,-0.8886 13.32705,0.50776 -0.38077,1.39638 0.12692,46.5881 0.12692,46.5881 l 2.5385,0.12694 -0.25387,-6.2202 2.53849,-0.88859 0.25385,-11.55184 9.77317,-2.03108 -0.12692,-2.28497 2.15772,-0.25388 v -3.68132 l 5.8385,-4.95079 17.38863,0.2539 5.83852,5.3316 v 3.30053 l 2.28463,-0.12695 0.12693,8.50519 v 0 l 13.00641,0.89248 0.86291,-38.92211 h 0.66729 l 0.41706,-9.17672 0.83413,-0.16685 0.50047,-10.42809 6.92324,-1.50166 5.50522,1.25139 v 5.08891 l 1.08436,0.0833 v 2.33587 l 0.58388,0.58397 -0.0833,11.59606 1.00096,0.0834 V 282.737 l 0.83412,6.75741 6.58959,0.25027 0.16682,-26.11195 4.0038,0.0835 -0.83413,-12.59715 1.41801,-0.3337 0.58388,-53.05817 h 2.25215 l -0.16683,-22.60819 9.67585,-1.33481 19.01803,0.6674 7.75736,0.41714 0.0835,12.93091 23.85596,1.16795 -0.25026,51.63995 5.75547,0.33369 1.50144,1.41823 1.91847,-0.0834 v -15.43352 l 4.17063,-0.50056 v -26.2788 l 8.59147,-2.6696 11.01046,0.0834 0.66729,13.93195 15.93179,0.0833 6.83983,4.4215 0.58389,56.64543 1.58046,-1.27329 1.79556,-1.29756 0.55096,-1.8639 h 5.37569 l 0.79024,2.68282 1.5848,0.41713 0.33369,3.25357 h 1.41799 l -0.75071,-53.05817 17.77461,-0.16682 0.5839,42.60121 2.57801,-0.13805 V 236.4362 l 37.86927,-0.0834 0.50047,16.43468 8.17443,-0.0833 1.83508,-17.68605 7.59053,-0.91769 0.16682,-18.35345 7.42373,-1.16795 39.7684,-0.0207 1.25366,53.29774 2.51923,-0.0521 -0.5839,-31.20086 0.83416,-0.16685 0.41703,-4.75522 0.75074,-0.50055 v -5.42261 l 7.34029,-18.43689 1.83506,-0.16683 6.92326,19.10427 1.25117,0.0834 1.66826,10.34468 0.33362,15.09988 2.75263,-0.0833 0.33366,2.33591 7.3403,0.83423 0.25022,10.34468 1.75165,0.16685 0.41708,1.75193 0.91756,0.0834 0.0938,105.78831 c 0.0115,12.92576 -10.40594,23.33171 -23.3317,23.33171 H 25.998158 c -12.925766,0 -23.3317075,-10.40594 -23.3317075,-23.33171 v -43.37836" />
</svg>
