<svg
   xmlns="http://www.w3.org/2000/svg"
   viewBox="0 0 200 100">
   <defs>
      <style>
         path {
            stroke: black;
         }
      </style>
   </defs>
    <path
       style="fill:none;"
       d="m 170.54798,52.645021 c 2.52804,-17.191391 -3.00937,27.723243 2.37179,22.332884 M 148.14732,54.176563 c -1.22141,-1.348974 -2.85904,-3.743837 -4.74356,-3.326174 -1.44538,0.320336 -2.49661,1.992982 -3.3205,3.326174 -3.979,6.438605 -3.62176,12.579778 0.94871,18.531548 0.7357,0.958034 2.44102,2.103584 3.79486,1.425499 5.9083,-4.329844 9.72432,-15.753791 6.16665,-21.382548 -1.69196,1.694839 0.19205,4.853651 0.94871,7.127515 1.49113,4.480996 5.90176,13.475943 10.91023,14.730205 1.60474,0.40187 2.49256,-0.298085 3.79487,-0.950336 M 96.548234,23.631005 c 0.948709,4.118116 2.179559,8.181089 2.846139,12.354359 1.233217,7.720837 1.959827,15.514749 2.846147,23.283221 0.37873,3.319617 0.60548,6.655036 0.94871,9.978526 0.13416,1.299177 0.78699,5.097366 0.94872,3.801343 1.16162,-9.30896 -1.42555,-20.588951 7.58971,-26.609398 5.14906,-2.296726 9.71624,1.951389 13.282,4.751679 5.05376,3.937401 13.13947,8.949408 8.53844,16.630869 -1.91818,3.202449 -3.78062,4.449355 -7.11536,5.702014 -6.74488,2.533652 -12.36758,-1.445544 -18.02558,-4.751677 M 71.407281,48.814896 c -1.197442,7.79668 -1.852345,9.977533 -0.948715,19.48188 0.384147,4.040421 3.869996,13.976944 9.961508,8.553019 5.152517,-4.169927 13.340937,-26.014514 7.115363,-30.885905 -1.073305,1.217951 -1.314836,4.441577 -1.246364,5.959787 0,5.017006 0.835331,15.074475 3.14379,19.69927 0.350771,0.70274 2.315435,1.546259 2.846148,1.900671 M 42.945831,47.389391 C 40.789408,46.093327 40.730036,45.503508 38.202255,45.96389 23.669834,53.211525 29.197012,73.35518 38.676614,76.374625 54.457595,80.891181 58.670289,58.783509 58.125271,47.864561 57.751776,40.38191 55.817963,31.362866 52.432981,24.58134 52.12938,23.9731 46.777369,14.99722 45.791975,16.028319 c -0.04974,0.682619 0,1.603872 0,2.375839 0,6.987436 -0.09026,7.385458 0.47436,15.680534 0.859614,12.629223 2.254634,42.741632 18.974297,46.091277" />
</svg>
