<svg
   xmlns="http://www.w3.org/2000/svg"
   viewBox="0 0 600 400">
   <defs>
      <style>
         @keyframes draw {
            0% {
               stroke-dashoffset: 3900;
            }
            100% {
               stroke-dashoffset: 0;
            }
         }

         path {
            animation: draw 5s linear forwards;
            stroke: white;
            fill-opacity: 0;
            stroke-dasharray: 3900;
            stroke-dashoffset: 3900;
         }
      </style>
   </defs>
    <path
       style="fill:none;"
       d="M 596.11833,242.55812 V 30.554226 C 596.2889,7.9534779 577.59855,3.600587 574.13978,3.8966542 H 26.547239 C 19.800895,4.1659891 5.8905508,9.3078206 4.4053418,27.78275 v 227.78016 l 7.0970212,0.5855 0.221199,3.20739 1.105997,0.11061 0.148127,-7.60618 1.308234,-0.52329 0.104659,-1.56988 2.459481,-0.0523 0.209317,1.83153 1.465223,0.15699 -0.209318,7.74474 1.622211,0.0523 0.261647,1.72687 2.982774,0.26165 2.51181,-5.54691 0.05233,-3.76772 6.593501,0.10466 0.05233,4.50032 h 1.779199 l 0.104658,-6.17486 3.035104,-5.02362 1.67454,-0.10466 3.349083,3.50607 v 16.16977 l 2.668796,-0.15697 0.05233,-3.7154 3.139762,-0.10466 0.05233,2.72113 1.255905,0.15699 -0.104658,1.56987 2.56414,0.0523 -0.05233,-2.61647 2.040845,-0.0523 V 250.0287 l 1.203576,-1.4129 2.668797,-0.0523 1.255905,2.19784 0.209318,12.24507 7.58776,0.20932 -0.05233,6.59351 2.668799,-0.10467 -0.05233,-8.32037 1.098915,-0.0523 0.156988,-3.19209 h 1.67454 l 0.05233,-3.29675 h 0.994259 l -0.05233,-2.35483 1.151247,0.0523 0.05233,-6.0702 1.360565,-1.25591 v -3.55839 h 2.564138 l -0.05233,4.55265 0.837272,0.47097 0.209317,6.80281 1.62221,-0.0523 3.139763,-4.60498 0.104659,-3.5584 1.308235,-0.62795 0.104658,-6.17487 1.255906,-0.0523 0.313976,6.38419 4.709644,4.44799 0.134768,10.88957 1.977686,2.3073 0.878972,-1.20858 -0.10987,-15.71162 h 0.769098 v -1.64807 l 3.735631,0.21974 -0.109871,-2.41717 h 0.7691 l 0.32962,-2.41717 0.98884,0.10987 v 2.63691 h 1.64807 l 0.32961,10.87728 3.62576,-0.10987 -0.10987,-4.94422 4.72447,0.21974 0.32962,5.49358 4.94421,-0.10987 -0.21974,15.93133 5.16396,-0.10985 0.10987,-11.5365 14.88988,0.24207 2.05739,-5.04994 2.4938,0.0623 0.87283,1.18456 2.55614,0.0623 1.55862,-1.12221 0.18704,-12.96775 h 8.66595 l 0.24938,8.79064 h 4.11477 l 0.18703,22.81825 4.48884,-0.0624 0.18703,-20.3868 4.73822,0.18703 0.0154,8.73023 2.54843,0.0604 0.74045,-14.33935 4.23945,0.0623 0.99752,25.49908 21.94543,0.31173 0.12469,-10.47395 1.93268,-0.12469 0.0624,-13.84058 3.7407,-3.36663 6.17215,0.62345 0.12469,4.05242 2.55615,0.49876 0.12468,5.17463 3.7407,0.18704 -0.43641,11.15974 4.42649,0.0623 0.31172,-3.92773 3.92773,0.0623 0.85936,-6.92991 5.06727,-0.0508 -0.0662,-9.91477 1.62482,-1.12799 -0.12854,-14.83232 0.62344,-0.49876 0.81048,-34.28973 1.30925,-0.99752 0.31173,-7.79312 1.55862,-0.0623 0.56112,17.706 1.43393,12.28196 -0.0623,19.32694 0.74814,0.0623 -0.18703,14.277 0.93517,0.18704 0.11506,8.98152 10.04717,0.0585 0.5611,-9.22705 3.30429,-2.05738 0.12469,-3.55367 5.11228,-0.18703 0.49491,-10.36081 9.79202,-0.0508 v 2.24442 l 1.43394,0.12469 -0.0624,6.73326 h 5.29933 l -0.01,11.10125 2.06701,2.48995 2.93021,0.12469 1.1222,8.54126 1.74567,-0.0624 v 7.4814 l 1.92884,-0.008 -0.12084,-14.01992 1.18457,-3.17959 3.0549,0.0623 0.12467,6.42153 1.68334,0.18704 0.0623,-3.92773 5.04995,-8.54126 14.40169,0.12469 3.30427,5.92277 8.60362,0.0623 6.79558,6.17215 -0.12469,9.91285 3.92774,-0.0623 v -4.61353 l 8.04251,0.12469 0.0681,5.42594 5.54293,-0.0643 v -8.54126 l 1.18454,-0.12469 0.18704,-17.3319 3.1796,-4.11477 h 0.74814 l 2.74317,4.92525 -0.24937,18.14239 h 2.55614 l -0.0623,-13.34183 1.18454,-1.74565 6.04748,0.12468 1.49627,1.37159 0.0546,10.34542 16.90318,0.004 -0.0623,6.23449 h 4.61351 l 2.74318,-3.67835 14.46406,-0.12465 0.24939,4.3018 5.73572,-1.68331 -0.49874,-23.50405 7.35669,-0.0624 -0.49874,23.87813 16.7708,0.12469 0.10432,-84.721 h -7.45588 l -2.43721,-2.09416 -0.11414,-2.62501 9.87232,-0.85598 0.28533,-38.34793 1.54077,0.11413 0.17119,-21.79897 0.97012,-2.16849 1.59782,0.1712 0.0571,23.85332 c 49.28003,43.12292 49.0726,101.56788 43.79425,129.17003 l 15.32546,-0.20228 0.51361,2.9674 4.67934,-0.22827 c 12.72815,-16.23429 17.76892,-21.8771 35.55175,-30.07345 l 2.35605,-2.56047 4.55278,-0.0921 0.22433,-3.51046 6.61959,-0.0571 c 4.77879,21.15281 14.12329,30.7598 34.92399,36.00825 l 6.63334,0.13506 v 97.63355 c 0.23242,7.41286 -4.845,24.6448 -23.01791,25.30179 H 26.945162 C 12.253764,392.51902 4.207352,378.43341 4.3467845,368.40071 l -0.00928,-84.10962"/>
</svg>
