<svg
   xmlns="http://www.w3.org/2000/svg"
   viewBox="0 0 200 100">
    <path
       style="fill:none;stroke:#000000;"
       d="m 78.532479,26.844713 c 0.141726,-1.61742 1.691221,-2.96701 2.572993,-4.289668 2.166903,-3.250354 5.264301,-5.496641 8.805735,-7.106384 0.296495,-0.13477 0.630428,-0.174203 0.92692,-0.308973 0.38693,-0.175877 0.950992,-0.640616 1.39038,-0.772433 1.176362,-0.352908 2.470015,-0.684029 3.707678,-0.772433 3.312385,-0.236599 7.111875,-1.762845 10.327945,-0.885734 1.95577,0.658002 7.28489,3.613601 10.53771,5.056872 4.59389,1.853805 8.33581,12.051193 4.40561,13.446682 1.97847,0.05933 3.58178,-0.502708 5.1626,0.611604 9.55737,5.266027 10.29444,11.776855 8.97258,13.926502 0,0 4.95823,-1.882392 8.71986,-1.398651 4.37598,1.500704 12.47045,3.201734 15.26461,8.825617 0.41791,2.089566 1.30943,3.940494 1.1415,6.123653 -0.14581,1.895483 -0.66546,4.811302 -2.13704,6.119378 -1.17287,1.042554 -2.13219,1.784728 -3.53597,2.398884 -2.7379,1.197827 -4.27743,3.327585 -7.1622,3.836662 -3.43697,1.128655 -8.78634,-1.692334 -10.44928,-1.982825 -0.36605,-0.06101 -0.86444,0 -1.23589,0 -1.501,0.01652 3.17123,1.319408 1.55933,3.440946 -0.72526,1.472331 -1.75421,1.796804 -3.29443,2.810835 -1.39222,0.963848 -3.10886,1.59085 -4.74532,1.91814 -2.43905,0.780934 -3.52251,0.813157 -5.72402,0.326845 -1.12964,-0.242068 -2.26619,-0.405601 -3.39871,-0.617948 -0.77394,-0.01487 -1.42967,-0.460843 -2.16281,-0.617945 -1.71261,-0.36699 -3.51832,-0.524687 -5.25255,-0.772435 -1.25455,-0.179221 -2.1964,-1.828043 -3.37058,-2.297716 -0.71401,0.251186 -1.44589,3.644083 -3.95577,5.193455 -1.94442,1.944417 -4.93547,2.747651 -7.505427,2.747651 -1.830023,0 -3.59865,0.343718 -5.405966,0.07261 -1.918401,-0.28776 -3.80475,-0.762865 -5.716005,-1.081405 -1.268791,-0.211465 -2.481855,-0.334639 -3.707678,-0.772435 -1.175861,-0.419949 -2.546328,-0.944205 -3.553192,-1.699352 -0.456994,-0.448448 -0.46346,-1.699353 -0.46346,-1.699353 0,0 -0.304639,0.537977 -0.46346,0.772433 -0.505979,0.885465 -1.049274,1.427596 -2.008325,1.85384 -3.974936,1.766639 -8.299393,2.275079 -12.439675,1.171004 -1.948005,-0.698041 -4.432162,-1.798939 -5.991801,-3.045857 -3.368727,-1.461386 -4.693171,-3.859555 -1.981773,-6.119733 -0.316238,-0.316238 -2.097806,0.721419 -2.457777,0.751418 -0.667128,0.05559 -2.776831,0.294963 -3.446272,0.294963 -2.827067,0 -3.517742,-0.04262 -6.035295,-1.441259 -0.879155,-0.488421 -2.637416,-1.821107 -3.363681,-2.547372 -1.621637,-1.621637 -4.805249,-3.984041 -5.317816,-6.119734 -0.802188,-3.34245 1.440229,-11.783331 3.339355,-14.767672 2.966482,-4.48533 10.00156,-5.426934 16.273822,-4.080076 1.392474,0.349027 3.910332,3.959896 4.713877,4.662997 -2.715193,-6.195526 -1.887918,-11.247289 4.103069,-14.947498 1.454151,-0.930813 3.335831,-2.636732 4.304314,-3.248209 2.001301,-1.334201 4.928011,-1.29782 7.315463,-1.928431 2.279568,-0.602115 1.773291,3.175577 1.651428,2.707478 0.763492,-0.384686 0.11899,-2.133723 1.085394,-3.748934 z" />>
</svg>
