<svg
   xmlns="http://www.w3.org/2000/svg"
   viewBox="0 0 200 100">
    <path
       style="fill:none;stroke:#000000;"
       d="m 93.851356,27.537416 c 0.309835,-2.246204 1.578605,-4.306864 1.964013,-4.869743 0.262013,-0.367001 0.67937,-0.663369 1.0247,-0.939775 0.1886,-0.150953 0.33059,-0.353481 0.51235,-0.512605 0.52524,-0.459812 1.18071,-0.718793 1.79323,-1.025209 0.43977,-0.219994 0.82927,-0.575264 1.280881,-0.768906 1.29523,-0.494418 2.50744,-0.666696 3.67185,-1.110643 0.79757,-0.234693 1.65929,-0.370434 2.47637,-0.512605 3.2001,-0.556814 6.24094,-0.743973 9.47849,-0.512605 1.14655,0.114417 0.80142,0.282596 1.87863,0.256303 1.18538,0.182457 2.34649,0.71017 3.50106,1.025209 1.77013,0.20626 3.0025,1.106132 4.35498,1.87955 1.50559,0.836848 3.26994,1.331053 4.44039,2.648456 3.16093,4.033839 7.22099,11.048942 6.23359,15.207268 1.50523,-1.356485 3.41852,-2.553748 5.03813,-3.246497 2.45473,-1.052547 3.6695,-1.042765 6.31899,-0.512602 0.81726,0.163531 1.67544,0.186771 2.47638,0.42717 1.41654,0.425173 2.49526,1.036558 3.75723,1.794115 0.47676,0.2862 1.00204,0.533016 1.45167,0.85434 0.2877,0.2056 0.49976,0.538427 0.76853,0.768909 1.03403,0.886752 2.10021,1.867658 2.98871,2.904757 1.09287,1.753503 1.82377,3.792238 2.73254,5.467783 0.54295,0.634983 0.63672,1.585132 0.85392,2.30672 0.053,0.172145 0.11385,0.341735 0.17078,0.512606 0.37195,0.688218 0.45217,1.530176 0.59775,2.221283 0.16147,0.753899 0.53367,1.473578 0.68313,2.221288 0.0666,0.332968 0.14705,0.612224 0.25617,0.939773 0.0774,0.232203 -0.0261,0.460259 0.0854,0.683473 0.14138,0.282906 -0.0678,0.904464 -0.17078,1.110644 -0.75731,3.214095 -0.8737,6.877723 -2.04947,9.739487 -0.406,0.870453 -0.90076,1.775653 -1.45166,2.563022 -0.59885,0.855925 -1.24492,1.722195 -1.70784,2.648455 -1.18443,1.078239 -2.69214,1.790456 -4.08109,2.264441 -0.79262,0.264338 -1.62086,0.418179 -2.41676,0.66702 -2.60717,0.815146 -5.15832,1.764354 -7.91695,1.917687 -1.44977,0.08058 -3.41262,0.168236 -4.83892,-0.09933 -3.15184,-1.964304 0.91955,-2.986548 -4.16142,0.182709 -4.2624,2.276098 -10.21862,4.188415 -15.91726,4.419014 -3.18754,0.455586 -6.45395,0.500267 -9.66703,0.500267 -1.85814,0 -3.7355,0.07441 -5.58355,-0.166756 -1.12411,-0.146695 -3.12172,-0.285868 -4.23716,-0.479953 -4.043341,-0.803106 -3.810571,-2.022082 -3.960971,-2.300558 -1.959839,0.905369 -4.109394,2.033596 -6.135736,2.780512 -0.922111,0.339894 -1.822006,0.752284 -2.750103,1.083909 -1.64016,0.586062 -3.349932,1.050536 -5.083524,1.250666 -1.515513,0.174953 -0.787377,0.0224 -2.250083,0.08338 -1.308383,0.05455 -2.604444,0.08338 -3.916813,0.08338 -2.105978,0 -4.342083,0.194693 -6.416908,-0.250132 -0.663503,-0.14225 -1.227088,-0.463057 -1.833401,-0.750399 -0.606684,-0.287519 -1.232968,-0.533411 -1.833402,-0.833776 -0.255807,-0.127967 -0.488678,-0.300676 -0.750028,-0.416889 -1.005344,-0.44704 -0.513605,-0.02849 -1.500056,-0.583644 -0.208274,-0.117212 -0.382345,-0.287602 -0.583355,-0.416888 -0.188391,-0.121168 -0.41002,-0.19162 -0.583355,-0.33351 -0.27533,-0.225381 -0.444462,-0.555852 -0.666692,-0.833777 -1.126116,-1.338978 -1.580471,-2.394187 -1.794277,-3.936795 -0.129019,-0.411208 0.275862,-1.279901 1.044249,-1.566129 0,0 -8.059672,0.205535 -13.167159,-2.001062 -1.7668,-0.763313 -3.324895,-1.973248 -4.500169,-3.501861 C 43.637411,68.30951 43.553049,68.123211 43.4262,67.968099 42.956063,67.3932 42.432741,66.89735 42.092818,66.217167 c -0.212285,-0.424782 -0.333347,-0.889363 -0.500019,-1.334043 -0.248284,-0.662421 -0.53915,-1.325919 -0.750027,-2.001064 -0.335054,-1.570356 -0.711001,-2.989201 -0.916701,-4.419016 -0.0846,-0.550129 -0.309222,-1.046603 -0.416683,-1.584176 -0.107519,-0.537859 0.0346,-1.214509 0.08334,-1.750928 0.07911,-0.870661 0.449224,-1.565913 0.833365,-2.334575 0.298269,-1.057177 1.064972,-1.664214 1.66673,-2.417953 0.99275,-0.827701 2.338417,-1.297867 3.50013,-1.834306 0.836471,-0.386256 1.655347,-1.064957 2.583432,-1.250668 0.784782,-0.02375 1.656849,-0.04179 2.333417,0 0.802038,0.05015 1.614384,-0.04225 2.416758,0 0.396077,0.02085 0.783322,0.178214 1.166712,0.250134 2.525578,0.05449 2.248605,0.485792 3.833474,1.83431 1.900495,1.03496 -2.47098,-6.381081 -3.709161,-9.568928 -1.567603,-4.813014 -1.044827,-6.258338 2.042433,-9.858065 0.742771,-1.022979 2.373057,-1.694496 3.416794,-2.417952 0.291435,-0.204106 0.541929,-0.462915 0.833364,-0.667021 0.898897,-0.550148 1.685486,-0.979549 2.416758,-1.584175 0.736366,-0.491155 1.624887,-0.714188 2.416756,-1.083909 0.765724,-0.357515 1.48032,-0.853306 2.166751,-1.334044 0.977787,-0.433005 1.723325,-1.025875 2.666764,-1.41742 1.881694,-0.784427 4.010115,-1.002193 6.000225,-1.334042 2.230356,-0.658746 4.057169,-0.766316 6.025468,0.08004 2.91117,0.736524 6.200763,2.035956 8.480846,3.430354 1.265129,0.433723 2.882271,3.813482 3.167596,3.917714" />
</svg>
