<svg
   xmlns="http://www.w3.org/2000/svg"
   viewBox="0 0 200 200">
    <path
       style="fill:none;stroke:#ffffff;"
       d="M 112.16056,29.347115 C 97.06822,28.87846 81.623017,30.2911 68.02484,37.089934 c -2.082996,1.041458 -4.001968,2.755849 -5.940565,4.112818 -2.128184,1.48967 -5.508948,3.394156 -7.42433,5.117936 -2.316498,2.084769 -3.419134,4.011528 -5.351797,6.496288 -5.196054,6.680391 -9.385832,17.441689 -10.493545,25.749248 -0.854372,7.800075 -4.337305,15.655315 -4.366332,23.064266 -0.682514,15.69592 2.95788,26.71593 11.044998,37.85797 7.352606,10.50333 12.657063,12.58971 24.484302,16.76388 6.275914,2.21494 13.151703,3.35293 19.696627,4.44369 4.90506,1.45386 11.759872,3.77732 16.347842,4.01342 4.96964,0.27609 8.66669,0.57924 13.73961,0.57924 5.32819,0 18.43538,-3.75088 18.20508,-3.68513 4.28341,-1.95739 12.81161,-8.93956 12.81161,-8.93956 7.24067,-6.73993 9.75735,-10.46508 12.8816,-20.16647 -9.34193,2.37088 -14.02688,2.16792 -23.74247,4.80106 -6.03752,1.6363 -15.06785,-0.18304 -20.70979,-3.04126 -4.69753,-2.37977 -9.35236,-4.46003 -13.36366,-8.6379 -5.27038,-5.48924 -8.753149,-9.83871 -12.388799,-14.32421 -2.88079,-3.55418 -5.759348,-8.25826 -7.261191,-12.549073 -2.440652,-6.97303 -1.463831,-16.352728 -0.83592,-23.923518 0.770385,-9.288604 -0.66027,-18.835109 6.16911,-24.810584 4.77856,-6.000294 10.65157,-9.378616 15.59254,-14.206605 1.08054,-2.004023 5.86736,-6.07536 5.0408,-6.458325 z" />
</svg>
