<svg
   xmlns="http://www.w3.org/2000/svg"
   viewBox="0 0 200 200">
    <path
       style="fill:none;stroke:#ffffff;"
       d="m 112.41448,30.362806 c -15.092337,-0.468655 -30.53754,0.943985 -44.135717,7.742819 -2.082996,1.041458 -4.255891,1.740158 -6.194488,3.097127 -2.128184,1.48967 -3.891947,3.309051 -5.807329,5.032831 -2.316498,2.084769 -5.036135,4.096633 -6.968798,6.581393 -5.196054,6.680391 -10.911628,17.441689 -12.019341,25.749248 -0.854372,7.800075 -3.659173,15.231483 -3.6882,22.640436 -0.682514,15.69592 5.161807,26.80069 13.248925,37.94273 7.352606,10.50333 11.385566,11.99635 23.212805,16.17052 6.275914,2.21494 12.65071,5.74216 19.195634,6.83292 4.90506,1.45386 12.176099,2.32052 16.764069,2.55662 4.96964,0.27609 8.66669,0.57924 13.73961,0.57924 5.32819,0 13.51131,-0.55605 18.20508,-3.68513 4.28341,-1.95739 12.81161,-8.93956 12.81161,-8.93956 5.62178,-7.63931 9.74186,-10.47368 12.8816,-20.16647 -9.11519,3.5927 -13.10167,5.10886 -22.73624,5.80729 -6.23896,0.45226 -16.45175,-0.24834 -21.71602,-4.04749 -4.78635,-3.45425 -10.55984,-4.05754 -14.57114,-8.23541 -5.270377,-5.48924 -8.753147,-9.83871 -12.388797,-14.32421 -2.88079,-3.55418 -4.55187,-8.66075 -6.053713,-12.951563 -2.440652,-6.97303 -3.056465,-17.945362 -2.428554,-25.516152 0.770385,-9.288604 0.526087,-18.308951 7.355467,-24.284426 4.77856,-6.000294 11.057847,-8.31214 15.998817,-13.140129 1.08054,-2.004023 6.12128,-5.059669 5.29472,-5.442634 z" />
</svg>
