<svg
   xmlns="http://www.w3.org/2000/svg"
   viewBox="0 0 75 75" >
   <defs>
      <style>
         path {
            stroke: white;
            fill-opacity: 0;
         }
      </style>
   </defs>
   <path
      style="fill:none;"
      d="m 14.780085,56.122982 c 0.103358,-0.172262 0.220231,-0.337106 0.310072,-0.516787 0.33604,-0.672081 0.593569,-1.393851 0.930215,-2.067144 0.469848,-0.939697 1.019001,-1.394741 1.653716,-2.170504 0.370882,-0.453298 0.531745,-1.044451 0.826858,-1.550358 0.596325,-1.022271 1.651704,-1.868337 2.170502,-2.790645 0.5655,-1.005335 0.990238,-2.0925 1.550358,-3.100718 0.768781,-1.383806 1.765534,-2.600852 2.480574,-4.030933 0.06353,-0.127053 0.05348,-0.280421 0.103357,-0.413427 0.325723,-0.868595 0.647059,-1.740628 1.033573,-2.583931 1.543168,-3.366913 3.146045,-6.695448 4.961148,-9.922296 0.50868,-0.90432 1.233119,-1.685725 1.757071,-2.583931 0.567836,-0.973429 1.137446,-1.906996 1.860431,-2.790645 0.667962,-0.816397 1.144683,-1.71938 1.757074,-2.583931 1.207291,-1.704411 2.409695,-3.400741 3.514146,-5.167862 0.06349,-0.101578 1.055309,-2.004598 1.13693,-1.963787 0.0048,0.0024 -0.0096,1.151322 0,1.343644 0.06735,1.346994 0.361228,2.633743 0.723501,3.927575 0.968687,3.459601 2.577083,6.710814 3.927575,10.025651 1.00362,2.463432 1.960126,4.951386 2.894002,7.441723 0.187899,0.50106 0.217757,0.859983 0.41343,1.447001 0.564703,1.694106 1.182253,3.443404 1.757071,5.16786 0.358373,1.075116 0.789014,2.125533 1.136931,3.204075 0.03173,0.09837 -0.0263,0.210119 0,0.310074 0.454562,1.727332 1.01338,3.433373 1.447001,5.16786 0.335391,1.341561 0.489386,2.681046 0.826857,4.030932 0.39062,1.562481 0.87971,3.1383 1.447001,4.651076 0.09231,0.246144 0.38318,1.101635 0.41343,1.343644 0.01709,0.136747 0,0.275619 0,0.41343 0,0.03445 0.01773,0.1329 0,0.103357 C 55.694003,60.265807 55.627814,60.038249 55.502838,59.843841 53.874217,57.310429 49.553235,54.166835 47.337614,52.298763 43.727142,49.254637 40.155574,46.174657 36.485105,43.203325 35.168263,42.137311 33.59169,41.242943 32.247459,40.205966 31.667503,39.758572 31.158031,39.225963 30.593744,38.758965 30.158422,38.398701 29.686287,38.084606 29.2501,37.725392 28.237354,36.891367 27.326931,35.920682 26.356096,35.038104 25.683818,34.23867 24.747077,33.757158 23.978879,33.074316 23.121534,31.969238 21.769518,31.234313 20.671448,30.283671 18.97712,27.214225 8.4529098,23.547641 12.461518,23.36653 c 6.545936,0.358063 11.19989,0.450012 17.202009,1.025778 1.264031,0.120384 2.560177,0.04871 3.824219,0.206715 0.07644,0.0096 0.137808,0.06891 0.206714,0.103357 0.482335,0.03445 0.964379,0.07319 1.447,0.103357 2.118238,-0.02436 6.386565,0.206755 7.131651,0.206715 2.399162,0 4.838139,-0.114137 7.235007,0 1.479767,0.07046 0.706885,0.145254 1.963788,0.103357 2.51819,-0.08394 5.027822,-0.226163 7.545078,-0.310072 2.331834,0.01989 2.320863,-0.177017 4.961146,-0.103357 0.964719,-0.206989 -0.182878,0.714193 -0.516786,1.033573 -0.611632,0.560665 -1.224233,1.121086 -1.860429,1.653716 -2.188625,1.832337 -4.120052,3.105203 -6.40815,4.85779 -1.205666,0.923488 -2.172613,1.988632 -3.307432,2.997358 -0.9531,0.847201 -1.977194,1.612096 -2.997358,2.377218 -2.707844,2.637028 -8.321979,4.843638 -11.162583,7.028291 -0.723501,0.447881 -1.42667,0.930407 -2.170502,1.343644 -0.498522,0.276958 -1.040278,0.468461 -1.550357,0.723503 -0.598324,0.299159 -1.100548,0.760775 -1.653718,1.136928 -0.967404,0.66943 -2.028405,1.185627 -2.790645,1.963788 -2.043808,1.532858 -4.334209,2.827911 -6.511506,4.134289 -0.952111,0.571267 -0.869702,0.423505 -1.757073,1.033574 -0.787579,0.541459 -1.553849,1.165793 -2.377216,1.653714 -0.09536,0.05651 -2.06365,1.107154 -2.583931,1.343644 -0.678087,0.308221 -1.289146,0.714815 -1.899872,1.121966 -2.483151,2.656858 -0.144022,-2.211237 0.349513,-2.982394 z"
      />
</svg>
