<?xml version="1.0" encoding="UTF-8" standalone="no"?>
<svg xmlns="http://www.w3.org/2000/svg" viewBox="0 0 75 75" >
   <defs>
      <style>
         path {
            stroke: white;
            fill-opacity: 0;
         }
      </style>
   </defs>
   <path
      style="fill:none;"
      d="m 13.108389,62.374909 c 1.71009,-3.83663 5.459401,-9.221091 7.610442,-13.698794 1.110085,-2.321089 2.04427,-4.870415 3.424699,-7.03966 1.546574,-2.43033 3.254798,-4.772546 4.756526,-7.229919 1.739148,-2.845877 3.377938,-5.810417 4.946787,-8.752009 1.491536,-2.770073 3.002203,-5.825968 4.376005,-8.181225 0.84597,-1.409952 1.933556,-2.725546 2.663653,-4.185743 0.166576,-0.695483 0.728094,-1.644604 1.141568,-2.283132 0.06397,-0.09595 0.3291,-0.750758 0.380521,-0.570783 -0.01265,2.738709 0.971834,4.652969 1.712349,8.181225 0.171435,1.499996 0.619391,3.013931 0.951307,4.376004 0.670227,2.513354 1.651995,4.955988 2.473394,7.420182 0.900903,2.702716 1.287356,5.602848 1.902608,8.371485 0.582443,2.620989 1.355677,5.220523 2.092873,7.800703 1.003741,3.513092 2.27448,6.944508 3.234438,10.464358 0.551566,1.715438 0.702017,3.62795 1.141566,4.946787 C 55.076692,61.322042 54.470524,60.388447 53.633993,59.711256 51.174903,57.720563 48.422678,56.1766 45.833288,54.383945 43.278188,52.615031 40.965336,50.44304 38.41311,48.676115 33.15033,45.032652 27.475181,41.984639 22.43118,38.021495 21.403879,37.214331 20.433087,36.332665 19.387004,35.548102 18.502855,34.88499 17.32782,34.249963 16.533088,33.455232 15.37443,32.166747 13.721987,31.027359 12.537606,29.840269 11.555012,28.857675 10.822081,27.744224 9.8739508,26.796092 9.6202694,26.542413 9.3665882,26.28873 9.1129068,26.03505 8.9226457,25.844788 8.2730539,25.464267 8.5421235,25.464267 c 0.7715419,0 1.5154195,0.30375 2.2831325,0.380521 3.721099,0.37211 7.489927,0.781511 11.225402,0.951304 2.902744,0.131946 5.845159,0 8.752008,0 1.424469,0 2.777321,0.09637 4.185743,0.190262 4.748591,0.316574 9.534289,-0.190262 14.26958,-0.190262 2.044723,0 4.061759,-0.190259 6.088353,-0.190259 1.894917,0 4.021614,0.268068 5.898092,0 3.470423,-0.339173 3.278666,-0.215386 6.659136,-0.190262 -0.647927,0.971892 -4.040256,2.686042 -5.137047,3.234439 -1.027811,0.513905 -1.87198,1.313447 -2.853917,1.902611 -1.239218,0.743529 -2.582024,1.314474 -3.805219,2.09287 -3.32821,2.11795 -6.534782,4.36963 -9.893575,6.468877 -0.601657,0.376034 -1.12087,0.993838 -1.712349,1.331825 -1.510329,1.162306 -3.313471,1.73861 -5.020018,2.819626 -7.857202,3.489007 -3.052898,1.605083 -12.401329,6.993544 -3.261394,1.312252 -5.714153,4.284564 -7.716548,5.908406 -3.138166,3.110149 -4.553673,4.177988 -6.255179,5.20714 z"
      id="path3211" />
</svg>
