<svg xmlns="http://www.w3.org/2000/svg" viewBox="0 0 200 200">
    <path
       style="fill:none;stroke:#000000;stroke-width:1;stroke-linecap:butt;stroke-linejoin:miter;stroke-miterlimit:4;stroke-dasharray:none;stroke-opacity:1"
       d="m 105.4312,55.765527 c -5.09533,-1.27389 -27.007119,0.49943 -31.120599,3.24187 -4.51076,3.00732 -6.70049,7.99755 -10.37353,11.67075 -0.34171,0.34172 -0.95498,0.30665 -1.29669,0.64837 -1.58948,1.58955 -3.51735,4.44151 -4.53842,6.48375 -0.30563,0.6113 -0.29673,1.35907 -0.64835,1.94512 -0.31449,0.52419 -1.02332,0.75 -1.29669,1.29676 -0.58789,1.17584 -0.2872,2.62619 -0.64834,3.89025 -1.54615,5.41174 -1.80722,10.70592 -2.59339,16.209363 -1.30249,9.11788 -4.30912,19.20416 0.64835,27.88011 2.64158,4.62297 7.48682,7.3405 10.37353,11.67076 0.96721,1.45087 1.82368,2.75574 3.24173,3.89023 2.41486,1.93198 5.23116,3.00917 7.78015,4.53862 0.52416,0.31452 0.72914,1.06973 1.29669,1.29675 0.60197,0.2408 1.30551,-0.10658 1.94504,0 7.69368,1.28234 18.65274,3.26676 26.582169,1.94514 6.59753,-1.09964 11.64789,-5.50003 17.50534,-8.42888 4.59646,-2.29834 10.77577,-5.6413 13.61527,-10.374 1.85665,-3.38261 0,0 3.24171,-5.18699 1.51543,-3.53612 2.36401,-7.46136 3.89008,-11.02237 1.10059,-2.56817 1.55476,-1.15817 1.94503,-3.89025 0.43166,-3.02169 0.62757,-3.15875 1.29671,-5.83537 0.31976,-1.2791 -0.58338,-3.37183 0,-4.53862 0.58887,-1.17779 0.94846,-2.38962 0.64834,-3.890263 -0.38983,-1.94923 -1.22037,-3.85517 -1.2967,-5.83537 -0.0661,-1.71667 0.9789,-3.138 0,-5.83537 -2.38512,-3.99092 0.2504,-8.70582 -4.53841,-16.20937 -1.68571,-2.52868 -3.86807,-4.09169 -6.48347,-5.83537 -0.99745,-0.665 -1.59592,-1.9285 -2.59337,-2.59349 -0.56865,-0.37911 -1.4618,-0.16511 -1.94505,-0.64838 -1.84483,-2.22283 -7.66841,-3.82628 -11.02188,-5.187 -0.61507,-0.20503 -1.36513,0.28996 -1.94503,0 -3.5686,-1.46771 -7.39325,-0.26332 -11.67022,-1.29675 z"
       id="path2255" />
    <path
       style="fill:none;stroke:#000000;stroke-width:1;stroke-linecap:butt;stroke-linejoin:miter;stroke-opacity:1;stroke-miterlimit:4;stroke-dasharray:none"
       d="m 104.99358,49.622328 c 0,-0.605152 0,-1.210302 0,-1.815451 0,-0.894747 0.36752,-4.106162 0,-4.841203 -0.47887,-0.957739 -0.98516,-4.608878 -0.60515,-5.748928 0.41913,-1.257379 0.90773,-1.986134 0.90773,-3.328328 0,-0.683588 -0.0451,0.135315 0.30257,-0.907725 0.12585,-0.37755 -0.25489,-2.723176 -0.60515,-2.723176"
       id="path2283" />
    <path
       style="fill:none;stroke:#000000;stroke-width:1;stroke-linecap:butt;stroke-linejoin:miter;stroke-opacity:1;stroke-miterlimit:4;stroke-dasharray:none"
       d="m 151.89273,93.495727 c 2.7932,1.587087 4.35984,-1.735225 6.65666,-2.118027 1.29238,-0.215397 5.67398,0.479311 6.95923,0.907725 1.41047,0.470159 4.88887,-0.156054 6.35407,-0.302575 0.45879,-0.04588 5.03094,-0.717992 3.93348,-1.815449"
       id="path2287" />
    <path
       style="fill:none;stroke:#000000;stroke-width:1;stroke-linecap:butt;stroke-linejoin:miter;stroke-opacity:1;stroke-miterlimit:4;stroke-dasharray:none"
       d="m 144.63093,131.01505 c 1.47333,3.74543 4.18513,5.57217 7.56438,7.2618 0.97993,0.48997 1.78824,0.36716 2.4206,1.2103 1.20438,1.60584 2.51672,3.16994 3.6309,4.8412 0.74617,1.11925 0.98299,2.19329 2.11803,3.32833"
       id="path2289" />
    <path
       style="fill:none;stroke:#000000;stroke-width:1;stroke-linecap:butt;stroke-linejoin:miter;stroke-opacity:1;stroke-miterlimit:4;stroke-dasharray:none"
       d="m 114.07084,153.40561 c 0.50429,0.80687 1.12241,1.55291 1.51287,2.4206 1.37431,3.05401 1.17387,5.63964 2.11803,8.47211 0.30426,0.91279 0.80938,1.92134 1.2103,2.72317 0.504,1.00801 1.78403,1.72117 2.11803,2.72318 0.34414,1.03242 0,2.8547 0,3.93348"
       id="path2291" />
    <path
       style="fill:none;stroke:#000000;stroke-width:1;stroke-linecap:butt;stroke-linejoin:miter;stroke-opacity:1;stroke-miterlimit:4;stroke-dasharray:none"
       d="m 79.879845,155.82621 c -0.706009,0.70601 -1.494303,1.33837 -2.118026,2.11803 -0.655633,0.81953 -1.813158,2.714 -2.118027,3.93347 -0.14677,0.58709 0.118679,1.22206 0,1.81546 -0.342313,1.71155 -1.368695,5.27049 -2.723176,6.35407 -0.998316,0.79865 -5.143778,1.73913 -5.143778,2.11803"
       id="path2293" />
    <path
       style="fill:none;stroke:#000000;stroke-width:1;stroke-linecap:butt;stroke-linejoin:miter;stroke-opacity:1;stroke-miterlimit:4;stroke-dasharray:none"
       d="m 46.294,131.92277 c -2.442044,1.08535 -2.593756,0.46175 -3.328326,2.4206 -0.706581,1.88422 -1.211178,3.63266 -2.118027,5.44636 -0.242898,0.4858 -0.289457,1.0709 -0.60515,1.51287 -0.211367,0.29592 -0.650586,0.34801 -0.907724,0.60515 -0.185894,0.1859 -0.199895,0.7051 -0.605152,0.90773 -1.836299,0.91815 -5.626106,3.00928 -7.261805,4.23605 -0.08068,0.0605 0.08392,0.24663 0,0.30258 -1.663792,1.10919 -6.118966,1.27776 -6.959227,2.11802"
       id="path2295" />
    <path
       style="fill:none;stroke:#000000;stroke-width:1;stroke-linecap:butt;stroke-linejoin:miter;stroke-opacity:1;stroke-miterlimit:4;stroke-dasharray:none"
       d="M 45.991425,95.008604 C 45.0837,94.806885 44.134891,94.74048 43.268249,94.403451 c -6.068203,-2.359856 -0.799066,-0.702106 -3.630901,-2.118026 -0.932286,-0.466141 -2.181985,-0.577472 -3.025754,-1.2103 -0.228216,-0.171161 -0.349996,-0.477573 -0.60515,-0.605149 -0.180419,-0.09021 -0.409456,0.04892 -0.605149,0 C 34.906278,90.346222 31.601087,88.613455 31.165241,88.351949 30.225584,87.788154 29.910952,86.77309 29.349792,85.931347 28.881295,85.228601 27.239846,83.518826 26.626616,82.905596 26.0426,82.321582 24.91929,82.354509 24.206013,81.997869"
       id="path2297" />
    <path
       style="fill:none;stroke:#000000;stroke-width:1;stroke-linecap:butt;stroke-linejoin:miter;stroke-opacity:1;stroke-miterlimit:4;stroke-dasharray:none"
       d="M 61.725333,60.515034 C 58.571994,58.70513 55.952749,56.650873 53.858379,53.858379 53.355287,53.187591 52.507543,52.73985 52.04293,52.04293 c -0.220393,-0.330589 -0.480756,-1.442268 -0.605153,-1.815452 -0.717833,-2.153499 -1.268288,-4.232894 -2.723176,-6.051505 -1.02485,-1.281062 -2.84217,-1.329296 -3.933476,-2.420601"
       id="path2299" />
    <path
       style="fill:none;stroke:#000000;stroke-width:1;stroke-linecap:butt;stroke-linejoin:miter;stroke-opacity:1;stroke-miterlimit:4;stroke-dasharray:none"
       d="m 143.84357,61.240333 c 0.26067,-0.988473 1.58579,-0.608031 1.99388,-1.424194 0.16857,-0.337156 0.89803,-2.037389 1.13935,-2.27871 0.5788,-0.578798 1.35102,-0.710788 1.99387,-1.139354 0.33517,-0.223446 0.53226,-0.612823 0.85452,-0.854517 1.08487,-0.81365 2.5385,-1.295228 3.7029,-1.993871 1.65192,-0.991153 3.45615,-2.316787 4.84226,-3.702905 0.15012,-0.150122 0.13472,-0.419552 0.28484,-0.569677 0.71669,-0.71669 2.27871,-1.585841 2.27871,-2.563548"
       id="path2305" />
</svg>
