<svg xmlns="http://www.w3.org/2000/svg" viewBox="0 0 200 200">
    <path
       style="fill:none;stroke:#000000;stroke-width:1;stroke-linecap:butt;stroke-linejoin:miter;stroke-opacity:1;stroke-miterlimit:4;stroke-dasharray:none"
       d="m 101.10024,56.206704 c -1.274643,0.148331 -2.513152,-0.280527 -3.771058,-0.359148 -6.348059,0.357978 -10.791281,0.05605 -16.418101,0.434478 -2.513529,-0.598019 -7.14785,1.992449 -7.749078,2.381641 -1.512654,0.845931 -2.378997,2.707306 -4.025961,3.828124 -0.935302,0.623536 -1.795592,1.301803 -2.693612,1.975316 -1.029061,0.581065 -1.638478,1.081496 -2.154888,1.975315 -1.039804,1.733005 -1.830432,3.649303 -2.873187,5.387224 -3.055668,3.325364 -4.76268,6.443742 -6.644243,10.415302 -0.849908,0.91836 -1.38509,2.326534 -1.79574,3.411907 -1.187485,3.166626 -1.600658,6.371606 -2.154891,9.697003 -0.168535,0.343157 -0.306361,0.726662 -0.359148,1.077447 -0.09684,0.677884 0.166793,1.48772 0,2.154888 -0.345224,0.817213 -0.192022,1.991189 0,3.411909 0.199059,1.39341 0.446323,2.77033 0.718296,4.13021 0.241548,1.20774 -0.02368,2.55159 0.179575,3.77105 0.203232,1.21939 -0.136472,2.54281 0,3.77106 0.228724,2.05852 0.145251,4.49731 0.538721,6.46467 0.108924,2.4196 0.719671,5.01895 1.257019,7.18296 0.172638,0.69056 0.460198,1.44818 0.538724,2.15489 0.0829,1.21942 -0.08105,1.45601 0.538721,2.33447 0.487806,1.13821 0.811765,2.37052 1.436594,3.4119 0.08187,0.13646 0.699326,0.69554 0.718296,0.7183 0.755894,0.96403 1.231926,1.91765 2.154889,2.51404 2.977543,2.85795 7.004993,4.96313 10.415301,6.82382 1.857996,0.61324 3.641621,1.89623 5.207649,2.69361 6.249536,2.00506 13.265932,4.99248 19.394008,5.5668 3.121511,-0.0992 6.25708,0.24413 9.158284,0 2.23872,-0.20352 4.5659,-0.99638 6.64424,-1.79574 1.94017,-1.23716 4.34841,-1.25781 6.28509,-1.97532 2.48561,-0.9826 4.71983,-2.73463 6.82382,-3.95063 0.052,-0.0297 0.11972,0 0.17958,0 0.77815,-0.47887 1.58038,-0.92065 2.33446,-1.43659 3.25441,-2.94948 7.43438,-5.33035 10.23572,-8.08084 1.82665,-2.24965 3.76739,-4.76345 5.02808,-7.00339 0.54851,-0.95989 1.29352,-1.86874 1.79574,-2.87319 0.29868,-0.59735 0.25437,-1.58617 0.53873,-2.15489 1.22658,-1.73456 1.36358,-3.06973 1.97531,-5.56679 0.55337,-2.21348 1.23945,-4.38394 1.61617,-6.64425 0.0967,-0.58014 -0.0585,-1.21024 0,-1.79574 0.10819,-1.08189 0.26073,-2.14979 0.35915,-3.23234 -0.22974,-1.7048 -0.0999,-3.5983 -0.35915,-6.10551 -0.14441,-1.299673 0.16215,-2.653379 0,-3.950636 -0.45014,-1.295502 -0.34682,-2.74034 -0.53872,-3.950631 -0.0622,-0.373425 -0.30561,-0.702673 -0.35915,-1.077445 -0.24499,-1.714907 0.0352,-3.48983 -0.17958,-5.20765 -0.52462,-1.213093 -0.26576,-2.61077 -0.53872,-3.771056 -0.15636,-0.625444 -0.53305,-1.17824 -0.7183,-1.795741 -0.89133,-2.465136 -1.62128,-5.185573 -2.51403,-7.362541 -0.29297,-0.683586 -0.33213,-0.38298 -0.7183,-0.897869 -0.9878,-1.317067 -2.09835,-2.720213 -3.41191,-3.771059 -2.96832,-2.038652 -5.69479,-4.119463 -8.43998,-6.105519 -0.43567,-0.311187 -0.98259,-0.434544 -1.4366,-0.718297 -1.05554,-0.659714 -2.1246,-1.241874 -3.23233,-1.795743 -1.03845,-0.416092 -2.09757,-0.826113 -3.05276,-1.257016 -0.83118,-0.415592 -1.62026,-0.959094 -2.51404,-1.25702 -1.63052,-0.290181 -3.30083,-1.004336 -4.8485,-1.257019 -1.7102,-0.244314 -3.55948,-0.12668 -5.20765,-0.538724 -0.83166,-0.207915 -1.88332,0.06382 -2.69361,0.179575 -1.64055,0.280136 -3.37424,-0.19801 -4.66893,-0.179575 z"
       id="path2485" />
    <path
       style="fill:none;stroke:#000000;stroke-width:1;stroke-linecap:butt;stroke-linejoin:miter;stroke-opacity:1;stroke-miterlimit:4;stroke-dasharray:none"
       d="M 44.191351,92.801836 C 43.602634,92.717733 42.737817,92.604171 42.20274,92.4704 41.00346,92.170582 39.499042,91.64282 38.335997,91.25514 36.18081,90.536743 34.075116,89.842807 32.038729,88.824614 30.517912,88.064207 28.976105,86.857236 27.398638,86.283611 26.630455,86.004272 23.331555,85.530882 23.089981,85.289307"
       id="path2521" />
    <path
       style="fill:none;stroke:#000000;stroke-width:1;stroke-linecap:butt;stroke-linejoin:miter;stroke-opacity:1;stroke-miterlimit:4;stroke-dasharray:none"
       d="M 60.753047,58.226684 C 59.13447,56.733019 57.685889,55.034552 56.061228,53.534865 55.379479,52.905559 55.360082,52.74188 54.617593,52.21153 53.795739,51.624494 53.629205,51.6389 52.813045,51.128802 c -1.912911,-1.19557 -3.73111,-2.554144 -5.654244,-3.729394 -0.881944,-0.538967 -1.837955,-0.894557 -2.76697,-1.323335 -0.825299,-0.380907 -1.273837,-1.17828 -2.045153,-1.563939"
       id="path2545" />
    <path
       style="fill:none;stroke:#000000;stroke-width:1;stroke-linecap:butt;stroke-linejoin:miter;stroke-opacity:1;stroke-miterlimit:4;stroke-dasharray:none"
       d="m 44.677242,133.87102 c -0.571402,0.54163 -0.803579,1.32589 -1.285674,1.92851 -0.165642,0.20706 -0.391207,0.36007 -0.562483,0.56249 -0.124764,0.14744 -0.197768,0.33375 -0.321421,0.48213 -1.295585,1.5547 0.275961,-0.54357 -0.883901,0.96425 -0.773153,1.0051 -1.55357,2.03412 -2.571353,2.81242 -1.366449,1.04493 -2.878037,1.75109 -4.41951,2.491 -1.025557,0.49226 -1.995276,1.10345 -3.053483,1.52674 -1.051332,0.42053 -2.203595,0.66672 -3.294544,0.96426 -0.677378,0.18474 -1.265174,0.30091 -1.767805,0.80354"
       id="path2549" />
    <path
       style="fill:none;stroke:#000000;stroke-width:1;stroke-linecap:butt;stroke-linejoin:miter;stroke-opacity:1;stroke-miterlimit:4;stroke-dasharray:none"
       d="m 79.357224,157.40156 c -1.197641,0.90717 -2.250897,0.71761 -3.209298,1.82346 -0.518715,0.59852 -0.644517,1.29269 -0.802325,2.04228 -0.138215,0.65652 -0.186581,0.75762 -0.291753,1.45877 -0.124883,0.83256 -0.09584,1.74629 -0.364694,2.55286 -0.262258,0.78677 -0.836491,1.54382 -1.239956,2.2611 -0.696058,1.23743 0.134839,-0.12381 -0.58351,1.31289 -0.102576,0.20515 -0.253304,0.383 -0.364694,0.58351 -0.354729,0.63851 -0.622458,1.31786 -0.948203,1.96934 -0.501904,1.00381 -1.307314,1.86851 -1.53171,2.99048"
       id="path2551" />
    <path
       style="fill:none;stroke:#000000;stroke-width:1;stroke-linecap:butt;stroke-linejoin:miter;stroke-opacity:1;stroke-miterlimit:4;stroke-dasharray:none"
       d="m 115.83072,154.7843 c -0.12909,2.37599 0.79906,4.5618 1.59185,6.74196 0.3162,0.86955 0.0707,-0.17006 0.37455,0.84275 0.19439,0.64794 0.14592,1.30471 0.18728,1.96641 0.0316,0.50619 0.17265,1.20914 0.28092,1.68549 0.25071,1.10313 0.60797,2.1376 0.65547,3.27734 0.0813,1.95226 -0.48043,3.9653 -0.0936,5.89922"
       id="path2555" />
    <path
       style="fill:none;stroke:#000000;stroke-width:1;stroke-linecap:butt;stroke-linejoin:miter;stroke-opacity:1;stroke-miterlimit:4;stroke-dasharray:none"
       d="m 146.69373,132.32997 c 3.89744,2.06894 5.58941,7.53937 8.96462,10.49268 0.50011,0.43759 1.24788,0.75124 1.62993,1.32432 0.39716,0.59574 0.2297,1.65589 0.7131,2.13928"
       id="path2557" />
    <path
       style="fill:none;stroke:#000000;stroke-width:1;stroke-linecap:butt;stroke-linejoin:miter;stroke-opacity:1;stroke-miterlimit:4;stroke-dasharray:none"
       d="m 155.76022,93.720996 c 2.4875,0.02627 5.13845,0.0869 7.53843,-0.713095 0.28813,-0.09604 0.53412,-0.291841 0.81496,-0.407482 0.29788,-0.122656 0.6217,-0.17649 0.91684,-0.305612 0.77112,-0.337365 1.46765,-0.890948 2.24115,-1.222447 1.7232,-0.738515 4.65034,-0.982988 6.01037,-2.343025"
       id="path2559" />
    <path
       style="fill:none;stroke:#000000;stroke-width:1;stroke-linecap:butt;stroke-linejoin:miter;stroke-opacity:1;stroke-miterlimit:4;stroke-dasharray:none"
       d="m 147.10121,60.205553 c 1.1885,-1.731801 2.18598,-3.611536 3.56548,-5.195403 0.0171,-0.01966 2.49736,-1.42721 2.95425,-1.731801 0.72412,-0.482751 0.36915,-0.392518 1.12057,-1.018707 0.55916,-0.465966 1.20932,-0.801828 1.7318,-1.324319 0.71616,-0.716153 1.12395,-1.584722 1.62994,-2.444895 0.16242,-0.27612 0.30242,-0.570416 0.50935,-0.814965 0.40845,-0.482713 1.04967,-0.797197 1.42619,-1.324319 0.092,-0.128849 0.26866,-0.528351 0.30561,-0.713094 0.0133,-0.0666 -0.0326,-0.263295 0,-0.203742"
       id="path2561" />
    <path
       style="fill:none;stroke:#000000;stroke-width:1;stroke-linecap:butt;stroke-linejoin:miter;stroke-opacity:1;stroke-miterlimit:4;stroke-dasharray:none"
       d="m 105.90178,47.977115 c -1.03233,-2.945244 -0.38025,-6.066851 -0.88032,-9.067236 -0.14095,-0.84568 -0.6326,-1.605077 -0.70425,-2.46488 -0.0646,-0.774941 -0.0241,-1.52863 -0.26409,-2.288815 -0.15432,-0.48868 -0.38704,-0.950137 -0.61622,-1.408502 -0.0473,-0.09463 -0.14261,-0.163724 -0.17607,-0.264096 -0.0278,-0.08351 0.0214,-0.178689 0,-0.264094 -0.0321,-0.12827 -0.26403,-0.35206 -0.35212,-0.440155"
       id="path2563" />
</svg>
