<?xml version="1.0" encoding="UTF-8" standalone="no"?>
<svg
   xmlns:dc="http://purl.org/dc/elements/1.1/"
   xmlns:cc="http://creativecommons.org/ns#"
   xmlns:rdf="http://www.w3.org/1999/02/22-rdf-syntax-ns#"
   xmlns:svg="http://www.w3.org/2000/svg"
   xmlns="http://www.w3.org/2000/svg"
   xmlns:sodipodi="http://sodipodi.sourceforge.net/DTD/sodipodi-0.dtd"
   xmlns:inkscape="http://www.inkscape.org/namespaces/inkscape"
   width="480mm"
   height="480mm"
   viewBox="0 0 480 480"
   version="1.1"
   id="svg8"
   sodipodi:docname="chips_inkscape.svg"
   inkscape:version="1.0.2 (e86c8708, 2021-01-15)">
  <sodipodi:namedview
     pagecolor="#ffffff"
     bordercolor="#666666"
     borderopacity="1"
     objecttolerance="10"
     gridtolerance="10"
     guidetolerance="10"
     inkscape:pageopacity="0"
     inkscape:pageshadow="2"
     inkscape:window-width="1348"
     inkscape:window-height="750"
     id="namedview863"
     showgrid="false"
     inkscape:zoom="0.47955729"
     inkscape:cx="907.08661"
     inkscape:cy="907.08661"
     inkscape:window-x="1747"
     inkscape:window-y="224"
     inkscape:window-maximized="0"
     inkscape:current-layer="svg8" />
  <defs
     id="defs2" />
  <metadata
     id="metadata5">
    <rdf:RDF>
      <cc:Work
         rdf:about="">
        <dc:format>image/svg+xml</dc:format>
        <dc:type
           rdf:resource="http://purl.org/dc/dcmitype/StillImage" />
        <dc:title></dc:title>
      </cc:Work>
    </rdf:RDF>
  </metadata>
  <g
     id="layer1">
    <path
       id="path2709"
       style="color:#000000;font-style:normal;font-variant:normal;font-weight:normal;font-stretch:normal;font-size:medium;line-height:normal;font-family:sans-serif;font-variant-ligatures:normal;font-variant-position:normal;font-variant-caps:normal;font-variant-numeric:normal;font-variant-alternates:normal;font-variant-east-asian:normal;font-feature-settings:normal;font-variation-settings:normal;text-indent:0;text-align:start;text-decoration:none;text-decoration-line:none;text-decoration-style:solid;text-decoration-color:#000000;letter-spacing:normal;word-spacing:normal;text-transform:none;writing-mode:lr-tb;direction:ltr;text-orientation:mixed;dominant-baseline:auto;baseline-shift:baseline;text-anchor:start;white-space:normal;shape-padding:0;shape-margin:0;inline-size:0;clip-rule:nonzero;display:inline;overflow:visible;visibility:visible;isolation:auto;mix-blend-mode:normal;color-interpolation:sRGB;color-interpolation-filters:linearRGB;solid-color:#000000;solid-opacity:1;vector-effect:none;fill:#000000;fill-opacity:1;fill-rule:nonzero;stroke:none;stroke-linecap:round;stroke-linejoin:round;stroke-miterlimit:4;stroke-dasharray:none;stroke-dashoffset:0;stroke-opacity:1;color-rendering:auto;image-rendering:auto;shape-rendering:auto;text-rendering:auto;enable-background:accumulate;stop-color:#000000;stop-opacity:1;opacity:1"
       d="m 139.97266,367.76367 a 3.5,3.5 0 0 0 -3.39258,2.9336 c 0,0 -0.78057,4.75294 -1.29688,10.69921 -0.51631,5.94628 -0.86358,13.00874 0.33399,18.51758 a 3.50035,3.50035 0 0 0 4.45312,2.59961 c 9.83963,-3.04385 14.40796,-4.05052 16.11719,-4.2832 3.70681,2.37472 7.03723,6.16667 13.07422,8.36133 a 3.50035,3.50035 0 0 0 2.5,-0.041 c 4.53238,-1.81955 8.60064,-2.83834 11.85937,-5.01758 3.11518,2.24004 6.16428,4.0015 8.96289,5.64063 a 3.50035,3.50035 0 0 0 3.33985,0.10742 c 6.2549,-3.14269 7.70782,-4.3963 9.41406,-5.69922 l 9.00391,5.98438 a 3.50035,3.50035 0 0 0 2.58203,0.52539 c 3.3859,-0.63451 6.96498,-2.66539 11.01953,-5.40821 4.00815,1.9588 7.84809,3.78524 10.42969,6.08008 a 3.50035,3.50035 0 0 0 4.57031,0.0684 c 2.98264,-2.49535 5.26452,-3.0414 7.85352,-4.29883 l 9.23632,4.72852 a 3.50035,3.50035 0 0 0 2.99219,0.0937 c 4.00663,-1.74535 7.92674,-4.34779 11.80078,-7.4707 2.98053,1.76121 5.96089,3.52199 8.94141,5.2832 a 3.50035,3.50035 0 0 0 3.23437,0.16992 c 2.94709,-1.34423 6.32362,-3.0219 10.66016,-5.69531 4.59184,2.44036 7.84269,3.48739 10.99609,4.75976 a 3.50035,3.50035 0 0 0 3.61719,-0.61328 c 3.62212,-3.17678 6.47854,-5.58875 8.55273,-7.24023 1.94908,0.0322 5.98823,1.18254 10.60157,3.30273 a 3.50035,3.50035 0 0 0 4.09179,-0.86914 l 5.85743,-6.66797 c 5.06567,1.84342 8.26093,2.39625 11.55664,3.25782 a 3.50035,3.50035 0 0 0 4.37695,-3.64844 c -0.70199,-9.31547 -3.39095,-16.69523 -5.86914,-22.88086 a 3.5,3.5 0 0 0 -4.55078,-1.94727 3.5,3.5 0 0 0 -1.94727,4.55078 c 1.9227,4.79911 3.76263,9.9539 4.76367,16.01172 -2.11127,-0.47897 -4.41174,-1.10804 -8.08984,-2.63086 a 3.50035,3.50035 0 0 0 -3.96875,0.92383 l -5.74414,6.53711 c -4.3594,-1.93384 -8.52724,-3.54285 -12.68555,-3.00781 a 3.50035,3.50035 0 0 0 -1.6914,0.70117 c -1.95397,1.5073 -5.02728,4.16897 -8.25391,6.97852 -3.05167,-1.12409 -5.64393,-1.95752 -10,-4.50586 a 3.50035,3.50035 0 0 0 -3.66992,0.084 c -4.23401,2.74566 -7.08261,4.14865 -9.88672,5.45117 -3.11758,-1.8422 -6.23595,-3.68514 -9.35352,-5.52734 a 3.50035,3.50035 0 0 0 -4.07812,0.37305 c -3.63523,3.16539 -7.1998,5.46113 -10.69727,7.16015 l -9.12304,-4.66992 a 3.50035,3.50035 0 0 0 -3.57618,0.23047 c -1.24437,0.8543 -4.24901,1.46339 -8.12109,4.05664 -3.70905,-2.67082 -7.83186,-4.46269 -11.46875,-6.27344 a 3.50035,3.50035 0 0 0 -3.58398,0.27735 c -3.91523,2.77668 -6.97936,4.3016 -8.9668,4.94726 l -9.55664,-6.35547 a 3.50035,3.50035 0 0 0 -3.79883,-0.0488 c -3.52529,2.21485 -3.81006,2.97583 -9.02344,5.7539 -3.02896,-1.73809 -5.89212,-3.3504 -8.63671,-5.6289 a 3.50035,3.50035 0 0 0 -4.78711,0.29687 c -0.85439,0.91016 -5.06785,2.57593 -10.37696,4.69922 -3.69914,-1.70216 -6.48846,-4.65906 -11.02343,-7.44141 -0.13802,-0.11476 -0.26434,-0.34177 -0.39649,-0.41015 -1.80211,-0.93251 -2.43657,-0.53742 -3.74414,-0.36719 -2.14362,0.27907 -6.47807,1.36511 -13.25195,3.36328 -0.28612,-3.83141 -0.26421,-8.38612 0.10351,-12.62109 0.4917,-5.66278 1.23047,-10.17383 1.23047,-10.17383 a 3.5,3.5 0 0 0 -2.88867,-4.02149 3.5,3.5 0 0 0 -0.62695,-0.0449 z m 14.55468,25.55274 a 3.50035,3.50035 0 0 0 -0.0293,0.0547 c 0.0147,-0.0297 0.0148,-0.0274 0.0293,-0.0547 z m 71.4043,-319.324222 a 3.50035,3.50035 0 0 0 -2.58203,1.210937 c -1.77816,2.057794 -4.1613,4.056419 -6.66016,4.917969 -3.51477,-2.532834 -6.72742,-3.252888 -8.08984,-4.228516 a 3.50035,3.50035 0 0 0 -3.91992,-0.105469 c -4.80899,3.067366 -7.20219,5.130917 -9.4961,6.939453 -5.82566,-0.774786 -10.50062,-2.262977 -13.88671,-4.441406 a 3.50035,3.50035 0 0 0 -3.64844,-0.08594 c -3.93502,2.277254 -7.99745,4.642205 -12.11524,7.5 -4.75441,-1.207482 -9.77198,-2.483665 -15.59375,-2.513672 a 3.50035,3.50035 0 0 0 -2.0625,0.658203 c -6.49478,4.674495 -7.49854,7.306719 -9.20898,9.632812 -0.64933,0.02775 -1.60992,0.01795 -2.73242,0 -2.36856,-0.03788 -5.17807,-0.200397 -7.97461,0.699219 -1.39827,0.449809 -3.06518,1.314531 -4.00391,3.146485 -0.93873,1.831953 -0.67002,3.992604 0.0937,5.753904 1.52755,3.5226 4.86732,7.11025 11.27344,12.62305 a 3.5,3.5 0 0 0 4.93555,-0.3711 3.5,3.5 0 0 0 -0.3711,-4.93554 c -5.66594,-4.87585 -8.24147,-8.12528 -9.04687,-9.60156 1.09765,-0.20612 2.95743,-0.34681 4.98047,-0.31446 1.16146,0.0186 2.28901,0.0481 3.37109,-0.01 0.54104,-0.029 1.06743,-0.0713 1.68164,-0.20899 0.61421,-0.13772 1.40308,-0.274171 2.35938,-1.230466 a 3.50035,3.50035 0 0 0 0.18945,-0.205078 c 2.97095,-3.485468 2.47788,-4.645915 7.57031,-8.517578 4.88483,0.187028 9.44422,1.306219 14.34766,2.541015 a 3.50035,3.50035 0 0 0 2.9082,-0.558594 c 3.66252,-2.653656 7.40052,-4.832767 11.22266,-7.042968 4.49829,2.44365 9.88677,4.015968 16.25195,4.697265 a 3.50035,3.50035 0 0 0 2.46875,-0.675781 c 2.66473,-1.992773 4.83684,-3.873265 8.66211,-6.458984 2.56609,1.299487 4.88827,2.020854 6.83984,3.769531 a 3.50035,3.50035 0 0 0 2.91797,0.845703 c 4.451,-0.751287 7.57477,-3.29712 10.05469,-5.789063 4.93852,2.264101 8.62405,3.918105 13.18945,5.414063 a 3.50035,3.50035 0 0 0 2.49414,-0.119141 c 3.94599,-1.728012 5.94877,-2.781798 11.80469,-5.126953 3.26041,1.321643 6.10962,2.592613 7.61133,4.261719 a 3.50035,3.50035 0 0 0 3.19922,1.107422 c 3.63234,-0.628911 7.97475,-1.534241 12.57617,-4.392578 3.3698,3.182104 7.09322,4.432305 9.5332,6.083984 a 3.50035,3.50035 0 0 0 3.43164,0.277344 c 4.18081,-1.936216 8.30237,-4.258693 12.39258,-6.732422 3.2417,0.506734 6.07172,2.426822 9.03516,5.492188 a 3.50035,3.50035 0 0 0 3.20312,1 c 4.45061,-0.889049 7.1718,-2.243779 9.05469,-3.488282 1.20979,-0.79962 2.01526,-1.360724 2.86133,-1.853515 1.78608,1.410103 3.82873,2.936438 7.79492,5.757812 a 3.50035,3.50035 0 0 0 4.19531,-0.103515 c 2.12269,-1.672823 4.50869,-3.062633 7.89844,-4.28711 1.72445,2.178359 3.32891,4.791602 5.17969,7.667969 a 3.50035,3.50035 0 0 0 5.0957,0.867187 c 4.93259,-3.845272 7.9594,-4.511855 11.86914,-4.09375 -1.48089,4.99322 -5.97971,11.222766 -9.35937,17.328126 a 3.5,3.5 0 0 0 1.36718,4.75781 3.5,3.5 0 0 0 4.75782,-1.36719 c 3.44207,-6.21811 10.88216,-14.111627 10.90234,-23.61523 a 3.50035,3.50035 0 0 0 -2.8457,-3.445312 c -5.63979,-1.071287 -11.43617,-0.80923 -17.70508,2.875 -1.55922,-2.560197 -3.22647,-5.228517 -5.64063,-7.642579 a 3.50035,3.50035 0 0 0 -3.41797,-0.894531 c -4.53625,1.271109 -7.57968,3.041474 -10.16406,4.833984 -3.45211,-2.495382 -6.92258,-5.036516 -7.24023,-5.320312 a 3.50035,3.50035 0 0 0 -3.52149,-0.681641 c -2.86745,1.035833 -4.49828,2.459263 -5.88672,3.376953 -1.11556,0.737341 -2.58149,1.385302 -4.92968,2.003907 -3.50175,-3.267746 -7.6729,-5.970434 -12.92383,-6.328125 a 3.50035,3.50035 0 0 0 -2.06836,0.507812 c -3.82239,2.345527 -7.59436,4.387248 -11.33594,6.207032 -3.36081,-1.942261 -6.20381,-3.06429 -8.16992,-5.775391 a 3.50035,3.50035 0 0 0 -5.01758,-0.681641 c -3.82377,3.053832 -6.94948,3.76922 -10.55273,4.417969 -3.07284,-2.596753 -6.71732,-3.926263 -9.89063,-5.185547 a 3.50035,3.50035 0 0 0 -2.56445,-0.0059 c -7.09461,2.768985 -8.73315,3.726454 -12.02734,5.216797 -4.23709,-1.463618 -7.64029,-2.993136 -13.39454,-5.636719 a 3.50035,3.50035 0 0 0 -1.52734,-0.318359 z M 185.92578,238.45312 c -9.10154,0 -16.53906,7.43753 -16.53906,16.53907 v 18.32226 c 0,9.10154 7.43752,16.53907 16.53906,16.53907 h 118.39844 c 9.10154,0 16.53906,-7.43753 16.53906,-16.53907 v -18.32226 c 0,-9.10154 -7.43752,-16.53907 -16.53906,-16.53907 z m 0,7 h 118.39844 c 5.34462,0 9.53906,4.19445 9.53906,9.53907 v 18.32226 c 0,5.34462 -4.19444,9.53907 -9.53906,9.53907 H 185.92578 c -5.34462,0 -9.53906,-4.19445 -9.53906,-9.53907 v -18.32226 c 0,-5.34462 4.19444,-9.53907 9.53906,-9.53907 z m 59.4082,-81 c -18.2177,0.0304 -34.76717,5.72697 -46.89843,15.11524 -12.13126,9.38827 -19.88665,22.63727 -19.88672,37.36523 -5e-5,9.62037 3.37819,19.03522 9.625,27.1543 a 3.50035,3.50035 0 0 0 2.77344,1.36523 h 109.05859 a 3.50035,3.50035 0 0 0 2.77539,-1.36523 c 6.24682,-8.11907 9.62504,-17.53392 9.625,-27.1543 -1.1e-4,-14.75031 -7.7796,-28.01422 -19.93945,-37.40429 -12.15986,-9.39008 -28.74475,-15.07614 -46.99024,-15.07618 h -0.13672 a 3.50035,3.50035 0 0 0 -0.006,0 z m 0.006,7 h 0.006 0.13086 c 16.78481,4e-5 31.91628,5.27984 42.71289,13.61719 10.79661,8.33736 17.21671,19.56243 17.2168,31.86328 3e-5,7.48752 -2.52683,14.84273 -7.27734,21.51953 H 192.82617 c -4.75051,-6.6768 -7.27738,-14.03202 -7.27734,-21.51953 5e-5,-12.28195 6.40175,-23.49323 17.17187,-31.82812 10.76884,-8.3339 25.86245,-13.62312 42.61914,-13.65235 z m 6.90821,-79.728511 c -30.35836,-0.331388 -61.45907,0.829969 -94.67774,6.800782 l -0.10351,0.01953 -0.0996,0.02344 c 0,0 -5.71339,1.361585 -11.34961,4.000001 -2.81811,1.31921 -5.66388,2.93412 -7.92774,5.16992 -2.26385,2.2358 -4.05474,5.58991 -3.29687,9.23633 8.3574,40.21074 9.2474,92.27965 7.72265,138.60742 -1.52474,46.32777 -5.42407,86.85334 -6.49804,104.70313 -0.76653,12.73998 5.4377,20.47789 11.6875,24.19336 6.2498,3.71546 12.61914,4.0371 12.61914,4.0371 l -0.13477,-0.01 c 0,0 30.75566,2.97337 67.44727,4.08203 36.69161,1.10866 79.10729,0.53072 103.82031,-7.24219 l 0.0606,-0.0195 0.0605,-0.0215 c 4.8662,-1.72961 10.22762,-2.46229 14.64454,-5.45117 2.20845,-1.49445 4.13926,-3.83605 4.86718,-6.82618 0.72792,-2.99013 0.38647,-6.37212 -0.85546,-10.42187 l 0.12304,0.56641 c -4.59069,-34.6515 -11.60326,-145.51747 15.29297,-251.63086 1.12011,-4.41914 0.0336,-8.5568 -2.33984,-11.24805 -2.37344,-2.691248 -5.56961,-4.074766 -8.63477,-4.953126 -6.13032,-1.756721 -12.34766,-1.449219 -12.34766,-1.449219 l 0.13672,-0.0039 c -30.24389,-0.0061 -59.85843,-1.830721 -90.21679,-2.16211 z m -0.0352,7.023438 c 30.12774,0.332249 59.73055,2.132543 90.25195,2.138673 h 0.0684 l 0.0684,-0.002 c 0,0 5.47955,-0.15378 10.14649,1.18359 2.33347,0.66868 4.31243,1.7215 5.3125,2.85547 1.00006,1.13397 1.48584,2.21108 0.80468,4.89844 -27.25106,107.51332 -20.16917,218.62565 -15.44726,254.26757 l 0.0391,0.28907 0.0859,0.27929 c 1.01861,3.32154 1.05215,5.45569 0.74609,6.71289 -0.30605,1.25721 -0.81909,1.89305 -1.99023,2.68555 -2.34228,1.585 -7.48237,2.66828 -13.06445,4.65234 l 0.12109,-0.041 c -22.55249,7.09336 -65.07582,8.02269 -101.50781,6.92187 -36.432,-1.10081 -66.98438,-4.05273 -66.98438,-4.05273 l -0.0684,-0.006 -0.0664,-0.004 c 0,0 -4.83781,-0.32532 -9.44532,-3.06445 -4.60751,-2.73913 -8.91065,-7.26443 -8.27929,-17.75781 1.05081,-17.46495 4.97457,-58.30678 6.50781,-104.89258 1.53323,-46.5858 0.7156,-98.97596 -7.86524,-140.26172 -0.1785,-0.85885 0.0585,-1.54346 1.36329,-2.83203 1.30474,-1.28857 3.56835,-2.68322 5.97656,-3.81055 4.74593,-2.22165 9.78261,-3.47096 9.93164,-3.50781 32.58246,-5.846563 63.20131,-6.984216 93.29492,-6.652343 z" />
  </g>
</svg>
