<?xml version="1.0" encoding="UTF-8" standalone="no"?>
<svg
   xmlns:dc="http://purl.org/dc/elements/1.1/"
   xmlns:cc="http://creativecommons.org/ns#"
   xmlns:rdf="http://www.w3.org/1999/02/22-rdf-syntax-ns#"
   xmlns:svg="http://www.w3.org/2000/svg"
   xmlns="http://www.w3.org/2000/svg"
   xmlns:sodipodi="http://sodipodi.sourceforge.net/DTD/sodipodi-0.dtd"
   xmlns:inkscape="http://www.inkscape.org/namespaces/inkscape"
   width="480mm"
   height="480mm"
   viewBox="0 0 480 480"
   version="1.1"
   id="svg8"
   sodipodi:docname="cookies_inkscape.svg"
   inkscape:version="1.0.2 (e86c8708, 2021-01-15)">
  <sodipodi:namedview
     pagecolor="#ffffff"
     bordercolor="#666666"
     borderopacity="1"
     objecttolerance="10"
     gridtolerance="10"
     guidetolerance="10"
     inkscape:pageopacity="0"
     inkscape:pageshadow="2"
     inkscape:window-width="1463"
     inkscape:window-height="695"
     id="namedview1629"
     showgrid="false"
     inkscape:zoom="0.49168403"
     inkscape:cx="907.08661"
     inkscape:cy="907.08661"
     inkscape:window-x="1612"
     inkscape:window-y="138"
     inkscape:window-maximized="0"
     inkscape:current-layer="svg8" />
  <defs
     id="defs2" />
  <metadata
     id="metadata5">
    <rdf:RDF>
      <cc:Work
         rdf:about="">
        <dc:format>image/svg+xml</dc:format>
        <dc:type
           rdf:resource="http://purl.org/dc/dcmitype/StillImage" />
        <dc:title></dc:title>
      </cc:Work>
    </rdf:RDF>
  </metadata>
  <g
     id="layer1">
    <path
       id="path941-7-6-5-5-8-1-4"
       style="color:#000000;font-style:normal;font-variant:normal;font-weight:normal;font-stretch:normal;font-size:medium;line-height:normal;font-family:sans-serif;font-variant-ligatures:normal;font-variant-position:normal;font-variant-caps:normal;font-variant-numeric:normal;font-variant-alternates:normal;font-variant-east-asian:normal;font-feature-settings:normal;font-variation-settings:normal;text-indent:0;text-align:start;text-decoration:none;text-decoration-line:none;text-decoration-style:solid;text-decoration-color:#000000;letter-spacing:normal;word-spacing:normal;text-transform:none;writing-mode:lr-tb;direction:ltr;text-orientation:mixed;dominant-baseline:auto;baseline-shift:baseline;text-anchor:start;white-space:normal;shape-padding:0;shape-margin:0;inline-size:0;clip-rule:nonzero;display:inline;overflow:visible;visibility:visible;isolation:auto;mix-blend-mode:normal;color-interpolation:sRGB;color-interpolation-filters:linearRGB;solid-color:#000000;solid-opacity:1;vector-effect:none;fill:#000000;fill-opacity:1;fill-rule:nonzero;stroke:none;stroke-linecap:round;stroke-linejoin:round;stroke-miterlimit:4;stroke-dasharray:none;stroke-dashoffset:0;stroke-opacity:1;paint-order:stroke fill markers;color-rendering:auto;image-rendering:auto;shape-rendering:auto;text-rendering:auto;enable-background:accumulate;stop-color:#000000;stop-opacity:1;opacity:1"
       d="m 190.62305,180.30859 c -1.05721,0.0986 -2.16572,0.30781 -3.31055,0.61914 -2.72105,0.74 -5.11641,0.69905 -7.54297,2.24805 -1.21328,0.7745 -2.24771,2.10626 -2.73242,3.66602 -0.48472,1.55976 -0.57208,3.31656 -0.42773,5.54297 0.15402,2.3757 0.25417,4.3607 0.4746,6.07226 0.22044,1.71156 0.48485,3.21963 1.51954,4.61133 1.03468,1.3917 3.02728,2.10661 4.73828,1.98047 1.711,-0.12614 3.43037,-0.72169 5.63672,-1.64844 3.82886,-1.60826 8.22391,-4.85278 10.22851,-10.29492 1.43247,-3.88891 1.50036,-7.78299 -0.9043,-10.41406 -1.80348,-1.97331 -4.50807,-2.67866 -7.67968,-2.38282 z m 2.10742,5.09766 c 0.93953,0.1128 1.49948,0.42729 1.78906,0.74414 0.57917,0.6337 0.95176,2.26373 -0.12305,5.18164 -1.38256,3.75342 -4.56074,6.14545 -7.40429,7.33985 -1.99182,0.83663 -3.39493,1.21704 -4.02735,1.26367 -0.63241,0.0466 -0.2036,0.13137 -0.24609,0.0742 -0.0425,-0.0572 -0.36982,-0.81712 -0.54883,-2.20704 -0.17901,-1.38991 -0.28715,-3.34061 -0.44336,-5.75 -0.12196,-1.88111 0.0171,-3.07839 0.20703,-3.68945 0.1899,-0.61106 0.27911,-0.66633 0.59375,-0.86719 0.62929,-0.4017 2.90845,-0.74475 6.13086,-1.62109 1.81346,-0.49317 3.13273,-0.58155 4.07227,-0.46875 z m 39.12305,-56.58594 c -2.78068,0.2635 -5.42835,1.26497 -7.62305,3.04688 -4.38941,3.56381 -6.24,10.17037 -3.94531,17.8164 2.19032,7.29833 3.8665,11.84107 7.03906,14.90235 1.58628,1.53063 3.61488,2.50492 5.66797,2.86914 2.05308,0.36422 4.10312,0.2371 6.3457,-0.0469 4.81583,-0.60983 9.98501,-1.28782 14.12305,-4.17578 2.06902,-1.44398 3.83577,-3.62135 4.58203,-6.34961 0.74626,-2.72825 0.52019,-5.80642 -0.54297,-9.24023 -2.68442,-8.67019 -5.25217,-12.81596 -8.79297,-14.87891 -1.7704,-1.03147 -3.4882,-1.35739 -4.84765,-1.61523 -1.35946,-0.25785 -2.42627,-0.45177 -3.58204,-0.94727 -2.72843,-1.16974 -5.64315,-1.64435 -8.42382,-1.38086 z m 0.71875,6.98242 c 1.54032,-0.14172 3.25167,0.1051 4.94726,0.83204 1.98895,0.8527 3.7528,1.14935 5.03516,1.39257 1.28236,0.24323 2.01583,0.42911 2.62695,0.78516 1.22224,0.7121 3.13972,2.84814 5.63281,10.90039 0.79607,2.57117 0.76988,4.25191 0.47657,5.32422 -0.29331,1.07231 -0.80561,1.73464 -1.8379,2.45508 -2.06456,1.44087 -6.38285,2.38872 -10.99414,2.97265 -1.92213,0.24341 -3.32598,0.26054 -4.24414,0.0977 -0.91815,-0.16288 -1.37852,-0.38572 -2.02929,-1.01367 -1.30156,-1.2559 -3.09247,-4.87014 -5.19532,-11.87695 -1.73946,-5.79602 -0.38454,-8.71732 1.65235,-10.3711 1.01844,-0.82689 2.38936,-1.35632 3.92969,-1.49805 z M 146.7207,129.8457 c -1.11394,-0.01 -2.47432,0.0673 -3.78906,0.85547 -1.31473,0.78814 -2.23294,2.13952 -2.84961,3.77344 -0.61667,1.63392 -1.04301,3.66981 -1.42187,6.46875 -0.54745,4.04435 -0.19224,7.66001 2.0957,10.17773 1.14397,1.25887 2.79474,2.06884 4.55469,2.26368 1.75994,0.19483 3.61595,-0.13818 5.60351,-0.87891 2.0097,-0.74898 3.59224,-0.36748 5.87891,-1.7207 1.14333,-0.67662 2.09905,-1.8226 2.7832,-3.25391 0.68416,-1.43131 1.21334,-3.21015 1.76172,-5.68945 0.71246,-3.2211 0.45459,-6.51693 -1.66406,-8.86524 -2.11865,-2.3483 -5.49971,-3.22626 -9.75,-3.06836 -1.08332,0.0403 -2.08918,-0.0526 -3.20313,-0.0625 z m -0.0449,5.12696 c 0.78798,0.007 1.97591,0.11289 3.4375,0.0586 3.44113,-0.12784 5.08046,0.63441 5.75391,1.38086 0.67344,0.74645 0.97796,2.00241 0.46484,4.32227 -0.50518,2.28396 -0.98718,3.75824 -1.38281,4.58593 -0.39563,0.82769 -0.5868,0.94575 -0.76758,1.05274 -0.36156,0.21397 -2.13411,0.24017 -5.05859,1.33007 -1.46031,0.54424 -2.55392,0.66279 -3.24805,0.58594 -0.69413,-0.0768 -1.00236,-0.26105 -1.32422,-0.61523 -0.64371,-0.70836 -1.24926,-2.78751 -0.80859,-6.04297 0.35219,-2.60191 0.75839,-4.3433 1.13672,-5.3457 0.37832,-1.00241 0.61695,-1.14521 0.6875,-1.1875 0.0705,-0.0423 0.32139,-0.13198 1.10937,-0.125 z m -36.33008,44.70117 c -3.65015,0.0448 -7.1665,2.01611 -9.87304,4.72265 -3.608731,3.60873 -6.273611,8.78607 -7.001957,14.60743 -0.173885,1.38978 0.104376,2.24876 0.408203,3.22656 0.303827,0.97779 0.726479,1.98577 1.25,3.05273 1.047042,2.13392 2.499017,4.48011 4.248047,6.67188 1.749027,2.19177 3.762387,4.23698 6.183597,5.6582 2.4212,1.42122 5.67209,2.21723 8.67187,0.85742 5.11156,-2.31707 9.26487,-4.75051 12.38477,-7.76172 3.1199,-3.0112 5.1557,-6.77028 5.5039,-10.98242 0.45578,-5.5134 -2.23999,-10.07342 -5.84375,-13.03515 -3.60375,-2.96174 -8.05584,-4.80275 -12.26172,-6.37696 -1.22132,-0.45713 -2.4532,-0.65557 -3.66992,-0.64062 z m -0.0293,7.01172 c 0.45685,-0.0178 0.87354,0.0468 1.24414,0.18554 3.98992,1.49339 7.82134,3.21488 10.27148,5.22852 2.45014,2.01364 3.57769,3.84286 3.3125,7.05078 -0.20248,2.44936 -1.17839,4.38821 -3.38867,6.52149 -2.21028,2.13327 -5.70465,4.28993 -10.41211,6.42382 -0.46475,0.21068 -0.97661,0.22221 -2.24023,-0.51953 -1.26363,-0.74173 -2.85637,-2.23697 -4.25391,-3.98828 -1.39754,-1.75131 -2.63283,-3.75075 -3.43555,-5.38672 -0.40135,-0.81798 -0.69499,-1.55122 -0.84961,-2.04883 -0.15462,-0.4976 -0.0774,-0.84739 -0.14843,-0.27929 0.52313,-4.1812 2.59678,-8.11827 5.00586,-10.52735 1.8068,-1.80681 3.52398,-2.60676 4.89453,-2.66015 z m 39.36132,71.93945 c -2.88033,-3.3e-4 -5.81219,0.97864 -8.09961,3.08984 -2.28792,2.11168 -3.88212,5.21191 -4.72851,9.19922 -0.84691,3.98978 1.17408,7.61165 3.76953,10.12305 2.59545,2.5114 6.13691,4.41029 9.91602,3.24219 2.5523,-0.7889 5.40099,-2.19428 7.79492,-4.26172 2.39392,-2.06745 4.49704,-5.04668 4.23242,-8.70899 -0.28744,-3.978 -1.80828,-7.27138 -4.19922,-9.46484 -2.39044,-2.19301 -5.52581,-3.21771 -8.68359,-3.21875 z m 0,5.80664 c 1.93765,3.8e-4 3.5509,0.58417 4.75782,1.69141 1.20692,1.10723 2.13201,2.80837 2.33398,5.60351 0.0844,1.168 -0.63407,2.51079 -2.23633,3.89453 -1.60226,1.38375 -3.92399,2.55644 -5.71289,3.10938 -0.58225,0.17997 -2.582,-0.33636 -4.16406,-1.86719 -1.58206,-1.53083 -2.37452,-3.57784 -2.12695,-4.74414 0.66695,-3.14199 1.79589,-5.03619 2.98828,-6.13672 1.19239,-1.10053 2.49879,-1.55122 4.16015,-1.55078 z m 159.42383,-12.75391 c -1.09385,0.0644 -2.24248,0.24958 -3.42578,0.54883 -5.84906,1.47922 -9.59284,5.70359 -11.33984,11.22852 -0.46058,1.4566 -0.84419,2.7742 -0.90039,4.22851 -0.0562,1.45432 0.39802,3.16061 1.48437,4.39063 2.17271,2.46004 5.40631,3.20476 10.89649,4.28906 2.90216,0.57317 5.05781,0.72004 6.99414,0.21484 1.93632,-0.50519 3.51571,-2.03772 4.14648,-3.56835 1.26154,-3.06128 0.72107,-5.68903 1.40625,-7.9336 1.19617,-3.91851 1.0823,-7.87836 -1.35547,-10.63867 -1.82832,-2.07023 -4.62469,-2.95289 -7.90625,-2.75977 z m 1.9668,5.47657 c 0.93326,0.15016 1.49777,0.51279 1.8418,0.90234 0.68806,0.7791 1.09321,2.57839 0.22461,5.42383 -1.09559,3.58902 -0.93779,6.73035 -1.23243,7.44531 -0.14731,0.35748 0.0903,0.21497 -0.4707,0.36133 -0.56097,0.14636 -2.05875,0.20622 -4.55664,-0.28711 -5.22421,-1.03177 -7.56911,-2.21849 -7.85742,-2.54492 -0.14416,-0.16322 -0.13838,-0.0628 -0.11914,-0.56055 0.0192,-0.49778 0.23647,-1.47582 0.65234,-2.79101 1.38428,-4.37783 3.24488,-6.51091 7.46484,-7.57813 1.81692,-0.4595 3.11948,-0.52126 4.05274,-0.37109 z m 5.86914,-66.47852 c -4.20553,0.12906 -8.14626,1.65595 -11.07617,4.32422 -3.90655,3.55769 -5.67732,9.58588 -3.22656,15.47656 1.58022,3.79825 3.28374,7.75507 6.00195,11.03321 2.71821,3.27813 6.815,5.79687 11.90234,5.79687 8.65452,0 16.56898,-7.74123 18.13086,-17.62695 0.81474,-5.15681 -1.97029,-9.65435 -5.46289,-12.72852 -3.49259,-3.07417 -7.8538,-5.12562 -12.00391,-5.92773 -1.43299,-0.27697 -2.86378,-0.39068 -4.26562,-0.34766 z m 0.23633,7.01367 c 0.88157,-0.0338 1.78964,0.0309 2.70117,0.20703 2.75317,0.53213 6.30216,2.19184 8.70703,4.3086 2.40487,2.11676 3.5045,4.28791 3.17383,6.38086 -1.03219,6.53312 -7.40027,11.7207 -11.2168,11.7207 -3.01679,0 -4.69924,-1.07744 -6.51367,-3.26562 -1.81443,-2.18819 -3.39497,-5.56779 -4.92773,-9.25196 -1.46376,-3.5183 -0.58793,-5.73315 1.47656,-7.61328 1.54836,-1.4101 3.95488,-2.38479 6.59961,-2.48633 z m -46.4043,128.4043 c -1.27972,-0.0834 -2.60121,-0.0288 -3.94336,0.16992 -1.66587,0.2467 -3.10632,0.24614 -4.69336,0.36133 -1.58704,0.11519 -3.48887,0.38185 -5.27734,1.53906 -3.57693,2.31443 -5.2168,6.5699 -7.29688,15.11328 -1.23514,5.07305 0.25122,10.69915 3.58203,14.96875 1.66541,2.1348 3.92208,3.94757 6.76368,4.71094 2.8416,0.76337 6.13692,0.3069 9.17578,-1.43359 3.88662,-2.22604 7.49434,-4.08748 10.49219,-6.61914 2.99785,-2.53167 5.34498,-6.0966 5.64062,-10.56641 0.36706,-5.54959 -1.23277,-10.56425 -4.60742,-13.95898 -2.53099,-2.54605 -5.99678,-4.03488 -9.83594,-4.28516 z m -0.43359,6.95703 c 2.28745,0.11438 4.00296,0.9542 5.30468,2.26367 1.73564,1.74597 2.85082,4.58535 2.5879,8.56055 -0.16788,2.53807 -1.0673,3.90434 -3.17188,5.68164 -2.10457,1.7773 -5.45483,3.60034 -9.45703,5.89258 -1.73641,0.99452 -2.85019,1.0244 -3.87891,0.74805 -1.02871,-0.27636 -2.10366,-1.02873 -3.0625,-2.25782 -1.91767,-2.45816 -2.84614,-6.7579 -2.29882,-9.00586 1.97393,-8.10744 3.64078,-10.46679 4.29882,-10.89257 0.32902,-0.21289 0.77625,-0.34619 1.98047,-0.4336 1.20423,-0.0874 2.9947,-0.0914 5.21289,-0.41992 0.89557,-0.13262 1.72189,-0.17485 2.48438,-0.13672 z m -28.36133,-87.54297 c -8.11728,0.80178 -14.25303,7.09043 -15.17188,15.12305 -0.53558,4.68211 0.28716,9.21529 3.19727,12.45898 2.91011,3.2437 7.74157,4.50081 13.0293,3.4043 2.92832,-0.60724 6.84109,-1.00619 10.33203,-3.23047 1.74547,-1.11214 3.37589,-2.8477 4.20312,-5.1289 0.82724,-2.28121 0.85928,-4.91693 0.20899,-7.86133 -0.98037,-4.43895 -2.83135,-8.19362 -5.53125,-10.89063 -2.6999,-2.69701 -6.41397,-4.25564 -10.26758,-3.875 z m 0.6875,6.96485 c 1.69822,-0.16774 3.13507,0.36714 4.63281,1.86328 1.49774,1.49614 2.89065,4.0338 3.64453,7.44726 0.45237,2.04824 0.30311,3.25286 0.0449,3.96485 -0.25819,0.71198 -0.61701,1.12214 -1.38477,1.61133 -1.53553,0.97837 -4.74442,1.60581 -7.99219,2.27929 -3.64483,0.75583 -5.29106,0.008 -6.39648,-1.22461 -1.10542,-1.23213 -1.8356,-3.64472 -1.45313,-6.98828 0.59235,-5.17838 3.78882,-8.44784 8.9043,-8.95312 z M 191.19141,91.076172 C 121.32485,91.090485 64.619069,147.80922 64.619141,217.67578 c -5.1e-5,69.87669 56.720969,126.59771 126.597659,126.59766 1.40933,-1.3e-4 2.81997,-0.0251 4.22851,-0.0723 a 3.50035,3.50035 0 0 0 3.1211,-4.82422 c -5.72296,-13.97104 -8.87891,-29.25999 -8.87891,-45.30468 0,-64.75819 51.37389,-115.64942 115.70312,-119.42383 a 3.50035,3.50035 0 0 0 3.03516,-4.81641 C 289.09874,122.48386 243.165,91.458653 192.08203,91.109375 l 0.67578,0.337891 a 3.50035,3.50035 0 0 0 -1.35937,-0.363282 3.50035,3.50035 0 0 0 -0.18164,-0.0078 3.50035,3.50035 0 0 0 -0.0254,0 z m 0,7 h 0.0254 c 47.02757,1.16e-4 89.43732,27.564948 108.78515,70.109378 -65.44595,6.27619 -117.31445,59.11822 -117.31445,125.88672 0,15.17007 2.79807,29.67042 7.69727,43.16015 C 124.67937,336.78033 71.619093,283.48847 71.619141,217.67578 71.619073,151.5918 125.10742,98.08971 191.19141,98.076172 Z M 309.1875,167.47656 c -69.73067,1.94827 -126.5,56.71818 -126.5,126.59571 0,69.87661 56.72104,126.59765 126.59766,126.59765 a 3.50035,3.50035 0 0 0 2.75586,-5.6582 c 0,0 -2.002,-2.41026 -3.53907,-8.87891 -1.53706,-6.46864 -2.35932,-16.68451 0.9668,-31.36523 2.7399,-12.09327 11.08699,-21.36784 10.62695,-47.68164 -0.29925,-17.11738 8.39506,-26.77842 18.50782,-34.625 5.05637,-3.92329 10.43535,-7.25289 15.08007,-10.61133 4.64473,-3.35844 8.74371,-6.71018 10.64649,-11.48438 5.34695,-13.41591 19.7106,-20.00349 33.37109,-23.10937 13.66049,-3.10588 25.94336,-2.60742 25.94336,-2.60742 a 3.50035,3.50035 0 0 0 3.38086,-4.83789 C 407.9235,193.74009 360.99493,166.02905 309.1875,167.47656 Z m 0.19531,6.9961 c 47.35816,-1.3232 89.86173,22.89983 108.97657,63.27148 -4.96378,0.0795 -12.39935,0.45716 -22.20899,2.6875 -14.70247,3.34278 -31.69533,10.71431 -38.32227,27.3418 -0.94888,2.38081 -3.91531,5.27286 -8.24609,8.40429 -4.33077,3.13144 -9.83794,6.53754 -15.26953,10.75196 -10.86318,8.42884 -21.55798,20.65197 -21.21484,40.27929 0.434,24.82524 -7.25384,31.88219 -10.45508,46.01172 -3.53677,15.61047 -2.74436,26.98277 -0.95117,34.5293 0.52653,2.2159 1.15353,4.03028 1.78711,5.62695 -63.37331,-3.04516 -113.79102,-55.17172 -113.79102,-119.30468 0,-66.09263 53.50887,-117.75038 119.69531,-119.59961 z" />
  </g>
</svg>
