<?xml version="1.0" encoding="UTF-8" standalone="no"?>
<svg
   xmlns:dc="http://purl.org/dc/elements/1.1/"
   xmlns:cc="http://creativecommons.org/ns#"
   xmlns:rdf="http://www.w3.org/1999/02/22-rdf-syntax-ns#"
   xmlns:svg="http://www.w3.org/2000/svg"
   xmlns="http://www.w3.org/2000/svg"
   xmlns:sodipodi="http://sodipodi.sourceforge.net/DTD/sodipodi-0.dtd"
   xmlns:inkscape="http://www.inkscape.org/namespaces/inkscape"
   width="480mm"
   height="480mm"
   viewBox="0 0 480 480"
   version="1.1"
   id="svg8"
   sodipodi:docname="dumpling_inkscape.svg"
   inkscape:version="1.0.2 (e86c8708, 2021-01-15)">
  <sodipodi:namedview
     pagecolor="#ffffff"
     bordercolor="#666666"
     borderopacity="1"
     objecttolerance="10"
     gridtolerance="10"
     guidetolerance="10"
     inkscape:pageopacity="0"
     inkscape:pageshadow="2"
     inkscape:window-width="1234"
     inkscape:window-height="810"
     id="namedview4097"
     showgrid="false"
     inkscape:zoom="0.49168403"
     inkscape:cx="907.08661"
     inkscape:cy="907.08661"
     inkscape:window-x="1875"
     inkscape:window-y="192"
     inkscape:window-maximized="0"
     inkscape:current-layer="svg8" />
  <defs
     id="defs2" />
  <metadata
     id="metadata5">
    <rdf:RDF>
      <cc:Work
         rdf:about="">
        <dc:format>image/svg+xml</dc:format>
        <dc:type
           rdf:resource="http://purl.org/dc/dcmitype/StillImage" />
        <dc:title></dc:title>
      </cc:Work>
    </rdf:RDF>
  </metadata>
  <g
     id="layer1">
    <path
       style="color:#000000;font-style:normal;font-variant:normal;font-weight:normal;font-stretch:normal;font-size:medium;line-height:normal;font-family:sans-serif;font-variant-ligatures:normal;font-variant-position:normal;font-variant-caps:normal;font-variant-numeric:normal;font-variant-alternates:normal;font-variant-east-asian:normal;font-feature-settings:normal;font-variation-settings:normal;text-indent:0;text-align:start;text-decoration:none;text-decoration-line:none;text-decoration-style:solid;text-decoration-color:#000000;letter-spacing:normal;word-spacing:normal;text-transform:none;writing-mode:lr-tb;direction:ltr;text-orientation:mixed;dominant-baseline:auto;baseline-shift:baseline;text-anchor:start;white-space:normal;shape-padding:0;shape-margin:0;inline-size:0;clip-rule:nonzero;display:inline;overflow:visible;visibility:visible;isolation:auto;mix-blend-mode:normal;color-interpolation:sRGB;color-interpolation-filters:linearRGB;solid-color:#000000;solid-opacity:1;vector-effect:none;fill:#000000;fill-opacity:1;fill-rule:nonzero;stroke:none;stroke-linecap:round;stroke-linejoin:miter;stroke-miterlimit:4;stroke-dasharray:none;stroke-dashoffset:0;stroke-opacity:1;color-rendering:auto;image-rendering:auto;shape-rendering:auto;text-rendering:auto;enable-background:accumulate;stop-color:#000000;stop-opacity:1;opacity:1;stroke-width:1"
       d="M 215.37891 96.576172 C 204.595 96.941569 193.70652 100.01037 183.80664 106.64648 C 179.41371 103.41905 173.46006 101.84471 166.60352 101.47852 C 158.51851 101.04671 149.16903 102.26339 139.67383 105.04297 C 121.11119 110.4769 101.92363 121.94291 91.888672 139.82031 C 91.143998 139.90781 90.531579 139.975 89.287109 140.14453 C 85.535071 140.65566 79.939655 141.6625 73.84375 144.14062 C 61.852873 149.01519 47.945686 160.0353 42.837891 182.97656 C 26.875931 197.46977 17.276933 222.21526 19.771484 240.32031 C 21.0413 249.53643 26.292539 257.51995 35.648438 259.51953 C 45.002327 261.51869 57.309198 258.11164 73.804688 247.95117 C 88.108657 239.39572 99.902294 228.48988 131.47266 218.88477 C 128.24084 223.32398 125.62167 229.06364 123.92969 236.20898 C 111.95228 242.23318 101.06636 250.95932 93.992188 262.50195 C 93.904878 262.46813 93.867064 262.42077 93.777344 262.38867 C 91.393114 261.53559 87.913863 261.12092 83.650391 262.26562 C 75.159971 264.54522 63.65983 272.57498 48.050781 294.42578 A 3.5 3.5 0 0 0 47.933594 294.56836 C 47.923104 294.58205 47.914783 294.59763 47.904297 294.61133 C 47.889006 294.63279 47.876627 294.64453 47.861328 294.66602 A 3.5 3.5 0 0 0 47.736328 294.85547 C 34.777623 311.85581 24.79761 332.56962 23.976562 348.16406 C 23.563818 356.00346 25.846137 363.30665 32.234375 366.64844 C 38.555671 369.95521 47.329579 369.11285 59.230469 364.38281 A 3.5 3.5 0 0 0 59.564453 364.26953 A 3.5 3.5 0 0 0 59.585938 364.26172 A 3.5 3.5 0 0 0 59.701172 364.21289 C 97.853221 347.24416 158.34422 341.66795 215.375 343.13086 C 272.40578 344.59377 326.34293 353.13066 350.81641 363 A 3.5 3.5 0 0 0 351.04688 363.08203 C 357.41377 365.70746 362.83169 366.6292 367.47266 365.82617 C 372.18234 365.01125 375.93312 362.20935 378.10938 358.46875 C 382.46188 350.98754 381.6906 340.52295 378.36719 330.01172 C 375.13887 319.80127 369.20622 309.51428 361.30273 302.09375 C 363.35423 301.7001 365.98242 301.31562 369.8418 301.08984 C 380.95309 300.43983 399.65072 300.9723 427.80078 304.83398 C 435.23758 306.8326 441.39983 307.23278 446.49023 306.11719 C 451.66265 304.98362 455.70372 302.13432 458.13281 298.2832 C 462.991 290.58097 461.90674 280.00418 457.96094 269.73242 C 454.01513 259.46066 446.95845 249.25493 437.98828 242.2207 C 430.77693 236.56571 422.0853 233.03611 413.05664 233.71094 C 413.0664 233.23895 413.11227 232.76323 413.05664 232.30078 C 412.67696 229.14436 411.20809 226.09503 409.10156 222.9707 C 404.8885 216.72204 397.90262 210.15571 389.50391 204.41211 C 381.10519 198.66851 371.31033 193.79847 361.42578 191.39648 C 353.76214 189.53419 345.96919 189.22331 338.86328 191.33984 C 338.70818 190.36019 338.46276 189.39871 338.06836 188.49805 C 336.69018 185.35079 334.2045 182.67151 331.05078 180.21094 C 330.85163 180.05556 330.59353 179.91929 330.38867 179.76562 C 331.72563 178.01477 332.53857 175.91289 332.80273 173.75391 C 333.17663 170.69815 332.67109 167.48469 331.61133 164.1875 C 329.49181 157.59311 325.08166 150.57022 319.23242 144.38477 C 313.38319 138.19931 306.07984 132.86503 297.95898 130.125 C 291.63239 127.99036 284.7249 127.59725 277.99414 129.6875 C 277.86336 128.80782 277.87306 127.91169 277.58008 127.06641 C 276.48147 123.89679 274.42292 120.89292 271.69531 117.98828 C 266.2401 112.17901 258.00322 106.7434 248.21289 102.73828 C 238.42256 98.733159 226.98677 96.182856 215.37891 96.576172 z M 215.79883 103.57031 C 226.21576 103.24056 236.57362 105.53954 245.5625 109.2168 C 254.55138 112.89406 262.08028 117.97484 266.59375 122.78125 C 268.85049 125.18446 270.32712 127.51385 270.9668 129.35938 C 271.60647 131.2049 271.50706 132.37178 270.93945 133.41211 A 3.5 3.5 0 0 0 270.92578 133.4375 A 3.5 3.5 0 0 0 270.92578 133.43945 A 3.5 3.5 0 0 0 270.88672 133.51562 A 3.5 3.5 0 0 0 270.86328 133.56055 A 3.5 3.5 0 0 0 270.85352 133.57812 A 3.5 3.5 0 0 0 270.8457 133.59766 A 3.5 3.5 0 0 0 270.82617 133.64062 A 3.5 3.5 0 0 0 270.80664 133.68359 A 3.5 3.5 0 0 0 270.79688 133.70703 A 3.5 3.5 0 0 0 270.78906 133.72266 A 3.5 3.5 0 0 0 270.74219 133.83984 A 3.5 3.5 0 0 0 270.73242 133.86523 A 3.5 3.5 0 0 0 270.73047 133.87109 A 3.5 3.5 0 0 0 270.70117 133.95703 A 3.5 3.5 0 0 0 270.69922 133.96094 A 3.5 3.5 0 0 0 270.69727 133.96875 A 3.5 3.5 0 0 0 270.6875 133.99609 A 3.5 3.5 0 0 0 270.67969 134.01758 A 3.5 3.5 0 0 0 270.67188 134.04492 A 3.5 3.5 0 0 0 270.66602 134.06641 A 3.5 3.5 0 0 0 270.63672 134.16016 A 3.5 3.5 0 0 0 270.63477 134.16797 A 3.5 3.5 0 0 0 270.63477 134.16992 A 3.5 3.5 0 0 0 270.62891 134.19141 A 3.5 3.5 0 0 0 270.61719 134.23828 A 3.5 3.5 0 0 0 270.59961 134.3125 A 3.5 3.5 0 0 0 270.59766 134.31836 C 268.94236 141.59689 266.00244 146.46939 263.53125 149.5293 C 261.05933 152.5901 259.29688 153.66211 259.29688 153.66211 A 3.5 3.5 0 0 0 258.20898 158.49023 A 3.5 3.5 0 0 0 263.03711 159.57812 C 263.03711 159.57812 265.91599 157.71547 268.97656 153.92578 C 271.80241 150.42673 274.93317 145.03789 276.9043 137.65039 C 283.12695 134.6346 289.43372 134.63654 295.7207 136.75781 C 302.41223 139.01558 308.92889 143.67781 314.14648 149.19531 C 319.36408 154.71282 323.26597 161.0991 324.94727 166.33008 C 325.78792 168.94557 326.0558 171.24908 325.85352 172.90234 C 325.66932 174.40775 325.18287 175.27376 324.39648 175.9668 C 318.91262 172.95739 312.37873 170.40583 305.24023 168.57227 C 294.9362 165.92561 283.55037 164.74787 272.96875 166.10352 C 263.54524 167.31079 254.77988 170.7497 248.23828 177.04102 C 243.77456 173.98322 237.87953 172.34232 231.21289 171.74219 C 223.14823 171.0162 213.99208 171.81547 205.12305 174.14844 C 196.25401 176.48141 187.66487 180.34416 180.87109 185.97656 C 174.99332 190.84955 170.62431 197.23989 168.79883 204.83203 C 165.29824 204.17996 159.43453 203.42861 151.5293 205.3418 C 148.97912 205.95898 146.35712 206.944 143.77148 208.2793 C 100.38791 218.96134 85.501586 232.80501 70.183594 241.96094 L 70.162109 241.97461 L 70.142578 241.98633 C 54.40478 251.6818 43.491818 254.03749 37.111328 252.67383 C 30.730839 251.31016 27.731769 246.80261 26.707031 239.36523 C 24.715175 224.90867 33.469279 201.37781 47.117188 188.5918 C 61.497626 191.16396 68.167969 201.89453 68.167969 201.89453 A 3.5 3.5 0 0 0 72.982422 203.04492 A 3.5 3.5 0 0 0 74.132812 198.23047 C 74.132812 198.23047 66.32284 185.88959 50.289062 182.14453 C 55.25641 163.04718 66.426359 154.71223 76.480469 150.625 C 81.803138 148.46121 86.782103 147.5501 90.232422 147.08008 C 91.326345 146.93106 92.005332 146.85259 92.791016 146.75977 C 95.211876 150.62758 100.19641 159.93729 101.44922 172.66992 A 3.5 3.5 0 0 0 105.27539 175.81055 A 3.5 3.5 0 0 0 108.41602 171.98438 C 106.97338 157.32252 101.06394 146.71975 98.402344 142.57422 C 107.31797 127.31342 124.63906 116.73671 141.64062 111.75977 C 150.46563 109.17638 159.14547 108.09035 166.23047 108.46875 C 172.79696 108.81946 177.75168 110.55882 180.39648 112.80469 C 183.47911 125.69186 175.79297 142.60156 175.79297 142.60156 A 3.5 3.5 0 0 0 177.4043 147.28125 A 3.5 3.5 0 0 0 182.08398 145.66992 C 182.08398 145.66992 190.65454 128.76245 187.45312 112.5957 C 196.24705 106.63194 206.02937 103.87957 215.79883 103.57031 z M 281.12305 172.55273 C 288.5418 172.45489 296.31772 173.50921 303.49805 175.35352 C 313.07182 177.8126 321.60948 181.72086 326.74609 185.72852 C 329.3144 187.73234 330.97678 189.75497 331.65625 191.30664 C 332.32868 192.84222 332.3081 193.71569 331.55469 195.00195 C 326.11827 202.26102 322.07462 208.37223 319.46484 212.73828 C 318.1418 214.95169 317.18531 216.70742 316.55273 218.04297 C 316.23645 218.71074 316.00118 219.23977 315.81055 219.875 C 315.71523 220.19262 315.59533 220.48809 315.59375 221.22656 C 315.59296 221.5958 315.58494 222.12875 316 222.93359 C 316.41506 223.73844 317.62512 224.68304 318.66797 224.83203 A 3.5 3.5 0 0 0 322.62695 221.86133 A 3.5 3.5 0 0 0 322.6582 221.55664 C 322.71751 221.4075 322.7355 221.34379 322.87891 221.04102 C 323.34959 220.04726 324.22941 218.41325 325.47461 216.33008 C 327.87308 212.31752 331.71911 206.51398 336.83203 199.6543 C 343.23776 196.35925 351.23167 196.12206 359.77148 198.19727 C 368.56156 200.33329 377.73497 204.8451 385.55273 210.19141 C 393.3705 215.53771 399.84883 221.76785 403.29883 226.88477 C 405.02383 229.44322 405.93679 231.71822 406.10742 233.13672 C 406.27537 234.53297 406.12808 234.86148 405.36133 235.45703 C 392.77572 244.07605 378.63281 250.72266 378.63281 250.72266 A 3.5 3.5 0 0 0 376.94727 255.375 A 3.5 3.5 0 0 0 381.59961 257.06055 C 381.59961 257.06055 395.73601 250.43118 408.81641 241.55078 C 417.45901 238.92978 425.9969 241.71149 433.66992 247.72852 C 441.4283 253.81248 447.936 263.15756 451.42578 272.24219 C 454.91556 281.32682 455.13784 289.91158 452.21289 294.54883 C 450.75042 296.86745 448.6271 298.48268 444.99219 299.2793 C 441.35924 300.07548 436.17581 299.88551 429.31641 298.00586 C 429.31413 298.00523 429.31283 298.00453 429.31055 298.00391 A 3.5 3.5 0 0 0 429.30664 298.00391 A 3.5 3.5 0 0 0 429.23242 297.98438 A 3.5 3.5 0 0 0 429.1543 297.96484 A 3.5 3.5 0 0 0 429.00391 297.93555 A 3.5 3.5 0 0 0 428.86719 297.91406 A 3.5 3.5 0 0 0 428.85742 297.91211 C 428.85245 297.91143 428.84872 297.91084 428.84375 297.91016 A 3.5 3.5 0 0 0 428.6875 297.89258 C 400.25049 293.99484 381.20531 293.4128 369.43164 294.10156 C 363.53207 294.44669 359.50028 295.07822 356.75977 295.90625 C 355.90699 296.16391 355.18796 296.44909 354.48242 296.83398 C 349.30758 293.66768 343.50425 291.83114 337.38477 292.08008 C 337.40739 291.90635 337.51672 291.74829 337.53125 291.57422 C 337.7785 288.61124 337.05516 285.60941 335.76367 282.60938 C 333.1807 276.6093 328.22015 270.47488 321.84375 265.18945 C 315.46735 259.90403 307.6543 255.50385 299.22461 253.49219 C 292.66048 251.92572 285.67178 251.93043 278.94531 254.1543 C 278.81365 253.29501 278.82734 252.41982 278.54102 251.59375 C 277.4424 248.42414 275.38386 245.42026 272.65625 242.51562 C 267.20104 236.70635 258.96416 231.26879 249.17383 227.26367 C 230.28774 219.53757 205.32204 217.39364 184.76562 231.17383 C 180.3727 227.9464 174.41904 226.37206 167.5625 226.00586 C 159.47749 225.57405 150.12802 226.78878 140.63281 229.56836 C 137.81829 230.39227 134.99531 231.39922 132.18359 232.5 C 135.39551 223.10174 140.4081 217.92892 145.80664 214.97656 C 145.90223 214.95317 145.97443 214.92767 146.07031 214.9043 A 3.5 3.5 0 0 0 147.40039 214.25781 C 149.31775 213.36942 151.25694 212.60892 153.17578 212.14453 C 161.99906 210.00916 169.78054 212.01642 170.22461 212.13281 C 176.53046 215.36529 180.13615 218.06089 182.00391 219.80469 C 182.95927 220.69664 183.48372 221.34519 183.74219 221.70312 C 184.00065 222.06106 183.88477 221.875 183.88477 221.875 A 3.5 3.5 0 0 0 188.47266 223.73633 A 3.5 3.5 0 0 0 190.33398 219.15039 C 190.33398 219.15039 189.96597 218.36242 189.41797 217.60352 C 188.86997 216.84461 188.03466 215.85954 186.7793 214.6875 C 184.61786 212.66952 180.81925 210.01641 175.41992 207.06445 C 176.72652 200.84186 180.18081 195.64073 185.33789 191.36523 C 191.09489 186.59238 198.80882 183.04889 206.90234 180.91992 C 214.99587 178.79095 223.46201 178.07177 230.58398 178.71289 C 236.92992 179.28416 242.00093 181.06744 244.92773 183.27539 C 244.81573 193.48001 243.38616 199.76359 242.09961 203.10938 C 241.45403 204.78827 240.87623 205.67519 240.57812 206.08008 A 3.5 3.5 0 0 0 239.39258 207.42383 C 239.26788 207.67322 239.08157 207.96019 239.01172 208.75391 C 238.9768 209.15076 238.96922 209.72922 239.28711 210.4668 C 239.605 211.20437 240.38636 211.99812 241.16016 212.32227 C 242.70775 212.97056 243.45572 212.50133 243.87109 212.33398 C 244.28647 212.16664 244.48803 212.02439 244.66406 211.90039 C 245.36819 211.40441 245.6367 211.04119 246.04297 210.51367 C 246.85551 209.45864 247.75118 207.91384 248.63281 205.62109 C 250.31242 201.25313 251.83697 194.10569 251.93164 183.10938 C 257.13156 177.44668 264.84205 174.20211 273.85938 173.04688 C 276.21729 172.7448 278.65013 172.58535 281.12305 172.55273 z M 216.75977 228.09766 C 227.1767 227.7679 237.53455 230.06688 246.52344 233.74414 C 255.51232 237.4214 263.03926 242.50023 267.55273 247.30664 C 269.80947 249.70985 271.28611 252.03924 271.92578 253.88477 C 272.56546 255.73029 272.46605 256.89913 271.89844 257.93945 A 3.5 3.5 0 0 0 271.89062 257.95703 A 3.5 3.5 0 0 0 271.88086 257.97266 A 3.5 3.5 0 0 0 271.87109 257.99023 A 3.5 3.5 0 0 0 271.84961 258.03125 A 3.5 3.5 0 0 0 271.81445 258.10547 A 3.5 3.5 0 0 0 271.76562 258.20898 A 3.5 3.5 0 0 0 271.76172 258.2207 A 3.5 3.5 0 0 0 271.75781 258.23242 A 3.5 3.5 0 0 0 271.75 258.25 A 3.5 3.5 0 0 0 271.72656 258.30664 A 3.5 3.5 0 0 0 271.70898 258.35156 A 3.5 3.5 0 0 0 271.69141 258.39258 A 3.5 3.5 0 0 0 271.69141 258.39453 A 3.5 3.5 0 0 0 271.68359 258.41797 A 3.5 3.5 0 0 0 271.68164 258.41992 A 3.5 3.5 0 0 0 271.67969 258.42969 A 3.5 3.5 0 0 0 271.64062 258.54102 A 3.5 3.5 0 0 0 271.63086 258.56836 A 3.5 3.5 0 0 0 271.63086 258.57031 A 3.5 3.5 0 0 0 271.61133 258.63867 A 3.5 3.5 0 0 0 271.60938 258.64453 A 3.5 3.5 0 0 0 271.59961 258.68359 A 3.5 3.5 0 0 0 271.5957 258.69531 A 3.5 3.5 0 0 0 271.56641 258.80859 A 3.5 3.5 0 0 0 271.56445 258.81836 A 3.5 3.5 0 0 0 271.55859 258.83984 C 268.47743 272.39692 254.01758 276.91211 254.01758 276.91211 A 3.5 3.5 0 0 0 251.68945 281.2793 A 3.5 3.5 0 0 0 256.05664 283.60938 C 256.05664 283.60938 272.87999 278.44158 277.75 262.2168 C 284.1119 259.0641 290.86209 258.69294 297.59961 260.30078 C 304.71797 261.9995 311.70564 265.87714 317.37695 270.57812 C 323.04827 275.27911 327.38243 280.83907 329.33594 285.37695 C 330.31269 287.64589 330.66905 289.62164 330.55469 290.99219 C 330.44245 292.33728 330.06006 293.07666 329.12109 293.81445 C 317.51155 301.70855 298.39844 302.39062 298.39844 302.39062 A 3.5 3.5 0 0 0 294.9668 305.95703 A 3.5 3.5 0 0 0 298.53125 309.39062 C 298.53125 309.39062 318.28832 309.27555 332.52148 299.91211 C 341.14251 297.28188 348.96612 300.27816 355.94922 306.58594 C 362.99996 312.95482 368.71518 322.70796 371.69141 332.12109 C 374.66763 341.53423 374.63727 350.51497 372.05859 354.94727 C 370.76926 357.16341 369.1345 358.43565 366.2793 358.92969 C 363.4241 359.42373 359.17844 358.91158 353.47656 356.52539 A 3.5 3.5 0 0 0 353.43359 356.50781 C 353.43135 356.50691 353.42803 356.50676 353.42578 356.50586 A 3.5 3.5 0 0 0 353.11719 356.39844 C 326.59162 345.79672 272.95101 337.60705 215.55469 336.13477 C 158.09936 334.66097 97.297249 339.96 57.179688 357.69336 A 3.5 3.5 0 0 0 56.972656 357.76758 C 45.765105 362.2749 38.856442 362.21236 35.478516 360.44531 C 32.10059 358.67827 30.628362 354.96121 30.966797 348.5332 C 31.643666 335.67719 41.09245 315.01224 53.492188 298.82422 A 3.5 3.5 0 0 0 53.564453 298.72656 C 68.79119 277.34306 79.483614 270.63129 85.464844 269.02539 C 88.455459 268.22244 90.297247 268.57682 91.419922 268.97852 C 91.978162 269.17825 91.873095 269.18844 92.050781 269.29883 C 95.260417 282.31593 87.367188 298.75586 87.367188 298.75586 A 3.5 3.5 0 0 0 88.876953 303.4707 A 3.5 3.5 0 0 0 93.591797 301.95898 C 93.591797 301.95898 102.9251 284.5223 98.882812 267.86914 C 107.65284 252.18283 125.30727 241.34918 142.59961 236.28711 C 151.42461 233.70372 160.10446 232.6177 167.18945 232.99609 C 173.75661 233.34683 178.71284 235.08583 181.35742 237.33203 C 184.43977 250.21916 176.75391 267.12695 176.75391 267.12695 A 3.5 3.5 0 0 0 178.36523 271.80859 A 3.5 3.5 0 0 0 183.04492 270.19727 C 183.04492 270.19727 191.61591 253.28808 188.41406 237.12109 C 197.20784 231.1576 206.99052 228.40691 216.75977 228.09766 z "
       id="path1082" />
  </g>
</svg>
