<?xml version="1.0" encoding="UTF-8" standalone="no"?>
<svg
   xmlns:osb="http://www.openswatchbook.org/uri/2009/osb"
   xmlns:dc="http://purl.org/dc/elements/1.1/"
   xmlns:cc="http://creativecommons.org/ns#"
   xmlns:rdf="http://www.w3.org/1999/02/22-rdf-syntax-ns#"
   xmlns:svg="http://www.w3.org/2000/svg"
   xmlns="http://www.w3.org/2000/svg"
   xmlns:sodipodi="http://sodipodi.sourceforge.net/DTD/sodipodi-0.dtd"
   xmlns:inkscape="http://www.inkscape.org/namespaces/inkscape"
   width="480mm"
   height="480mm"
   viewBox="0 0 480 480"
   version="1.1"
   id="svg1090"
   sodipodi:docname="ice_cream_inkscape.svg"
   inkscape:version="1.0.2 (e86c8708, 2021-01-15)">
  <sodipodi:namedview
     pagecolor="#ffffff"
     bordercolor="#666666"
     borderopacity="1"
     objecttolerance="10"
     gridtolerance="10"
     guidetolerance="10"
     inkscape:pageopacity="0"
     inkscape:pageshadow="2"
     inkscape:window-width="689"
     inkscape:window-height="480"
     id="namedview2266"
     showgrid="false"
     inkscape:zoom="0.49168403"
     inkscape:cx="907.08661"
     inkscape:cy="907.08661"
     inkscape:window-x="1800"
     inkscape:window-y="268"
     inkscape:window-maximized="0"
     inkscape:current-layer="svg1090" />
  <defs
     id="defs1084">
    <linearGradient
       id="linearGradient873">
      <stop
         style="stop-color:#000000;stop-opacity:1;"
         offset="0"
         id="stop871" />
    </linearGradient>
    <linearGradient
       id="linearGradient1694"
       osb:paint="solid">
      <stop
         style="stop-color:#000000;stop-opacity:1;"
         offset="0"
         id="stop1692" />
    </linearGradient>
    <linearGradient
       id="linearGradient1678"
       osb:paint="solid">
      <stop
         style="stop-color:#000000;stop-opacity:1;"
         offset="0"
         id="stop1676" />
    </linearGradient>
    <linearGradient
       id="linearGradient1672"
       osb:paint="solid">
      <stop
         style="stop-color:#000000;stop-opacity:1;"
         offset="0"
         id="stop1670" />
    </linearGradient>
    <linearGradient
       id="linearGradient1532"
       osb:paint="solid">
      <stop
         style="stop-color:#000000;stop-opacity:1;"
         offset="0"
         id="stop1530" />
    </linearGradient>
  </defs>
  <metadata
     id="metadata1087">
    <rdf:RDF>
      <cc:Work
         rdf:about="">
        <dc:format>image/svg+xml</dc:format>
        <dc:type
           rdf:resource="http://purl.org/dc/dcmitype/StillImage" />
        <dc:title></dc:title>
      </cc:Work>
    </rdf:RDF>
  </metadata>
  <g
     id="layer1">
    <path
       id="path961"
       style="color:#000000;font-style:normal;font-variant:normal;font-weight:normal;font-stretch:normal;font-size:medium;line-height:normal;font-family:sans-serif;font-variant-ligatures:normal;font-variant-position:normal;font-variant-caps:normal;font-variant-numeric:normal;font-variant-alternates:normal;font-variant-east-asian:normal;font-feature-settings:normal;font-variation-settings:normal;text-indent:0;text-align:start;text-decoration:none;text-decoration-line:none;text-decoration-style:solid;text-decoration-color:#000000;letter-spacing:normal;word-spacing:normal;text-transform:none;writing-mode:lr-tb;direction:ltr;text-orientation:mixed;dominant-baseline:auto;baseline-shift:baseline;text-anchor:start;white-space:normal;shape-padding:0;shape-margin:0;inline-size:0;clip-rule:nonzero;display:inline;overflow:visible;visibility:visible;isolation:auto;mix-blend-mode:normal;color-interpolation:sRGB;color-interpolation-filters:linearRGB;solid-color:#000000;solid-opacity:1;vector-effect:none;fill:#000000;fill-opacity:1;fill-rule:nonzero;stroke:none;stroke-linecap:round;stroke-linejoin:miter;stroke-miterlimit:4;stroke-dasharray:none;stroke-dashoffset:0;stroke-opacity:1;color-rendering:auto;image-rendering:auto;shape-rendering:auto;text-rendering:auto;enable-background:accumulate;stop-color:#000000;stop-opacity:1;opacity:1"
       d="m 169.3418,339.57031 a 3.418025,3.418025 0 0 0 -3.41797,3.41797 3.418025,3.418025 0 0 0 3.41797,3.41797 h 136.52734 a 3.418025,3.418025 0 0 0 3.41797,-3.41797 3.418025,3.418025 0 0 0 -3.41797,-3.41797 z m 9.07031,36.44141 a 3.4366701,3.4366701 0 0 0 -3.4375,3.43555 3.4366701,3.4366701 0 0 0 3.4375,3.4375 h 117.82422 a 3.4366701,3.4366701 0 0 0 3.43555,-3.4375 3.4366701,3.4366701 0 0 0 -3.43555,-3.43555 z M 214.47656,58.775391 c -6.63568,-0.421629 -13.11079,0.534223 -17.92578,2.769531 -3.20999,1.490205 -6.19236,3.859555 -6.60547,7.630859 -0.41311,3.771305 2.02763,7.085273 5.91016,9.908203 5.14241,3.738973 6.88272,7.141126 7.24609,10.289063 0.36338,3.147937 -0.76625,6.451545 -2.7832,9.626953 -2.01695,3.17541 -4.8646,6.09621 -7.31445,8.2207 -1.22493,1.06225 -2.34884,1.93108 -3.20313,2.54492 -0.85429,0.61385 -1.73037,1.08935 -1.3457,0.90626 l 1.51367,6.66015 98.10352,-0.28515 -0.56446,-3.98047 C 285.29776,97.478729 272.66643,84.982471 258.90039,75.888672 245.16756,66.816813 230.23504,61.074786 221.01172,59.646484 c -2.1603,-0.439148 -4.35649,-0.732662 -6.53516,-0.871093 z m -0.42383,7.046875 c 1.90779,0.09391 3.82076,0.317708 5.64844,0.693359 l 0.0879,0.01758 0.0879,0.01367 c 7.39686,1.132087 22.25496,6.655884 35.16407,15.183594 11.50694,7.601451 21.35633,17.544279 24.60742,28.341801 l -79.78516,0.23046 c 2.20256,-2.12972 4.46678,-4.56304 6.36328,-7.54882 2.55528,-4.022935 4.44116,-8.889837 3.83008,-14.183598 -0.61108,-5.29376 -3.83554,-10.603327 -10.08398,-15.146484 -2.92426,-2.126187 -3.08584,-3.344643 -3.07032,-3.486328 0.0155,-0.141685 0.49282,-1.065816 2.59766,-2.042969 3.15727,-1.465728 8.82937,-2.353999 14.55273,-2.072265 z m -32.6914,44.515624 c -15.34095,0 -27.80078,12.45788 -27.80078,27.79883 0,15.34094 12.45983,27.80078 27.80078,27.80078 h 113.16015 c 15.34095,0 27.80079,-12.45984 27.80079,-27.80078 0,-15.34095 -12.45984,-27.79883 -27.80079,-27.79883 z m 0,6.99805 h 113.16015 c 11.58458,0 20.80274,9.2162 20.80274,20.80078 0,11.58458 -9.21816,20.80273 -20.80274,20.80273 H 181.36133 c -11.58458,0 -20.80078,-9.21815 -20.80078,-20.80273 0,-11.58458 9.2162,-20.80078 20.80078,-20.80078 z m -22.24414,41.15039 c -15.58357,0 -28.25391,12.67034 -28.25391,28.2539 0,15.58357 12.67034,28.25196 28.25391,28.25196 h 157.65039 c 15.58356,0 28.25195,-12.66839 28.25195,-28.25196 0,-15.58356 -12.66839,-28.2539 -28.25195,-28.2539 z m 0,7.90429 h 157.65039 c 11.34196,0 20.34961,9.00766 20.34961,20.34961 0,11.34196 -9.00765,20.34961 -20.34961,20.34961 H 159.11719 c -11.34196,0 -20.34961,-9.00765 -20.34961,-20.34961 0,-11.34195 9.00765,-20.3496 20.34961,-20.34961 z m -19.22266,40.34571 c -15.77277,0 -28.60547,12.83269 -28.60547,28.60547 0,15.77277 12.8327,28.60547 28.60547,28.60547 h 196.09375 c 15.77277,0 28.60547,-12.8327 28.60547,-28.60547 0,-15.77278 -12.8327,-28.60547 -28.60547,-28.60547 z m 0,8.60742 h 196.09375 c 11.15275,0 19.99805,8.8453 19.99805,19.99805 0,11.15275 -8.8453,19.99609 -19.99805,19.99609 H 139.89453 c -11.15275,0 -19.99609,-8.84334 -19.99609,-19.99609 0,-11.15275 8.84334,-19.99805 19.99609,-19.99805 z m 164.16211,42.1875 a 3.912195,3.912195 0 0 0 -3.91211,3.91211 v 26.6543 a 3.912195,3.912195 0 0 0 3.91211,3.91211 3.912195,3.912195 0 0 0 3.91211,-3.91211 v -26.6543 a 3.912195,3.912195 0 0 0 -3.91211,-3.91211 z m -34.57812,-1.44141 a 3.912195,3.912195 0 0 0 -3.91211,3.91211 v 26.6543 a 3.912195,3.912195 0 0 0 3.91211,3.91211 3.912195,3.912195 0 0 0 3.9121,-3.91211 v -26.6543 a 3.912195,3.912195 0 0 0 -3.9121,-3.91211 z m -32.0586,1.44141 a 3.912195,3.912195 0 0 0 -3.91211,3.91211 v 26.6543 a 3.912195,3.912195 0 0 0 3.91211,3.91211 3.912195,3.912195 0 0 0 3.91211,-3.91211 v -26.6543 a 3.912195,3.912195 0 0 0 -3.91211,-3.91211 z m -33.49804,0 a 3.912195,3.912195 0 0 0 -3.91211,3.91211 v 26.6543 a 3.912195,3.912195 0 0 0 3.91211,3.91211 3.912195,3.912195 0 0 0 3.91406,-3.91211 v -26.6543 a 3.912195,3.912195 0 0 0 -3.91406,-3.91211 z m -32.41602,-1.08008 a 3.912195,3.912195 0 0 0 -3.91211,3.91211 v 26.6543 a 3.912195,3.912195 0 0 0 3.91211,3.91211 3.912195,3.912195 0 0 0 3.91211,-3.91211 v -26.6543 a 3.912195,3.912195 0 0 0 -3.91211,-3.91211 z m -34.64648,-0.56445 a 3.7564856,3.7564856 0 0 0 -3.75586,3.75586 v 28.85937 a 3.7564856,3.7564856 0 0 0 3.75586,3.75586 h 202.16601 a 3.7564856,3.7564856 0 0 0 3.75586,-3.75586 v -28.85937 a 3.7564856,3.7564856 0 0 0 -3.75586,-3.75586 z m 3.75585,7.51172 h 194.6543 v 21.34765 h -194.6543 z m 9.27869,25.77983 173.2146,0.0439 M 192.23047,443.26758 a 3.912195,3.912195 0 0 0 -3.91211,3.91211 3.912195,3.912195 0 0 0 3.91211,3.91211 h 88.05273 a 3.912195,3.912195 0 0 0 3.91211,-3.91211 3.912195,3.912195 0 0 0 -3.91211,-3.91211 z M 323.14648,285.31055 a 3.912195,3.912195 0 0 0 -3.81445,2.88867 l -42.82422,157.95703 a 3.912195,3.912195 0 0 0 2.75196,4.80078 3.912195,3.912195 0 0 0 4.80078,-2.75391 l 42.82422,-157.95703 a 3.912195,3.912195 0 0 0 -2.75196,-4.79882 3.912195,3.912195 0 0 0 -0.98633,-0.13672 z m -173.2871,-0.0449 a 3.912195,3.912195 0 0 0 -0.97852,0.13282 3.912195,3.912195 0 0 0 -2.76563,4.79297 l 42.33594,158.00195 a 3.912195,3.912195 0 0 0 4.79102,2.76562 3.912195,3.912195 0 0 0 2.76758,-4.79101 L 153.67188,288.16602 a 3.912195,3.912195 0 0 0 -3.8125,-2.9004 z m 140.1042,115.20767 z" />
  </g>
</svg>
