<?xml version="1.0" encoding="UTF-8" standalone="no"?>
<svg
   xmlns:dc="http://purl.org/dc/elements/1.1/"
   xmlns:cc="http://creativecommons.org/ns#"
   xmlns:rdf="http://www.w3.org/1999/02/22-rdf-syntax-ns#"
   xmlns:svg="http://www.w3.org/2000/svg"
   xmlns="http://www.w3.org/2000/svg"
   xmlns:sodipodi="http://sodipodi.sourceforge.net/DTD/sodipodi-0.dtd"
   xmlns:inkscape="http://www.inkscape.org/namespaces/inkscape"
   width="480mm"
   height="480mm"
   viewBox="0 0 480 480"
   version="1.1"
   id="svg958"
   sodipodi:docname="rice_inkscape.svg"
   inkscape:version="1.0.2 (e86c8708, 2021-01-15)">
  <sodipodi:namedview
     pagecolor="#ffffff"
     bordercolor="#666666"
     borderopacity="1"
     objecttolerance="10"
     gridtolerance="10"
     guidetolerance="10"
     inkscape:pageopacity="0"
     inkscape:pageshadow="2"
     inkscape:window-width="1383"
     inkscape:window-height="718"
     id="namedview2905"
     showgrid="false"
     inkscape:zoom="0.49168403"
     inkscape:cx="907.08661"
     inkscape:cy="907.08661"
     inkscape:window-x="1674"
     inkscape:window-y="231"
     inkscape:window-maximized="0"
     inkscape:current-layer="layer1" />
  <defs
     id="defs952" />
  <metadata
     id="metadata955">
    <rdf:RDF>
      <cc:Work
         rdf:about="">
        <dc:format>image/svg+xml</dc:format>
        <dc:type
           rdf:resource="http://purl.org/dc/dcmitype/StillImage" />
        <dc:title></dc:title>
      </cc:Work>
    </rdf:RDF>
  </metadata>
  <g
     id="layer1">
    <path
       id="path1695"
       style="color:#000000;font-style:normal;font-variant:normal;font-weight:normal;font-stretch:normal;font-size:medium;line-height:normal;font-family:sans-serif;font-variant-ligatures:normal;font-variant-position:normal;font-variant-caps:normal;font-variant-numeric:normal;font-variant-alternates:normal;font-variant-east-asian:normal;font-feature-settings:normal;font-variation-settings:normal;text-indent:0;text-align:start;text-decoration:none;text-decoration-line:none;text-decoration-style:solid;text-decoration-color:#000000;letter-spacing:normal;word-spacing:normal;text-transform:none;writing-mode:lr-tb;direction:ltr;text-orientation:mixed;dominant-baseline:auto;baseline-shift:baseline;text-anchor:start;white-space:normal;shape-padding:0;shape-margin:0;inline-size:0;clip-rule:nonzero;display:inline;overflow:visible;visibility:visible;isolation:auto;mix-blend-mode:normal;color-interpolation:sRGB;color-interpolation-filters:linearRGB;solid-color:#000000;solid-opacity:1;vector-effect:none;fill:#000000;fill-opacity:1;fill-rule:nonzero;stroke:none;stroke-linecap:round;stroke-linejoin:miter;stroke-miterlimit:4;stroke-dasharray:none;stroke-dashoffset:0;stroke-opacity:1;color-rendering:auto;image-rendering:auto;shape-rendering:auto;text-rendering:auto;enable-background:accumulate;stop-color:#000000;stop-opacity:1;opacity:1"
       d="m 120.99414,261.41211 a 3.5,3.5 0 0 0 -3.5,3.5 3.5,3.5 0 0 0 3.5,3.5 h 242.76367 a 3.5,3.5 0 0 0 3.5,-3.5 3.5,3.5 0 0 0 -3.5,-3.5 z m 11.76823,24.62891 a 3.5416661,3.5 0 0 0 -3.54167,3.5 3.5416661,3.5 0 0 0 3.54167,3.5 h 218.35992 a 3.5416661,3.5 0 0 0 3.54167,-3.5 3.5416661,3.5 0 0 0 -3.54167,-3.5 z m 148.65169,-88.54493 a 3.5,3.5 0 0 0 -0.61914,0.0469 l -17.5918,2.93164 a 3.5,3.5 0 0 0 -2.87695,4.02734 3.5,3.5 0 0 0 4.02735,2.87696 l 17.59179,-2.93164 a 3.5,3.5 0 0 0 2.87696,-4.02735 3.5,3.5 0 0 0 -3.40821,-2.92383 z m -63.99414,0.58594 a 3.5,3.5 0 0 0 -3.0625,1.86914 3.5,3.5 0 0 0 1.4668,4.72852 l 11.14062,5.86328 a 3.5,3.5 0 0 0 4.72852,-1.4668 3.5,3.5 0 0 0 -1.4668,-4.72851 l -11.14258,-5.86328 a 3.5,3.5 0 0 0 -1.66406,-0.40235 z m 39.23828,-24.04101 a 3.5,3.5 0 0 0 -0.92187,0.14648 l -17.5918,5.27734 a 3.5,3.5 0 0 0 -2.3457,4.35743 3.5,3.5 0 0 0 4.35742,2.34765 l 17.5918,-5.27734 a 3.5,3.5 0 0 0 2.3457,-4.35742 3.5,3.5 0 0 0 -3.43555,-2.49414 z m 50.44922,17.59179 a 3.5,3.5 0 0 0 -2.16406,0.80078 3.5,3.5 0 0 0 -0.4707,4.92774 l 11.14257,13.48633 a 3.5,3.5 0 0 0 4.92774,0.46875 3.5,3.5 0 0 0 0.46875,-4.92774 l -11.14258,-13.48633 a 3.5,3.5 0 0 0 -2.76172,-1.26953 z m -113.98047,-2.34765 a 3.5,3.5 0 0 0 -1.79297,0.49023 l -15.83203,9.38281 a 3.5,3.5 0 0 0 -1.22656,4.79492 3.5,3.5 0 0 0 4.79492,1.22657 l 15.83399,-9.38281 a 3.5,3.5 0 0 0 1.22656,-4.79493 3.5,3.5 0 0 0 -3.00391,-1.71679 z m 39.71289,-38.86719 c -7.91591,-0.40488 -16.65586,2.44768 -27.30859,10.54101 -4.443,2.21603 -9.76522,1.68596 -16.30664,2.45118 -6.25628,0.73186 -13.39784,3.47256 -19.66797,11.56836 -13.62576,2.31687 -19.72602,7.64992 -23.10742,12.67382 -1.75306,2.6046 -2.91406,4.87465 -4.33984,6.57032 -1.42579,1.69567 -3.02666,2.99506 -6.32032,4.01757 a 3.50035,3.50035 0 0 0 -0.16797,0.0566 c -8.95734,3.2862 -12.9816,9.08963 -14.30859,14.58593 -1.32699,5.49631 -0.86438,10.44267 -1.86914,13.36133 a 3.50035,3.50035 0 0 0 3.30859,4.63867 h 240.41993 a 3.50035,3.50035 0 0 0 3.0039,-1.70312 c 3.65547,-6.11354 1.74887,-13.46082 -2.68945,-19.57617 -4.24382,-5.84737 -10.90734,-11.20095 -18.77735,-15.5293 -1.5511,-2.9019 -2.66399,-6.44661 -5.08007,-10.29688 -2.5804,-4.11211 -6.83596,-8.16136 -14.2461,-11.17773 -6.36578,-3.19774 -11.60187,-3.37314 -16.41211,-2.77734 -4.74195,0.58734 -9.24409,1.62764 -16.14258,1.27929 -1.99899,-0.63651 -3.18581,-1.3371 -4.45703,-2.30664 -1.36417,-1.04043 -2.91182,-2.49362 -5.29297,-4.00976 -4.70254,-2.99425 -12.26941,-5.8087 -28.6289,-7.65235 -7.11318,-3.00256 -13.7285,-6.31175 -21.60938,-6.71484 z m -0.35742,6.99023 c 6.18667,0.31644 12.15811,3.20302 19.68164,6.35547 a 3.50035,3.50035 0 0 0 0.97071,0.25 c 16.25304,1.78216 22.56621,4.37249 26.18359,6.67578 1.80869,1.15165 3.06248,2.33968 4.80664,3.66993 1.74416,1.33024 3.98061,2.68958 7.10742,3.60742 a 3.50035,3.50035 0 0 0 0.7793,0.13476 c 8.07756,0.47649 13.54854,-0.80317 17.81836,-1.33203 4.26982,-0.52886 7.23261,-0.56066 12.52539,2.13086 a 3.50035,3.50035 0 0 0 0.2793,0.12695 c 6.41482,2.58462 9.12768,5.38116 11.0664,8.47071 1.93873,3.08954 2.95651,6.80655 5.29688,10.81445 a 3.50035,3.50035 0 0 0 1.38281,1.32812 c 7.59871,4.02727 13.90507,9.20167 17.44141,14.07422 2.93403,4.04268 3.80546,7.34742 2.97656,10.16797 H 127.08789 c 0.45725,-3.42769 0.37757,-6.65605 1.0293,-9.35547 0.94043,-3.8952 2.56728,-6.96482 9.91406,-9.66015 l -0.16797,0.0566 c 4.43312,-1.37627 7.49658,-3.69152 9.60352,-6.19727 2.10693,-2.50575 3.34697,-5.02343 4.78906,-7.16601 2.88419,-4.28516 6.22178,-7.99593 19.67578,-9.97071 a 3.50035,3.50035 0 0 0 2.34375,-1.43359 c 5.49642,-7.72348 10.23421,-9.14613 15.76367,-9.79297 5.52947,-0.64683 12.07144,0.19058 18.73633,-3.1875 a 3.50035,3.50035 0 0 0 0.55469,-0.35156 c 10.07146,-7.76323 16.96567,-9.73245 23.15234,-9.41602 z m -124.77539,66.96094 a 3.50035,3.50035 0 0 0 -3.4707,3.95508 c 6.10994,46.56371 32.74698,87.18579 71.66211,109.57617 v 12.88672 c 0,6.94953 4.60263,13.36523 11.29883,13.36523 h 107.37109 c 6.69619,0 11.29883,-6.4157 11.29883,-13.36523 v -11.19336 c 40.51613,-21.97327 68.39469,-63.47606 74.66601,-111.26953 a 3.50035,3.50035 0 0 0 -3.4707,-3.95508 z m 4.2207,7 h 261.02735 c -6.82848,43.04798 -32.00808,80.21669 -68.08399,100.75781 -1.67566,-4.56281 -5.40476,-8.02734 -10.30273,-8.02734 H 187.19727 c -4.37935,0 -7.69955,2.86265 -9.58594,6.70508 -34.87213,-20.80339 -58.99649,-57.34831 -65.6836,-99.43555 z m 79.17188,100.08789 h 100.7168 c 2.95186,0 5.82964,2.47746 7.05078,6.69922 v 12.63086 c 0,3.97923 -2.35454,6.36523 -4.29883,6.36523 H 187.19727 c -1.94431,0 -4.29883,-2.386 -4.29883,-6.36523 v -11.29102 a 3.50035,3.50035 0 0 0 1.22851,-1.72265 c 1.29941,-4.03403 4.1035,-6.31641 6.97266,-6.31641 z" />
  </g>
</svg>
