<svg
   xmlns="http://www.w3.org/2000/svg"
   viewBox="0 0 200 100">
   <defs>
      <style>
         path {
            stroke: white;
         }
      </style>
   </defs>
    <path
       style="fill:none;"
       d="m 180.05342,41.484265 c -5.63462,2.025993 -10.53,7.54649 -6.03809,13.351033 7.73413,9.994236 8.56849,-13.351033 9.66093,-13.351033 0.50065,0 -0.6038,1.261377 -0.6038,3.641194 0,3.061174 1.0555,6.045618 1.2076,9.102975 0.43238,8.691131 1.76715,22.064256 -8.45331,25.488328 -1.72904,0.579266 -3.80411,1.426071 -5.43428,0.60686 -1.63015,-0.819204 -0.0568,-3.754533 0.60381,-5.461783 5.51294,-14.247868 15.69072,-15.774315 27.7752,-21.847137 m -44.68183,-8.49611 c -1.0247,3.568 0.51235,7.318976 0,10.923573 -0.0403,0.283198 -0.68751,0.88029 -0.6038,0.606858 1.77781,-5.764256 2.23618,-8.483359 6.64188,-12.137295 4.31529,-2.473215 3.21023,0.426542 3.62286,1.820596 0.95418,4.492042 0.16417,6.840502 3.01904,9.709841 M 142.01348,45.125459 c -2.29549,-1.53601 -5.10348,-1.623595 -6.03807,1.820596 -1.97534,7.279531 6.03364,17.725807 12.67997,9.709835 3.66869,-4.424721 -3.67269,-18.762715 -8.45332,-13.957893 M 119.67258,29.953835 c -0.66879,5.055606 -1.33021,10.093357 -1.81142,15.171624 -3.16872,23.701777 4.03118,4.263029 13.28379,-3.034327 0.83208,-0.650451 3.97087,-2.334728 3.01904,-4.248054 -0.68018,-1.367235 -9.77139,6.89383 -8.45332,11.530433 0.69775,2.454474 6.25494,5.345247 6.25494,6.834107 M 79.386006,41.455224 c -9.014328,-1.599417 -5.89274,14.061037 0.527786,16.974647 2.894956,1.163844 6.068926,-4.769211 6.333429,-6.895949 0.554831,-2.189175 -1.808647,-10.575562 -4.222283,-9.548241 -1.148634,1.154448 1.455678,5.578394 1.583361,5.835037 2.717279,5.462085 10.661531,19.392939 7.916783,25.461964 -0.466146,1.030717 -1.369345,1.800228 -2.111147,2.65229 -3.805331,4.370964 -23.756508,5.712216 -15.833568,-6.895952 5.37379,-8.55158 14.367948,-11.375687 22.167,-16.974644 2.9177,-2.094619 6.356633,-5.327904 8.972353,-7.956861 M 51.851678,43.30907 c 2.348743,0.857574 2.719964,-0.700115 4.21856,1.884401 1.144072,2.299724 1.40619,5.011026 1.40619,7.537629 v 2.355505 0.471101 c -1.668151,-5.322482 3.590084,-14.903488 7.030928,-13.190845 1.162994,1.202724 0.577758,2.213154 0.937454,3.297713 0.449737,1.356026 4.050503,11.475348 7.030934,8.479829 M 40.948281,42.60663 c -2.737159,-0.421177 -6.78,-1.698808 -7.968389,1.884405 -1.292637,3.897549 2.965131,15.159012 8.09103,12.95108 5.906942,-2.544363 6.270294,-12.825467 -0.178581,-16.714378 M 3.4713487,41.592291 c 4.1198841,-1.575176 8.6630863,-3.666144 11.2198563,-7.523818 1.015407,-1.532052 1.777804,-4.046668 2.210285,-5.786748 0.306531,-1.233307 0.553364,-3.346083 -0.340309,-4.245007 -1.177282,-1.184193 -4.647509,4.875424 -4.986603,5.64286 C 9.0081811,35.48788 9.2322215,41.770338 7.8346268,47.86214 7.3479996,52.085174 6.0447729,59.620744 4.718,56.01294 4.1724366,54.366646 4.9879114,51.165048 5.3413243,49.743094 6.6243244,45.050479 16.556271,38.178962 18.431156,39.084356 c 1.101074,0.553763 1.246649,5.91088 1.246649,6.896827 0,11.906608 -1.078173,9.68946 9.973209,11.912714" />
</svg>
