<svg
   xmlns="http://www.w3.org/2000/svg"
   viewBox="0 0 600 400">
   <defs>
      <style>
         @keyframes draw {
            0% {
               stroke-dashoffset: 3900;
            }
            100% {
               stroke-dashoffset: 0;
            }
         }

         path {
            animation: draw 5s linear forwards;
            stroke: black;
            fill-opacity: 0;
            stroke-dasharray: 3900;
            stroke-dashoffset: 3900;
         }
      </style>
   </defs>
    <path
       style="fill:none;"
       d="M 596.99209,216.95368 V 29.521745 C 596.39158,16.802599 587.69147,5.8280736 574.17144,5.4043583 L 30.012386,5.444048 C 10.465488,4.3278606 4.6311436,24.273963 5.3033077,30.17327 l -0.092022,191.05146 3.7546298,0.0127 6.0181905,2.45193 0.19833,20.03069 3.37149,0.19832 v 13.48603 l 11.899409,0.99161 0.177332,7.13963 17.659177,-0.0728 0.01259,-39.19529 1.784918,-2.97485 15.270911,-0.39665 3.56983,8.92456 0.39664,47.20101 h 10.907638 l 0.39665,2.97487 10.551271,0.0728 0.1582,-25.85489 3.569829,-1.38826 10.511149,-0.19832 0.19833,-4.56145 5.55305,-2.57821 6.14804,-0.19832 v -57.1172 l 8.35734,-6.89324 0.0707,-26.06091 2.05807,-0.024 0.2593,20.08811 4.26729,0.0239 0.1695,-20.08422 2.36204,-0.073 0.0418,26.50336 3.63449,7.90845 -0.11589,58.79398 7.69621,5.49729 -0.21989,16.93166 12.31393,0.21992 0.22543,-39.44517 4.32139,-2.74998 0.98213,-35.35686 19.64271,-0.19643 3.73211,3.14283 -0.39285,30.83904 9.62492,4.71425 0.58928,28.48192 6.08924,-6.08924 3.53568,-0.58928 4.71425,4.12497 1.17856,6.28563 1.25731,-0.0959 0.0909,1.54458 1.27205,-0.0909 0.54516,-19.89836 11.12067,-6.94487 17.56576,-0.14281 0.28562,13.28143 2.71341,3.42747 -0.28562,30.84717 11.28208,0.14282 0.28562,-7.8546 2.99903,-0.42844 0.14281,-3.57029 19.56512,-0.28562 0.14282,1.42814 18.85106,0.42844 1.1425,2.57056 4.71275,-1.42809 0.14283,-4.85555 h 10.28239 l -0.14282,3.14182 h 1.56604 v 1.85656 l 1.6845,0.0446 -0.11639,5.11747 2.82906,-0.52943 -0.10795,-44.61977 6.97947,-5.52618 14.37867,0.18201 6.18829,4.45921 0.2178,14.62888 14.17812,0.16024 0.0439,-15.90599 4.90998,-5.75652 13.71404,0.16931 1.01584,1.52378 9.64676,-1.7128 11.64802,0.3328 2.4842,4.19755 0.0156,36.99398 6.98193,0.0801 V 163.69543 l 1.59588,-37.19465 2.08696,-7.97952 2.57799,-6.01533 5.03328,-5.03324 10.06647,0.12276 3.4373,3.68286 2.45523,5.64704 1.71866,6.62914 1.8416,20.31806 0.85876,108.15199 11.66281,0.0616 10.31197,3.68286 v -14.4859 l 1.35038,-0.36829 -0.12276,-7.73399 1.35038,-8.22504 3.68284,-5.156 12.89,-0.24552 2.57802,4.41942 0.1828,51.74408 3.74557,0.0614 -0.3683,-70.95636 3.92838,-4.05114 0.12276,-2.57799 5.7698,-3.31457 0.9821,-18.78256 h 1.10485 l 0.98211,18.6598 5.89256,2.82352 0.85934,3.06904 4.41941,3.19181 0.0619,17.61636 11.60788,-5.38886 18.04853,0.24226 2.54375,2.90714 -0.0666,18.17477 16.2981,0.11599 0.11043,9.71174 2.66549,0.0193 0.16132,-13.47033 6.53352,-7.01748 h 4.92029 l 8.30803,7.01748 0.0807,20.40715 3.79103,-0.0807 -0.0806,-5.56559 4.30273,-0.0234 v 121.54119 c -1.37315,18.4122 -15.05279,24.29209 -22.87645,24.16483 H 26.870086 C 17.670768,393.6185 6.4947294,386.57799 5.1265227,369.8811 L 5.211188,254.73325"/>
</svg>
